STARTFONT 2.1
FONT -FontForge-American Typewriter-Demi-R-Normal--16-150-75-75-P-96-ISO10646-1
SIZE 15 75 75
FONTBOUNDINGBOX 38 23 -8 -6
COMMENT "Generated by fontforge, http://fontforge.sourceforge.net"
COMMENT "Digitized data (c) Copyright 1997 E+F Designstudios. ITC American Typewriter is a registered trademark of International Typeface Corporation."
STARTPROPERTIES 41
FOUNDRY "FontForge"
FAMILY_NAME "American Typewriter"
WEIGHT_NAME "Demi"
SLANT "R"
SETWIDTH_NAME "Normal"
ADD_STYLE_NAME ""
PIXEL_SIZE 16
POINT_SIZE 150
RESOLUTION_X 75
RESOLUTION_Y 75
SPACING "P"
AVERAGE_WIDTH 96
CHARSET_REGISTRY "ISO10646"
CHARSET_ENCODING "1"
FONTNAME_REGISTRY ""
CHARSET_COLLECTIONS "ISO8859-2 ISO8859-5 ISO8859-7 ISO8859-9 ISO8859-4 ISO10646-1"
FONT_NAME "AmericanTypewriter-Semibold"
FACE_NAME "American Typewriter Semibold"
COPYRIGHT "Digitized data (c) Copyright 1997 E+F Designstudios. ITC American Typewriter is a registered trademark of International Typeface Corporation."
FONT_VERSION "13.0d1e4"
FONT_ASCENT 13
FONT_DESCENT 3
UNDERLINE_POSITION -3
UNDERLINE_THICKNESS 1
X_HEIGHT 7
CAP_HEIGHT 10
DEFAULT_CHAR 4
RAW_ASCENT 800
RAW_DESCENT 200
NORM_SPACE 4
RELATIVE_WEIGHT 60
RELATIVE_SETWIDTH 50
SUPERSCRIPT_X 0
SUPERSCRIPT_Y 3
SUPERSCRIPT_SIZE 10
SUBSCRIPT_X 0
SUBSCRIPT_Y 1
SUBSCRIPT_SIZE 10
FIGURE_WIDTH 10
AVG_LOWERCASE_WIDTH 92
AVG_UPPERCASE_WIDTH 114
ENDPROPERTIES
CHARS 1164
STARTCHAR controlNULL.dup1
ENCODING 0
SWIDTH 0 0
DWIDTH 0 0
BBX 1 1 0 0
BITMAP
00
ENDCHAR
STARTCHAR controlBS
ENCODING 8
SWIDTH 0 0
DWIDTH 0 0
BBX 1 1 0 0
BITMAP
00
ENDCHAR
STARTCHAR controlHT
ENCODING 9
SWIDTH 250 0
DWIDTH 4 0
BBX 1 1 0 0
BITMAP
00
ENDCHAR
STARTCHAR controlCR
ENCODING 13
SWIDTH 250 0
DWIDTH 4 0
BBX 1 1 0 0
BITMAP
00
ENDCHAR
STARTCHAR controlGS
ENCODING 29
SWIDTH 0 0
DWIDTH 0 0
BBX 1 1 0 0
BITMAP
00
ENDCHAR
STARTCHAR space
ENCODING 32
SWIDTH 250 0
DWIDTH 4 0
BBX 1 1 0 0
BITMAP
00
ENDCHAR
STARTCHAR exclam
ENCODING 33
SWIDTH 419 0
DWIDTH 7 0
BBX 2 11 2 0
BITMAP
C0
C0
C0
C0
C0
C0
C0
C0
40
C0
C0
ENDCHAR
STARTCHAR quotedbl
ENCODING 34
SWIDTH 329 0
DWIDTH 5 0
BBX 4 5 1 6
BITMAP
B0
B0
A0
A0
A0
ENDCHAR
STARTCHAR numbersign
ENCODING 35
SWIDTH 600 0
DWIDTH 10 0
BBX 9 11 0 0
BITMAP
1B00
1B00
1B00
7F80
7F80
3200
FF80
FF80
3600
2600
2400
ENDCHAR
STARTCHAR dollar
ENCODING 36
SWIDTH 637 0
DWIDTH 10 0
BBX 8 14 1 -2
BITMAP
18
1C
7E
DB
DB
78
3E
1F
DB
DB
FF
7C
18
08
ENDCHAR
STARTCHAR percent
ENCODING 37
SWIDTH 801 0
DWIDTH 13 0
BBX 12 12 0 -1
BITMAP
38C0
6D80
CF80
CD00
4F00
7BE0
37B0
0510
0D10
19B0
19E0
1000
ENDCHAR
STARTCHAR ampersand
ENCODING 38
SWIDTH 819 0
DWIDTH 13 0
BBX 13 11 0 0
BITMAP
1E00
3600
3200
1E70
1CD8
7DF8
6DF0
C700
4300
7FA0
3CE0
ENDCHAR
STARTCHAR quotesingle
ENCODING 39
SWIDTH 187 0
DWIDTH 3 0
BBX 1 5 1 6
BITMAP
80
80
80
80
80
ENDCHAR
STARTCHAR parenleft
ENCODING 40
SWIDTH 455 0
DWIDTH 7 0
BBX 6 14 1 -3
BITMAP
0C
30
60
40
C0
C0
C0
C0
C0
C0
60
60
30
0C
ENDCHAR
STARTCHAR parenright
ENCODING 41
SWIDTH 455 0
DWIDTH 7 0
BBX 6 14 0 -3
BITMAP
C0
30
18
18
0C
0C
0C
0C
0C
0C
0C
18
30
E0
ENDCHAR
STARTCHAR asterisk
ENCODING 42
SWIDTH 637 0
DWIDTH 10 0
BBX 6 6 2 5
BITMAP
30
FC
78
78
FC
30
ENDCHAR
STARTCHAR plus
ENCODING 43
SWIDTH 500 0
DWIDTH 8 0
BBX 8 7 0 2
BITMAP
18
18
18
FF
18
18
18
ENDCHAR
STARTCHAR comma
ENCODING 44
SWIDTH 273 0
DWIDTH 4 0
BBX 2 5 1 -3
BITMAP
C0
C0
40
40
80
ENDCHAR
STARTCHAR hyphen
ENCODING 45
SWIDTH 309 0
DWIDTH 5 0
BBX 4 1 0 4
BITMAP
F0
ENDCHAR
STARTCHAR period
ENCODING 46
SWIDTH 273 0
DWIDTH 4 0
BBX 2 2 1 0
BITMAP
C0
C0
ENDCHAR
STARTCHAR slash
ENCODING 47
SWIDTH 400 0
DWIDTH 6 0
BBX 7 14 -1 -3
BITMAP
06
06
04
0C
08
18
18
10
30
20
60
60
40
C0
ENDCHAR
STARTCHAR zero
ENCODING 48
SWIDTH 637 0
DWIDTH 10 0
BBX 9 11 0 0
BITMAP
1E00
3F00
6180
6180
4080
C080
4080
6180
6180
7300
3F00
ENDCHAR
STARTCHAR one
ENCODING 49
SWIDTH 637 0
DWIDTH 10 0
BBX 6 11 2 0
BITMAP
F0
F0
30
30
30
30
30
30
30
30
FC
ENDCHAR
STARTCHAR two
ENCODING 50
SWIDTH 637 0
DWIDTH 10 0
BBX 8 11 1 0
BITMAP
3C
E6
C3
E3
43
1E
78
C3
F3
FD
CF
ENDCHAR
STARTCHAR three
ENCODING 51
SWIDTH 637 0
DWIDTH 10 0
BBX 8 11 1 0
BITMAP
FF
FF
C6
CC
1E
3F
C3
C1
83
C7
7E
ENDCHAR
STARTCHAR four
ENCODING 52
SWIDTH 637 0
DWIDTH 10 0
BBX 10 11 0 0
BITMAP
0600
0E00
1A00
1A00
3200
6200
FF80
FFC0
0200
0600
1F80
ENDCHAR
STARTCHAR five
ENCODING 53
SWIDTH 637 0
DWIDTH 10 0
BBX 8 11 1 0
BITMAP
7E
7E
43
C0
FE
E3
03
C1
C3
C7
7E
ENDCHAR
STARTCHAR six
ENCODING 54
SWIDTH 637 0
DWIDTH 10 0
BBX 8 11 1 0
BITMAP
3E
77
C3
C2
FE
E3
C3
C1
C3
E7
7E
ENDCHAR
STARTCHAR seven
ENCODING 55
SWIDTH 637 0
DWIDTH 10 0
BBX 8 11 1 0
BITMAP
F3
FF
CF
C3
C6
0C
18
18
18
38
18
ENDCHAR
STARTCHAR eight
ENCODING 56
SWIDTH 637 0
DWIDTH 10 0
BBX 8 11 1 0
BITMAP
3C
7E
C3
C3
7E
7E
C3
C3
C3
E7
7E
ENDCHAR
STARTCHAR nine
ENCODING 57
SWIDTH 637 0
DWIDTH 10 0
BBX 8 11 1 0
BITMAP
3C
7E
C3
C3
C3
C3
7F
3B
C3
C6
7C
ENDCHAR
STARTCHAR colon
ENCODING 58
SWIDTH 273 0
DWIDTH 4 0
BBX 2 7 1 0
BITMAP
C0
C0
00
00
00
C0
C0
ENDCHAR
STARTCHAR semicolon
ENCODING 59
SWIDTH 273 0
DWIDTH 4 0
BBX 2 10 1 -3
BITMAP
C0
C0
00
00
00
C0
C0
40
40
80
ENDCHAR
STARTCHAR less
ENCODING 60
SWIDTH 500 0
DWIDTH 8 0
BBX 8 8 0 1
BITMAP
03
0E
38
E0
70
1C
07
01
ENDCHAR
STARTCHAR equal
ENCODING 61
SWIDTH 500 0
DWIDTH 8 0
BBX 8 3 0 4
BITMAP
FF
00
FF
ENDCHAR
STARTCHAR greater
ENCODING 62
SWIDTH 500 0
DWIDTH 8 0
BBX 8 8 0 1
BITMAP
C0
70
1C
07
0E
38
E0
80
ENDCHAR
STARTCHAR question
ENCODING 63
SWIDTH 600 0
DWIDTH 10 0
BBX 8 11 1 0
BITMAP
3C
E7
C3
E3
E7
0E
18
30
10
30
38
ENDCHAR
STARTCHAR at
ENCODING 64
SWIDTH 692 0
DWIDTH 11 0
BBX 10 10 0 0
BITMAP
1F80
30C0
6F40
5940
D340
D3C0
5F80
6980
3380
1E00
ENDCHAR
STARTCHAR A
ENCODING 65
SWIDTH 746 0
DWIDTH 12 0
BBX 12 11 0 0
BITMAP
0600
0E00
0E00
0B00
1B00
1980
3F80
3180
30C0
60C0
FBF0
ENDCHAR
STARTCHAR B
ENCODING 66
SWIDTH 692 0
DWIDTH 11 0
BBX 10 11 0 0
BITMAP
FF00
FF80
30C0
30C0
3380
3F80
30C0
30C0
30C0
31C0
FF80
ENDCHAR
STARTCHAR C
ENCODING 67
SWIDTH 637 0
DWIDTH 10 0
BBX 10 11 0 0
BITMAP
1E80
3B80
6180
6080
4080
C000
C080
60C0
6080
7180
3F00
ENDCHAR
STARTCHAR D
ENCODING 68
SWIDTH 728 0
DWIDTH 12 0
BBX 11 11 0 0
BITMAP
FF00
FF80
30C0
3060
3060
3060
3060
3060
30C0
31C0
FF00
ENDCHAR
STARTCHAR E
ENCODING 69
SWIDTH 673 0
DWIDTH 11 0
BBX 10 11 0 0
BITMAP
FF80
FFC0
3280
3280
36C0
3E00
32C0
32C0
30C0
30C0
FFC0
ENDCHAR
STARTCHAR F
ENCODING 70
SWIDTH 619 0
DWIDTH 10 0
BBX 10 11 0 0
BITMAP
FF80
FFC0
3080
3280
3280
3E00
3200
3200
3000
3000
FC00
ENDCHAR
STARTCHAR G
ENCODING 71
SWIDTH 710 0
DWIDTH 11 0
BBX 11 11 0 0
BITMAP
1E80
3B80
6180
6080
4080
C7E0
C7E0
6080
6180
7180
3F80
ENDCHAR
STARTCHAR H
ENCODING 72
SWIDTH 783 0
DWIDTH 13 0
BBX 12 11 0 0
BITMAP
FDF0
FFF0
30C0
30C0
30C0
3FC0
30C0
30C0
30C0
30C0
FFF0
ENDCHAR
STARTCHAR I
ENCODING 73
SWIDTH 382 0
DWIDTH 6 0
BBX 6 11 0 0
BITMAP
FC
FC
30
30
30
30
30
30
30
30
FC
ENDCHAR
STARTCHAR J
ENCODING 74
SWIDTH 619 0
DWIDTH 10 0
BBX 10 11 0 0
BITMAP
07C0
07C0
0300
0300
0300
0300
7300
F300
C300
E700
7E00
ENDCHAR
STARTCHAR K
ENCODING 75
SWIDTH 783 0
DWIDTH 13 0
BBX 12 11 0 0
BITMAP
FFF0
FFF0
3180
3300
3600
3F00
3B00
3180
30C0
30E0
FFF0
ENDCHAR
STARTCHAR L
ENCODING 76
SWIDTH 637 0
DWIDTH 10 0
BBX 10 11 0 0
BITMAP
FC00
FC00
3000
3000
3000
3000
30C0
30C0
30C0
30C0
FFC0
ENDCHAR
STARTCHAR M
ENCODING 77
SWIDTH 947 0
DWIDTH 15 0
BBX 15 11 0 0
BITMAP
F83C
F83E
3C78
3C78
3C58
34D8
36D8
3698
3398
3398
FF7E
ENDCHAR
STARTCHAR N
ENCODING 78
SWIDTH 764 0
DWIDTH 12 0
BBX 12 11 0 0
BITMAP
F9F0
F9F0
3C40
3C40
3640
3640
3340
3340
3140
31C0
FCC0
ENDCHAR
STARTCHAR O
ENCODING 79
SWIDTH 655 0
DWIDTH 10 0
BBX 10 11 0 0
BITMAP
1E00
3F80
6180
60C0
40C0
C0C0
C0C0
60C0
6180
7380
3F00
ENDCHAR
STARTCHAR P
ENCODING 80
SWIDTH 637 0
DWIDTH 10 0
BBX 10 11 0 0
BITMAP
FF00
FF80
30C0
30C0
30C0
3F80
3E00
3000
3000
3000
FC00
ENDCHAR
STARTCHAR Q
ENCODING 81
SWIDTH 655 0
DWIDTH 10 0
BBX 10 14 0 -3
BITMAP
1E00
3F80
6180
60C0
40C0
C0C0
CCC0
5EC0
7380
7380
3F00
0240
0340
03C0
ENDCHAR
STARTCHAR R
ENCODING 82
SWIDTH 728 0
DWIDTH 12 0
BBX 12 11 0 0
BITMAP
FF00
FF80
30C0
30C0
3180
3F00
31A0
31B0
31B0
31B0
FCE0
ENDCHAR
STARTCHAR S
ENCODING 83
SWIDTH 619 0
DWIDTH 10 0
BBX 8 11 1 0
BITMAP
3E
6E
C2
C3
E2
7E
87
83
C3
C7
FE
ENDCHAR
STARTCHAR T
ENCODING 84
SWIDTH 637 0
DWIDTH 10 0
BBX 10 11 0 0
BITMAP
FFC0
FFC0
CCC0
CCC0
CCC0
0C00
0C00
0C00
0C00
0C00
3F00
ENDCHAR
STARTCHAR U
ENCODING 85
SWIDTH 710 0
DWIDTH 11 0
BBX 11 11 0 0
BITMAP
FBE0
FBE0
30C0
30C0
20C0
20C0
20C0
20C0
30C0
3180
1F00
ENDCHAR
STARTCHAR V
ENCODING 86
SWIDTH 728 0
DWIDTH 12 0
BBX 11 11 0 0
BITMAP
FFE0
FFE0
30C0
30C0
1980
1980
1900
0F00
0F00
0E00
0600
ENDCHAR
STARTCHAR W
ENCODING 87
SWIDTH 928 0
DWIDTH 15 0
BBX 15 11 0 0
BITMAP
FF7E
FBFE
3398
3398
3690
36B0
16F0
1CF0
1CF0
1C60
0C60
ENDCHAR
STARTCHAR X
ENCODING 88
SWIDTH 783 0
DWIDTH 13 0
BBX 12 11 0 0
BITMAP
FDF0
FDF0
19C0
1D80
0F00
0600
0F00
1D80
18C0
30E0
FDF0
ENDCHAR
STARTCHAR Y
ENCODING 89
SWIDTH 728 0
DWIDTH 12 0
BBX 12 11 0 0
BITMAP
FBF0
FBF0
3180
1980
1B00
0F00
0E00
0600
0600
0600
1F80
ENDCHAR
STARTCHAR Z
ENCODING 90
SWIDTH 619 0
DWIDTH 10 0
BBX 8 11 1 0
BITMAP
FF
FF
87
8E
8C
18
31
61
C1
C3
FF
ENDCHAR
STARTCHAR bracketleft
ENCODING 91
SWIDTH 437 0
DWIDTH 7 0
BBX 5 14 1 -3
BITMAP
78
F8
C0
C0
C0
C0
C0
C0
C0
C0
C0
C0
C0
F8
ENDCHAR
STARTCHAR backslash
ENCODING 92
SWIDTH 500 0
DWIDTH 8 0
BBX 7 13 0 -1
BITMAP
C0
40
60
20
30
30
18
18
08
0C
04
06
06
ENDCHAR
STARTCHAR bracketright
ENCODING 93
SWIDTH 437 0
DWIDTH 7 0
BBX 4 14 1 -3
BITMAP
F0
F0
10
10
10
10
10
10
10
10
10
10
10
F0
ENDCHAR
STARTCHAR asciicircum
ENCODING 94
SWIDTH 500 0
DWIDTH 8 0
BBX 6 5 1 6
BITMAP
30
78
78
CC
8C
ENDCHAR
STARTCHAR underscore
ENCODING 95
SWIDTH 500 0
DWIDTH 8 0
BBX 8 1 0 -2
BITMAP
FF
ENDCHAR
STARTCHAR grave
ENCODING 96
SWIDTH 492 0
DWIDTH 8 0
BBX 4 2 2 9
BITMAP
C0
70
ENDCHAR
STARTCHAR a
ENCODING 97
SWIDTH 564 0
DWIDTH 9 0
BBX 9 8 0 0
BITMAP
3C00
6600
6600
3E00
7E00
C680
C680
7F80
ENDCHAR
STARTCHAR b
ENCODING 98
SWIDTH 564 0
DWIDTH 9 0
BBX 8 11 0 0
BITMAP
E0
E0
60
7E
73
63
61
61
63
73
7E
ENDCHAR
STARTCHAR c
ENCODING 99
SWIDTH 510 0
DWIDTH 8 0
BBX 8 8 0 0
BITMAP
3E
66
46
C6
C0
43
66
3C
ENDCHAR
STARTCHAR d
ENCODING 100
SWIDTH 600 0
DWIDTH 10 0
BBX 9 11 0 0
BITMAP
0700
0700
0300
3F00
6700
4300
C300
C300
4300
6700
3F80
ENDCHAR
STARTCHAR e
ENCODING 101
SWIDTH 528 0
DWIDTH 8 0
BBX 8 8 0 0
BITMAP
3E
66
43
FF
C0
43
66
3E
ENDCHAR
STARTCHAR f
ENCODING 102
SWIDTH 346 0
DWIDTH 6 0
BBX 7 11 0 0
BITMAP
1C
36
26
F8
78
20
20
20
20
20
F8
ENDCHAR
STARTCHAR g
ENCODING 103
SWIDTH 546 0
DWIDTH 9 0
BBX 9 13 0 -3
BITMAP
0300
0780
3F80
6600
6200
3600
7C00
4000
7E00
C300
C100
7F00
3C00
ENDCHAR
STARTCHAR h
ENCODING 104
SWIDTH 637 0
DWIDTH 10 0
BBX 10 11 0 0
BITMAP
E000
E000
2000
3F00
3300
2100
2100
2100
2100
2180
FFC0
ENDCHAR
STARTCHAR i
ENCODING 105
SWIDTH 310 0
DWIDTH 5 0
BBX 5 10 0 0
BITMAP
60
20
E0
20
20
20
20
20
20
F8
ENDCHAR
STARTCHAR j
ENCODING 106
SWIDTH 291 0
DWIDTH 5 0
BBX 5 13 -2 -3
BITMAP
18
08
38
08
08
08
08
08
08
08
C8
D8
70
ENDCHAR
STARTCHAR k
ENCODING 107
SWIDTH 619 0
DWIDTH 10 0
BBX 10 11 0 0
BITMAP
E000
E000
2000
2F80
2700
2C00
3C00
3600
2600
2300
FFC0
ENDCHAR
STARTCHAR l
ENCODING 108
SWIDTH 309 0
DWIDTH 5 0
BBX 5 11 0 0
BITMAP
E0
E0
20
20
20
20
20
20
20
20
F8
ENDCHAR
STARTCHAR m
ENCODING 109
SWIDTH 928 0
DWIDTH 15 0
BBX 14 8 0 0
BITMAP
FEF0
3398
3118
3118
3118
3118
3118
FFFC
ENDCHAR
STARTCHAR n
ENCODING 110
SWIDTH 637 0
DWIDTH 10 0
BBX 10 8 0 0
BITMAP
FF00
3300
3100
2100
2100
2100
2100
FFC0
ENDCHAR
STARTCHAR o
ENCODING 111
SWIDTH 546 0
DWIDTH 9 0
BBX 8 8 0 0
BITMAP
3E
66
43
C3
C3
43
66
3E
ENDCHAR
STARTCHAR p
ENCODING 112
SWIDTH 600 0
DWIDTH 10 0
BBX 9 11 0 -3
BITMAP
FF00
3300
3180
2180
2180
2180
3300
3E00
2000
F800
F800
ENDCHAR
STARTCHAR q
ENCODING 113
SWIDTH 564 0
DWIDTH 9 0
BBX 9 11 0 -3
BITMAP
3F00
6700
4300
C300
C300
4300
6700
3F00
0300
0F80
0F80
ENDCHAR
STARTCHAR r
ENCODING 114
SWIDTH 491 0
DWIDTH 8 0
BBX 8 8 0 0
BITMAP
FE
33
37
26
20
20
30
F8
ENDCHAR
STARTCHAR s
ENCODING 115
SWIDTH 492 0
DWIDTH 8 0
BBX 6 8 1 0
BITMAP
7C
CC
CC
F8
BC
84
CC
F8
ENDCHAR
STARTCHAR t
ENCODING 116
SWIDTH 400 0
DWIDTH 6 0
BBX 6 10 0 0
BITMAP
60
60
F8
F8
60
60
64
64
6C
3C
ENDCHAR
STARTCHAR u
ENCODING 117
SWIDTH 619 0
DWIDTH 10 0
BBX 10 8 0 0
BITMAP
E700
6300
6100
6100
6100
6300
3300
3FC0
ENDCHAR
STARTCHAR v
ENCODING 118
SWIDTH 601 0
DWIDTH 10 0
BBX 10 8 0 0
BITMAP
F7C0
6300
2300
3200
3600
1E00
1C00
0C00
ENDCHAR
STARTCHAR w
ENCODING 119
SWIDTH 801 0
DWIDTH 13 0
BBX 13 8 0 0
BITMAP
FEF8
6760
2760
2F60
3D40
3D40
19C0
19C0
ENDCHAR
STARTCHAR x
ENCODING 120
SWIDTH 637 0
DWIDTH 10 0
BBX 10 8 0 0
BITMAP
FFC0
3300
1E00
0C00
1C00
3600
3300
FFC0
ENDCHAR
STARTCHAR y
ENCODING 121
SWIDTH 601 0
DWIDTH 10 0
BBX 11 11 -1 -3
BITMAP
7FE0
3180
1980
1900
0B00
0F00
0E00
0600
6400
EC00
7800
ENDCHAR
STARTCHAR z
ENCODING 122
SWIDTH 528 0
DWIDTH 8 0
BBX 7 8 1 0
BITMAP
FE
8C
9C
38
76
E6
C6
FE
ENDCHAR
STARTCHAR braceleft
ENCODING 123
SWIDTH 500 0
DWIDTH 8 0
BBX 4 14 2 -3
BITMAP
30
70
60
60
60
60
C0
C0
60
60
60
60
70
30
ENDCHAR
STARTCHAR bar
ENCODING 124
SWIDTH 500 0
DWIDTH 8 0
BBX 2 16 3 -4
BITMAP
C0
C0
C0
C0
C0
C0
C0
C0
C0
C0
C0
C0
C0
C0
C0
C0
ENDCHAR
STARTCHAR braceright
ENCODING 125
SWIDTH 500 0
DWIDTH 8 0
BBX 4 14 2 -3
BITMAP
C0
E0
60
60
60
60
30
30
60
60
60
60
E0
C0
ENDCHAR
STARTCHAR asciitilde
ENCODING 126
SWIDTH 667 0
DWIDTH 11 0
BBX 8 3 1 9
BITMAP
20
7F
CE
ENDCHAR
STARTCHAR uni007F.controlDEL
ENCODING 127
SWIDTH 0 0
DWIDTH 0 0
BBX 1 1 0 0
BITMAP
00
ENDCHAR
STARTCHAR nonbreakingspace
ENCODING 160
SWIDTH 250 0
DWIDTH 4 0
BBX 1 1 0 0
BITMAP
00
ENDCHAR
STARTCHAR exclamdown
ENCODING 161
SWIDTH 419 0
DWIDTH 7 0
BBX 2 11 2 -3
BITMAP
C0
C0
40
C0
C0
C0
C0
C0
C0
C0
C0
ENDCHAR
STARTCHAR cent
ENCODING 162
SWIDTH 637 0
DWIDTH 10 0
BBX 8 13 1 -1
BITMAP
08
18
1C
7E
7B
DF
D8
DB
5B
7E
1C
18
18
ENDCHAR
STARTCHAR sterling
ENCODING 163
SWIDTH 728 0
DWIDTH 12 0
BBX 12 11 0 0
BITMAP
0F00
1D80
1980
1880
7F00
7F00
0DE0
65E0
FD30
CE60
FBE0
ENDCHAR
STARTCHAR currency
ENCODING 164
SWIDTH 667 0
DWIDTH 11 0
BBX 9 9 1 1
BITMAP
8980
FF00
6300
C300
C100
4300
6600
FD00
8000
ENDCHAR
STARTCHAR yen
ENCODING 165
SWIDTH 710 0
DWIDTH 11 0
BBX 11 11 0 0
BITMAP
FBE0
FBE0
3180
1900
1BC0
7FE0
0E00
7FE0
0400
0600
1F00
ENDCHAR
STARTCHAR brokenbar
ENCODING 166
SWIDTH 500 0
DWIDTH 8 0
BBX 2 16 3 -4
BITMAP
C0
C0
C0
C0
C0
C0
C0
00
00
C0
C0
C0
C0
C0
C0
C0
ENDCHAR
STARTCHAR section
ENCODING 167
SWIDTH 637 0
DWIDTH 10 0
BBX 7 13 2 -2
BITMAP
78
EC
CC
60
78
DC
C6
EC
38
CC
CC
CC
78
ENDCHAR
STARTCHAR dieresis
ENCODING 168
SWIDTH 491 0
DWIDTH 8 0
BBX 5 2 1 9
BITMAP
58
F8
ENDCHAR
STARTCHAR copyright
ENCODING 169
SWIDTH 791 0
DWIDTH 13 0
BBX 12 11 0 0
BITMAP
0F80
38C0
67E0
49B0
58B0
D810
5890
59B0
6F20
30C0
1F80
ENDCHAR
STARTCHAR ordfeminine
ENCODING 170
SWIDTH 425 0
DWIDTH 7 0
BBX 5 6 1 5
BITMAP
60
D0
F0
98
F8
F8
ENDCHAR
STARTCHAR guillemotleft
ENCODING 171
SWIDTH 346 0
DWIDTH 6 0
BBX 4 6 1 1
BITMAP
50
F0
E0
A0
F0
50
ENDCHAR
STARTCHAR logicalnot
ENCODING 172
SWIDTH 500 0
DWIDTH 8 0
BBX 8 5 0 0
BITMAP
FF
FF
03
03
03
ENDCHAR
STARTCHAR softhyphen
ENCODING 173
SWIDTH 549 0
DWIDTH 9 0
BBX 7 2 1 3
BITMAP
FE
FE
ENDCHAR
STARTCHAR registered
ENCODING 174
SWIDTH 500 0
DWIDTH 8 0
BBX 6 6 1 6
BITMAP
78
F4
B4
BC
FC
48
ENDCHAR
STARTCHAR macron
ENCODING 175
SWIDTH 491 0
DWIDTH 8 0
BBX 5 2 1 9
BITMAP
78
F8
ENDCHAR
STARTCHAR degree
ENCODING 176
SWIDTH 500 0
DWIDTH 8 0
BBX 5 5 1 6
BITMAP
30
78
C8
48
70
ENDCHAR
STARTCHAR plusminus
ENCODING 177
SWIDTH 500 0
DWIDTH 8 0
BBX 8 9 0 1
BITMAP
18
18
18
FF
FF
18
18
00
FF
ENDCHAR
STARTCHAR twosuperior
ENCODING 178
SWIDTH 420 0
DWIDTH 7 0
BBX 6 7 0 4
BITMAP
78
44
44
38
64
FC
DC
ENDCHAR
STARTCHAR threesuperior
ENCODING 179
SWIDTH 420 0
DWIDTH 7 0
BBX 6 7 0 4
BITMAP
7C
48
50
3C
C4
C4
7C
ENDCHAR
STARTCHAR acute
ENCODING 180
SWIDTH 492 0
DWIDTH 8 0
BBX 3 2 3 9
BITMAP
60
C0
ENDCHAR
STARTCHAR mu
ENCODING 181
SWIDTH 500 0
DWIDTH 8 0
BBX 6 11 1 -3
BITMAP
84
84
84
84
84
8C
CC
F4
80
80
80
ENDCHAR
STARTCHAR paragraph
ENCODING 182
SWIDTH 581 0
DWIDTH 9 0
BBX 8 13 0 -2
BITMAP
3F
7F
FA
FA
FA
7A
1A
1A
1A
1A
1A
1A
1A
ENDCHAR
STARTCHAR periodcentered
ENCODING 183
SWIDTH 137 0
DWIDTH 2 0
BBX 2 3 0 4
BITMAP
C0
C0
40
ENDCHAR
STARTCHAR cedilla
ENCODING 184
SWIDTH 492 0
DWIDTH 8 0
BBX 4 3 2 -3
BITMAP
60
10
F0
ENDCHAR
STARTCHAR onesuperior
ENCODING 185
SWIDTH 420 0
DWIDTH 7 0
BBX 5 7 1 4
BITMAP
E0
20
20
20
20
20
F8
ENDCHAR
STARTCHAR ordmasculine
ENCODING 186
SWIDTH 425 0
DWIDTH 7 0
BBX 5 6 1 5
BITMAP
70
D0
98
D0
70
F8
ENDCHAR
STARTCHAR guillemotright
ENCODING 187
SWIDTH 346 0
DWIDTH 6 0
BBX 5 6 0 1
BITMAP
50
50
78
78
50
A0
ENDCHAR
STARTCHAR onequarter
ENCODING 188
SWIDTH 722 0
DWIDTH 12 0
BBX 11 12 0 0
BITMAP
E000
6080
6180
6300
6200
F600
0C40
0CC0
1940
13E0
3040
60E0
ENDCHAR
STARTCHAR onehalf
ENCODING 189
SWIDTH 716 0
DWIDTH 11 0
BBX 11 12 0 0
BITMAP
E000
6080
6180
6300
6200
F600
0CC0
0D20
1920
11C0
33E0
63E0
ENDCHAR
STARTCHAR threequarters
ENCODING 190
SWIDTH 757 0
DWIDTH 12 0
BBX 12 12 0 0
BITMAP
F800
90C0
3080
4980
8B00
7200
0640
0CE0
08E0
19E0
1060
30F0
ENDCHAR
STARTCHAR questiondown
ENCODING 191
SWIDTH 600 0
DWIDTH 10 0
BBX 9 11 0 -3
BITMAP
0C00
0C00
0C00
0C00
1C00
3800
6300
C780
C180
7F00
3E00
ENDCHAR
STARTCHAR Agrave
ENCODING 192
SWIDTH 746 0
DWIDTH 12 0
BBX 12 14 0 0
BITMAP
0800
0E00
0300
0600
0E00
0E00
0B00
1B00
1980
3F80
3180
30C0
60C0
FBF0
ENDCHAR
STARTCHAR Aacute
ENCODING 193
SWIDTH 746 0
DWIDTH 12 0
BBX 12 14 0 0
BITMAP
0200
0700
0C00
0600
0E00
0E00
0B00
1B00
1980
3F80
3180
30C0
60C0
FBF0
ENDCHAR
STARTCHAR Acircumflex
ENCODING 194
SWIDTH 746 0
DWIDTH 12 0
BBX 12 14 0 0
BITMAP
0400
0F00
1980
0600
0E00
0E00
0B00
1B00
1980
3F80
3180
30C0
60C0
FBF0
ENDCHAR
STARTCHAR Atilde
ENCODING 195
SWIDTH 746 0
DWIDTH 12 0
BBX 12 13 0 0
BITMAP
1F80
1300
0600
0E00
0E00
0B00
1B00
1980
3F80
3180
30C0
60C0
FBF0
ENDCHAR
STARTCHAR Adieresis
ENCODING 196
SWIDTH 746 0
DWIDTH 12 0
BBX 12 14 0 0
BITMAP
0900
1F00
0B00
0600
0E00
0E00
0B00
1B00
1980
3F80
3180
30C0
60C0
FBF0
ENDCHAR
STARTCHAR Aring
ENCODING 197
SWIDTH 746 0
DWIDTH 12 0
BBX 12 14 0 0
BITMAP
0E00
0A00
0E00
0600
0E00
0E00
0B00
1B00
1980
3F80
3180
30C0
60C0
FBF0
ENDCHAR
STARTCHAR AE
ENCODING 198
SWIDTH 1019 0
DWIDTH 16 0
BBX 16 11 -1 0
BITMAP
00FF
01FF
03C3
03CF
06CB
0FF8
0CC9
18CF
18CB
30C3
FBFF
ENDCHAR
STARTCHAR Ccedilla
ENCODING 199
SWIDTH 637 0
DWIDTH 10 0
BBX 10 15 0 -4
BITMAP
1E80
3B80
6180
6080
4080
C000
C080
60C0
6080
7180
3F00
0800
0E00
1E00
0C00
ENDCHAR
STARTCHAR Egrave
ENCODING 200
SWIDTH 673 0
DWIDTH 11 0
BBX 10 14 0 0
BITMAP
1000
1C00
0600
FF80
FFC0
3280
3280
36C0
3E00
32C0
32C0
30C0
30C0
FFC0
ENDCHAR
STARTCHAR Eacute
ENCODING 201
SWIDTH 673 0
DWIDTH 11 0
BBX 10 14 0 0
BITMAP
0200
0600
1C00
FF80
FFC0
3280
3280
36C0
3E00
32C0
32C0
30C0
30C0
FFC0
ENDCHAR
STARTCHAR Ecircumflex
ENCODING 202
SWIDTH 673 0
DWIDTH 11 0
BBX 10 14 0 0
BITMAP
0400
1E00
3300
FF80
FFC0
3280
3280
36C0
3E00
32C0
32C0
30C0
30C0
FFC0
ENDCHAR
STARTCHAR Edieresis
ENCODING 203
SWIDTH 673 0
DWIDTH 11 0
BBX 10 14 0 0
BITMAP
1200
1F00
1A00
FF80
FFC0
3280
3280
36C0
3E00
32C0
32C0
30C0
30C0
FFC0
ENDCHAR
STARTCHAR Igrave
ENCODING 204
SWIDTH 382 0
DWIDTH 6 0
BBX 6 14 0 0
BITMAP
40
70
18
FC
FC
30
30
30
30
30
30
30
30
FC
ENDCHAR
STARTCHAR Iacute
ENCODING 205
SWIDTH 382 0
DWIDTH 6 0
BBX 6 14 0 0
BITMAP
08
38
60
FC
FC
30
30
30
30
30
30
30
30
FC
ENDCHAR
STARTCHAR Icircumflex
ENCODING 206
SWIDTH 382 0
DWIDTH 6 0
BBX 6 14 0 0
BITMAP
30
78
CC
FC
FC
30
30
30
30
30
30
30
30
FC
ENDCHAR
STARTCHAR Idieresis
ENCODING 207
SWIDTH 382 0
DWIDTH 6 0
BBX 6 14 0 0
BITMAP
48
FC
48
FC
FC
30
30
30
30
30
30
30
30
FC
ENDCHAR
STARTCHAR Eth
ENCODING 208
SWIDTH 728 0
DWIDTH 12 0
BBX 11 11 0 0
BITMAP
FF00
FF80
30C0
3060
3060
F860
3060
3060
30C0
31C0
FF00
ENDCHAR
STARTCHAR Ntilde
ENCODING 209
SWIDTH 764 0
DWIDTH 12 0
BBX 12 13 0 0
BITMAP
0F80
0900
F9F0
F9F0
3C40
3C40
3640
3640
3340
3340
3140
31C0
FCC0
ENDCHAR
STARTCHAR Ograve
ENCODING 210
SWIDTH 655 0
DWIDTH 10 0
BBX 10 14 0 0
BITMAP
1000
1C00
0600
1E00
3F80
6180
60C0
40C0
C0C0
C0C0
60C0
6180
7380
3F00
ENDCHAR
STARTCHAR Oacute
ENCODING 211
SWIDTH 655 0
DWIDTH 10 0
BBX 10 14 0 0
BITMAP
0200
0E00
1800
1E00
3F80
6180
60C0
40C0
C0C0
C0C0
60C0
6180
7380
3F00
ENDCHAR
STARTCHAR Ocircumflex
ENCODING 212
SWIDTH 655 0
DWIDTH 10 0
BBX 10 14 0 0
BITMAP
0C00
1E00
3300
1E00
3F80
6180
60C0
40C0
C0C0
C0C0
60C0
6180
7380
3F00
ENDCHAR
STARTCHAR Otilde
ENCODING 213
SWIDTH 655 0
DWIDTH 10 0
BBX 10 13 0 0
BITMAP
1F00
2600
1E00
3F80
6180
60C0
40C0
C0C0
C0C0
60C0
6180
7380
3F00
ENDCHAR
STARTCHAR Odieresis
ENCODING 214
SWIDTH 655 0
DWIDTH 10 0
BBX 10 14 0 0
BITMAP
1200
1F00
1A00
1E00
3F80
6180
60C0
40C0
C0C0
C0C0
60C0
6180
7380
3F00
ENDCHAR
STARTCHAR multiply
ENCODING 215
SWIDTH 500 0
DWIDTH 8 0
BBX 6 5 1 3
BITMAP
CC
78
30
78
CC
ENDCHAR
STARTCHAR Oslash
ENCODING 216
SWIDTH 655 0
DWIDTH 10 0
BBX 10 13 0 -1
BITMAP
0080
1F80
3B80
6380
66C0
46C0
CCC0
CCC0
58C0
7180
7380
3F00
6000
ENDCHAR
STARTCHAR Ugrave
ENCODING 217
SWIDTH 710 0
DWIDTH 11 0
BBX 11 14 0 0
BITMAP
0800
0C00
0700
FBE0
FBE0
30C0
30C0
20C0
20C0
20C0
20C0
30C0
3180
1F00
ENDCHAR
STARTCHAR Uacute
ENCODING 218
SWIDTH 710 0
DWIDTH 11 0
BBX 11 14 0 0
BITMAP
0300
0700
0C00
FBE0
FBE0
30C0
30C0
20C0
20C0
20C0
20C0
30C0
3180
1F00
ENDCHAR
STARTCHAR Ucircumflex
ENCODING 219
SWIDTH 710 0
DWIDTH 11 0
BBX 11 14 0 0
BITMAP
0400
0F00
1180
FBE0
FBE0
30C0
30C0
20C0
20C0
20C0
20C0
30C0
3180
1F00
ENDCHAR
STARTCHAR Udieresis
ENCODING 220
SWIDTH 710 0
DWIDTH 11 0
BBX 11 14 0 0
BITMAP
0B00
1F00
0B00
FBE0
FBE0
30C0
30C0
20C0
20C0
20C0
20C0
30C0
3180
1F00
ENDCHAR
STARTCHAR Yacute
ENCODING 221
SWIDTH 728 0
DWIDTH 12 0
BBX 12 14 0 0
BITMAP
0300
0E00
0000
FBF0
FBF0
3180
1980
1B00
0F00
0E00
0600
0600
0600
1F80
ENDCHAR
STARTCHAR Thorn
ENCODING 222
SWIDTH 637 0
DWIDTH 10 0
BBX 10 11 0 0
BITMAP
FC00
FC00
3F00
3F80
30C0
30C0
30C0
3F80
3E00
3000
FC00
ENDCHAR
STARTCHAR germandbls
ENCODING 223
SWIDTH 637 0
DWIDTH 10 0
BBX 10 11 0 0
BITMAP
0E00
1B00
3300
F300
2600
2600
2380
2980
28C0
3D80
EF80
ENDCHAR
STARTCHAR agrave
ENCODING 224
SWIDTH 564 0
DWIDTH 9 0
BBX 9 11 0 0
BITMAP
3000
3800
0000
3C00
6600
6600
3E00
7E00
C680
C680
7F80
ENDCHAR
STARTCHAR aacute
ENCODING 225
SWIDTH 564 0
DWIDTH 9 0
BBX 9 11 0 0
BITMAP
0C00
1800
0000
3C00
6600
6600
3E00
7E00
C680
C680
7F80
ENDCHAR
STARTCHAR acircumflex
ENCODING 226
SWIDTH 564 0
DWIDTH 9 0
BBX 9 11 0 0
BITMAP
1800
3E00
0000
3C00
6600
6600
3E00
7E00
C680
C680
7F80
ENDCHAR
STARTCHAR atilde
ENCODING 227
SWIDTH 564 0
DWIDTH 9 0
BBX 9 11 0 0
BITMAP
3200
3C00
0000
3C00
6600
6600
3E00
7E00
C680
C680
7F80
ENDCHAR
STARTCHAR adieresis
ENCODING 228
SWIDTH 564 0
DWIDTH 9 0
BBX 9 11 0 0
BITMAP
2400
3C00
0000
3C00
6600
6600
3E00
7E00
C680
C680
7F80
ENDCHAR
STARTCHAR aring
ENCODING 229
SWIDTH 564 0
DWIDTH 9 0
BBX 9 11 0 0
BITMAP
3C00
3C00
1800
3C00
6600
6600
3E00
7E00
C680
C680
7F80
ENDCHAR
STARTCHAR ae
ENCODING 230
SWIDTH 837 0
DWIDTH 13 0
BBX 13 8 0 0
BITMAP
3DE0
6730
6618
3FF8
6600
C610
C730
7DE0
ENDCHAR
STARTCHAR ccedilla
ENCODING 231
SWIDTH 510 0
DWIDTH 8 0
BBX 8 11 0 -3
BITMAP
3E
66
46
C6
C0
43
66
3C
18
04
1C
ENDCHAR
STARTCHAR egrave
ENCODING 232
SWIDTH 528 0
DWIDTH 8 0
BBX 8 11 0 0
BITMAP
30
1C
04
3E
66
43
FF
C0
43
66
3E
ENDCHAR
STARTCHAR eacute
ENCODING 233
SWIDTH 528 0
DWIDTH 8 0
BBX 8 11 0 0
BITMAP
0C
18
00
3E
66
43
FF
C0
43
66
3E
ENDCHAR
STARTCHAR ecircumflex
ENCODING 234
SWIDTH 528 0
DWIDTH 8 0
BBX 8 11 0 0
BITMAP
18
3E
00
3E
66
43
FF
C0
43
66
3E
ENDCHAR
STARTCHAR edieresis
ENCODING 235
SWIDTH 528 0
DWIDTH 8 0
BBX 8 11 0 0
BITMAP
34
36
00
3E
66
43
FF
C0
43
66
3E
ENDCHAR
STARTCHAR igrave
ENCODING 236
SWIDTH 310 0
DWIDTH 5 0
BBX 5 11 0 0
BITMAP
C0
70
00
E0
20
20
20
20
20
20
F8
ENDCHAR
STARTCHAR iacute
ENCODING 237
SWIDTH 310 0
DWIDTH 5 0
BBX 5 11 0 0
BITMAP
30
60
00
E0
20
20
20
20
20
20
F8
ENDCHAR
STARTCHAR icircumflex
ENCODING 238
SWIDTH 309 0
DWIDTH 5 0
BBX 5 11 0 0
BITMAP
60
F0
00
E0
20
20
20
20
20
20
F8
ENDCHAR
STARTCHAR idieresis
ENCODING 239
SWIDTH 310 0
DWIDTH 5 0
BBX 5 11 0 0
BITMAP
D0
D8
00
E0
20
20
20
20
20
20
F8
ENDCHAR
STARTCHAR eth
ENCODING 240
SWIDTH 546 0
DWIDTH 9 0
BBX 8 11 0 0
BITMAP
3C
1C
3C
16
3F
67
43
C3
43
63
3E
ENDCHAR
STARTCHAR ntilde
ENCODING 241
SWIDTH 637 0
DWIDTH 10 0
BBX 10 11 0 0
BITMAP
1900
1E00
0000
FF00
3300
3100
2100
2100
2100
2100
FFC0
ENDCHAR
STARTCHAR ograve
ENCODING 242
SWIDTH 546 0
DWIDTH 9 0
BBX 8 11 0 0
BITMAP
30
1C
00
3E
66
43
C3
C3
43
66
3E
ENDCHAR
STARTCHAR oacute
ENCODING 243
SWIDTH 546 0
DWIDTH 9 0
BBX 8 11 0 0
BITMAP
0C
1C
00
3E
66
43
C3
C3
43
66
3E
ENDCHAR
STARTCHAR ocircumflex
ENCODING 244
SWIDTH 546 0
DWIDTH 9 0
BBX 8 11 0 0
BITMAP
18
3E
00
3E
66
43
C3
C3
43
66
3E
ENDCHAR
STARTCHAR otilde
ENCODING 245
SWIDTH 546 0
DWIDTH 9 0
BBX 8 11 0 0
BITMAP
12
3E
00
3E
66
43
C3
C3
43
66
3E
ENDCHAR
STARTCHAR odieresis
ENCODING 246
SWIDTH 546 0
DWIDTH 9 0
BBX 8 11 0 0
BITMAP
34
36
00
3E
66
43
C3
C3
43
66
3E
ENDCHAR
STARTCHAR divide
ENCODING 247
SWIDTH 500 0
DWIDTH 8 0
BBX 8 7 0 2
BITMAP
18
18
00
FF
00
00
18
ENDCHAR
STARTCHAR oslash
ENCODING 248
SWIDTH 546 0
DWIDTH 9 0
BBX 8 10 0 -1
BITMAP
03
3E
66
4F
CB
DB
53
76
7E
40
ENDCHAR
STARTCHAR ugrave
ENCODING 249
SWIDTH 619 0
DWIDTH 10 0
BBX 10 11 0 0
BITMAP
1800
1C00
0000
E700
6300
6100
6100
6100
6300
3300
3FC0
ENDCHAR
STARTCHAR uacute
ENCODING 250
SWIDTH 619 0
DWIDTH 10 0
BBX 10 11 0 0
BITMAP
0600
1C00
0000
E700
6300
6100
6100
6100
6300
3300
3FC0
ENDCHAR
STARTCHAR ucircumflex
ENCODING 251
SWIDTH 619 0
DWIDTH 10 0
BBX 10 11 0 0
BITMAP
0C00
3E00
0000
E700
6300
6100
6100
6100
6300
3300
3FC0
ENDCHAR
STARTCHAR udieresis
ENCODING 252
SWIDTH 619 0
DWIDTH 10 0
BBX 10 11 0 0
BITMAP
1600
3600
0000
E700
6300
6100
6100
6100
6300
3300
3FC0
ENDCHAR
STARTCHAR yacute
ENCODING 253
SWIDTH 601 0
DWIDTH 10 0
BBX 11 14 -1 -3
BITMAP
0300
0E00
0000
7FE0
3180
1980
1900
0B00
0F00
0E00
0600
6400
EC00
7800
ENDCHAR
STARTCHAR thorn
ENCODING 254
SWIDTH 600 0
DWIDTH 10 0
BBX 9 14 0 -3
BITMAP
E000
E000
2000
3F00
3300
3180
2180
2180
2180
3300
3E00
2000
F800
F800
ENDCHAR
STARTCHAR ydieresis
ENCODING 255
SWIDTH 601 0
DWIDTH 10 0
BBX 11 14 -1 -3
BITMAP
0B00
1F00
0000
7FE0
3180
1980
1900
0B00
0F00
0E00
0600
6400
EC00
7800
ENDCHAR
STARTCHAR Amacron
ENCODING 256
SWIDTH 746 0
DWIDTH 12 0
BBX 12 13 0 0
BITMAP
0F00
0F00
0600
0E00
0E00
0B00
1B00
1980
3F80
3180
30C0
60C0
FBF0
ENDCHAR
STARTCHAR amacron
ENCODING 257
SWIDTH 564 0
DWIDTH 9 0
BBX 9 11 0 0
BITMAP
1E00
3E00
0000
3C00
6600
6600
3E00
7E00
C680
C680
7F80
ENDCHAR
STARTCHAR Abreve
ENCODING 258
SWIDTH 746 0
DWIDTH 12 0
BBX 12 14 0 0
BITMAP
1980
0F00
0000
0600
0E00
0E00
0B00
1B00
1980
3F80
3180
30C0
60C0
FBF0
ENDCHAR
STARTCHAR abreve
ENCODING 259
SWIDTH 564 0
DWIDTH 9 0
BBX 9 11 0 0
BITMAP
3300
1E00
0000
3C00
6600
6600
3E00
7E00
C680
C680
7F80
ENDCHAR
STARTCHAR Aogonek
ENCODING 260
SWIDTH 746 0
DWIDTH 12 0
BBX 12 14 0 -3
BITMAP
0600
0E00
0E00
0B00
1B00
1980
3F80
3180
30C0
60C0
FBF0
0060
0040
0070
ENDCHAR
STARTCHAR aogonek
ENCODING 261
SWIDTH 564 0
DWIDTH 9 0
BBX 9 11 0 -3
BITMAP
3C00
6600
6600
3E00
7E00
C680
C680
7F80
0300
0200
0180
ENDCHAR
STARTCHAR Cacute
ENCODING 262
SWIDTH 637 0
DWIDTH 10 0
BBX 10 14 0 0
BITMAP
0600
1C00
0000
1E80
3B80
6180
6080
4080
C000
C080
60C0
6080
7180
3F00
ENDCHAR
STARTCHAR cacute
ENCODING 263
SWIDTH 510 0
DWIDTH 8 0
BBX 8 11 0 0
BITMAP
0C
38
00
3E
66
46
C6
C0
43
66
3C
ENDCHAR
STARTCHAR Ccircumflex
ENCODING 264
SWIDTH 637 0
DWIDTH 10 0
BBX 10 14 0 0
BITMAP
0C00
1F00
0000
1E80
3B80
6180
6080
4080
C000
C080
60C0
6080
7180
3F00
ENDCHAR
STARTCHAR ccircumflex
ENCODING 265
SWIDTH 510 0
DWIDTH 8 0
BBX 8 11 0 0
BITMAP
18
3E
00
3E
66
46
C6
C0
43
66
3C
ENDCHAR
STARTCHAR Cdotaccent
ENCODING 266
SWIDTH 637 0
DWIDTH 10 0
BBX 10 14 0 0
BITMAP
0C00
0C00
0000
1E80
3B80
6180
6080
4080
C000
C080
60C0
6080
7180
3F00
ENDCHAR
STARTCHAR cdotaccent
ENCODING 267
SWIDTH 510 0
DWIDTH 8 0
BBX 8 11 0 0
BITMAP
18
18
00
3E
66
46
C6
C0
43
66
3C
ENDCHAR
STARTCHAR Ccaron
ENCODING 268
SWIDTH 637 0
DWIDTH 10 0
BBX 10 14 0 0
BITMAP
3B00
0E00
0000
1E80
3B80
6180
6080
4080
C000
C080
60C0
6080
7180
3F00
ENDCHAR
STARTCHAR ccaron
ENCODING 269
SWIDTH 510 0
DWIDTH 8 0
BBX 8 11 0 0
BITMAP
76
1C
00
3E
66
46
C6
C0
43
66
3C
ENDCHAR
STARTCHAR Dcaron
ENCODING 270
SWIDTH 728 0
DWIDTH 12 0
BBX 11 14 0 0
BITMAP
1B00
0E00
0000
FF00
FF80
30C0
3060
3060
3060
3060
3060
30C0
31C0
FF00
ENDCHAR
STARTCHAR dcaron
ENCODING 271
SWIDTH 856 0
DWIDTH 14 0
BBX 13 11 0 0
BITMAP
0738
0738
0318
3F10
6710
4300
C300
C300
4300
6700
3F80
ENDCHAR
STARTCHAR Dcroat
ENCODING 272
SWIDTH 728 0
DWIDTH 12 0
BBX 11 11 0 0
BITMAP
FF00
FF80
30C0
3060
3060
F860
3060
3060
30C0
31C0
FF00
ENDCHAR
STARTCHAR dcroat
ENCODING 273
SWIDTH 600 0
DWIDTH 10 0
BBX 9 11 0 0
BITMAP
0700
0700
0F80
3F00
6700
4300
C300
C300
4300
6700
3F80
ENDCHAR
STARTCHAR Emacron
ENCODING 274
SWIDTH 673 0
DWIDTH 11 0
BBX 10 13 0 0
BITMAP
1E00
1F00
FF80
FFC0
3280
3280
36C0
3E00
32C0
32C0
30C0
30C0
FFC0
ENDCHAR
STARTCHAR emacron
ENCODING 275
SWIDTH 528 0
DWIDTH 8 0
BBX 8 11 0 0
BITMAP
3C
3E
00
3E
66
43
FF
C0
43
66
3E
ENDCHAR
STARTCHAR Ebreve
ENCODING 276
SWIDTH 673 0
DWIDTH 11 0
BBX 10 13 0 0
BITMAP
1300
1E00
FF80
FFC0
3280
3280
36C0
3E00
32C0
32C0
30C0
30C0
FFC0
ENDCHAR
STARTCHAR ebreve
ENCODING 277
SWIDTH 528 0
DWIDTH 8 0
BBX 8 11 0 0
BITMAP
26
3C
00
3E
66
43
FF
C0
43
66
3E
ENDCHAR
STARTCHAR Edotaccent
ENCODING 278
SWIDTH 673 0
DWIDTH 11 0
BBX 10 13 0 0
BITMAP
0C00
0C00
FF80
FFC0
3280
3280
36C0
3E00
32C0
32C0
30C0
30C0
FFC0
ENDCHAR
STARTCHAR edotaccent
ENCODING 279
SWIDTH 528 0
DWIDTH 8 0
BBX 8 11 0 0
BITMAP
18
18
00
3E
66
43
FF
C0
43
66
3E
ENDCHAR
STARTCHAR Eogonek
ENCODING 280
SWIDTH 673 0
DWIDTH 11 0
BBX 10 14 0 -3
BITMAP
FF80
FFC0
3280
3280
36C0
3E00
32C0
32C0
30C0
30C0
FFC0
0800
1800
0E00
ENDCHAR
STARTCHAR eogonek
ENCODING 281
SWIDTH 528 0
DWIDTH 8 0
BBX 8 11 0 -3
BITMAP
3E
66
43
FF
C0
43
66
3E
10
10
1C
ENDCHAR
STARTCHAR Ecaron
ENCODING 282
SWIDTH 673 0
DWIDTH 11 0
BBX 10 14 0 0
BITMAP
3B00
0E00
0000
FF80
FFC0
3280
3280
36C0
3E00
32C0
32C0
30C0
30C0
FFC0
ENDCHAR
STARTCHAR ecaron
ENCODING 283
SWIDTH 528 0
DWIDTH 8 0
BBX 8 11 0 0
BITMAP
36
1C
00
3E
66
43
FF
C0
43
66
3E
ENDCHAR
STARTCHAR Gcircumflex
ENCODING 284
SWIDTH 710 0
DWIDTH 11 0
BBX 11 14 0 0
BITMAP
0600
1F80
0000
1E80
3B80
6180
6080
4080
C7E0
C7E0
6080
6180
7180
3F80
ENDCHAR
STARTCHAR gcircumflex
ENCODING 285
SWIDTH 546 0
DWIDTH 9 0
BBX 9 15 0 -3
BITMAP
1C00
3600
0300
0780
3F80
6600
6200
3600
7C00
4000
7E00
C300
C100
7F00
3C00
ENDCHAR
STARTCHAR Gbreve
ENCODING 286
SWIDTH 710 0
DWIDTH 11 0
BBX 11 14 0 0
BITMAP
1980
0F00
0000
1E80
3B80
6180
6080
4080
C7E0
C7E0
6080
6180
7180
3F80
ENDCHAR
STARTCHAR gbreve
ENCODING 287
SWIDTH 546 0
DWIDTH 9 0
BBX 9 15 0 -3
BITMAP
3200
1E00
0300
0780
3F80
6600
6200
3600
7C00
4000
7E00
C300
C100
7F00
3C00
ENDCHAR
STARTCHAR Gdotaccent
ENCODING 288
SWIDTH 710 0
DWIDTH 11 0
BBX 11 14 0 0
BITMAP
0600
0600
0000
1E80
3B80
6180
6080
4080
C7E0
C7E0
6080
6180
7180
3F80
ENDCHAR
STARTCHAR gdotaccent
ENCODING 289
SWIDTH 546 0
DWIDTH 9 0
BBX 9 15 0 -3
BITMAP
0C00
0C00
0300
0780
3F80
6600
6200
3600
7C00
4000
7E00
C300
C100
7F00
3C00
ENDCHAR
STARTCHAR Gcedilla
ENCODING 290
SWIDTH 710 0
DWIDTH 11 0
BBX 11 16 0 -5
BITMAP
1E80
3B80
6180
6080
4080
C7E0
C7E0
6080
6180
7180
3F80
0000
0600
0600
0200
0400
ENDCHAR
STARTCHAR gcedilla
ENCODING 291
SWIDTH 546 0
DWIDTH 9 0
BBX 9 18 0 -3
BITMAP
0C00
0800
1800
1C00
0C00
0300
0780
3F80
6600
6200
3600
7C00
4000
7E00
C300
C100
7F00
3C00
ENDCHAR
STARTCHAR Hcircumflex
ENCODING 292
SWIDTH 783 0
DWIDTH 13 0
BBX 12 14 0 0
BITMAP
0700
0D80
0000
FDF0
FFF0
30C0
30C0
30C0
3FC0
30C0
30C0
30C0
30C0
FFF0
ENDCHAR
STARTCHAR hcircumflex
ENCODING 293
SWIDTH 637 0
DWIDTH 10 0
BBX 10 14 0 0
BITMAP
0E00
1F00
0000
E000
E000
2000
3F00
3300
2100
2100
2100
2100
2180
FFC0
ENDCHAR
STARTCHAR Hbar
ENCODING 294
SWIDTH 783 0
DWIDTH 13 0
BBX 12 11 0 0
BITMAP
FDF0
FFF0
7FF0
FFF0
30C0
3FC0
30C0
30C0
30C0
30C0
FFF0
ENDCHAR
STARTCHAR hbar
ENCODING 295
SWIDTH 637 0
DWIDTH 10 0
BBX 10 11 0 0
BITMAP
E000
E000
F000
7F00
3300
2100
2100
2100
2100
2180
FFC0
ENDCHAR
STARTCHAR Itilde
ENCODING 296
SWIDTH 382 0
DWIDTH 6 0
BBX 6 13 0 0
BITMAP
74
F8
FC
FC
30
30
30
30
30
30
30
30
FC
ENDCHAR
STARTCHAR itilde
ENCODING 297
SWIDTH 310 0
DWIDTH 5 0
BBX 5 11 0 0
BITMAP
68
F8
00
E0
20
20
20
20
20
20
F8
ENDCHAR
STARTCHAR Imacron
ENCODING 298
SWIDTH 382 0
DWIDTH 6 0
BBX 6 13 0 0
BITMAP
78
7C
FC
FC
30
30
30
30
30
30
30
30
FC
ENDCHAR
STARTCHAR imacron
ENCODING 299
SWIDTH 310 0
DWIDTH 5 0
BBX 5 10 0 0
BITMAP
78
F8
E0
20
20
20
20
20
20
F8
ENDCHAR
STARTCHAR Ibreve
ENCODING 300
SWIDTH 382 0
DWIDTH 6 0
BBX 6 13 0 0
BITMAP
CC
78
FC
FC
30
30
30
30
30
30
30
30
FC
ENDCHAR
STARTCHAR ibreve
ENCODING 301
SWIDTH 310 0
DWIDTH 5 0
BBX 5 11 0 0
BITMAP
88
78
00
E0
20
20
20
20
20
20
F8
ENDCHAR
STARTCHAR Iogonek
ENCODING 302
SWIDTH 382 0
DWIDTH 6 0
BBX 6 14 0 -3
BITMAP
FC
FC
30
30
30
30
30
30
30
30
FC
20
60
38
ENDCHAR
STARTCHAR iogonek
ENCODING 303
SWIDTH 310 0
DWIDTH 5 0
BBX 5 13 0 -3
BITMAP
60
20
E0
20
20
20
20
20
20
F8
60
40
30
ENDCHAR
STARTCHAR Idotaccent
ENCODING 304
SWIDTH 382 0
DWIDTH 6 0
BBX 6 13 0 0
BITMAP
30
30
FC
FC
30
30
30
30
30
30
30
30
FC
ENDCHAR
STARTCHAR dotlessi
ENCODING 305
SWIDTH 310 0
DWIDTH 5 0
BBX 5 8 0 0
BITMAP
E0
20
20
20
20
20
20
F8
ENDCHAR
STARTCHAR IJ
ENCODING 306
SWIDTH 1001 0
DWIDTH 16 0
BBX 16 11 0 0
BITMAP
FC1F
FC1F
300C
3004
3004
3004
31C4
33CC
330C
319C
FDF8
ENDCHAR
STARTCHAR ij
ENCODING 307
SWIDTH 601 0
DWIDTH 10 0
BBX 8 13 0 -3
BITMAP
63
21
E7
21
21
21
21
21
21
F9
19
1B
0E
ENDCHAR
STARTCHAR Jcircumflex
ENCODING 308
SWIDTH 619 0
DWIDTH 10 0
BBX 10 14 0 0
BITMAP
0380
06C0
0000
07C0
07C0
0300
0300
0300
0300
7300
F300
C300
E700
7E00
ENDCHAR
STARTCHAR jcircumflex
ENCODING 309
SWIDTH 291 0
DWIDTH 5 0
BBX 6 14 -2 -3
BITMAP
18
7C
00
38
08
08
08
08
08
08
08
C8
D8
70
ENDCHAR
STARTCHAR Kcedilla
ENCODING 310
SWIDTH 783 0
DWIDTH 13 0
BBX 12 16 0 -5
BITMAP
FFF0
FFF0
3180
3300
3600
3F00
3B00
3180
30C0
30E0
FFF0
0000
0700
0300
0200
0200
ENDCHAR
STARTCHAR kcedilla
ENCODING 311
SWIDTH 619 0
DWIDTH 10 0
BBX 10 16 0 -5
BITMAP
E000
E000
2000
2F80
2700
2C00
3C00
3600
2600
2300
FFC0
0000
0C00
0C00
0400
0800
ENDCHAR
STARTCHAR kgreenlandic
ENCODING 312
SWIDTH 619 0
DWIDTH 10 0
BBX 10 8 0 0
BITMAP
EF80
2700
2C00
3C00
3600
2600
2300
FFC0
ENDCHAR
STARTCHAR Lacute
ENCODING 313
SWIDTH 637 0
DWIDTH 10 0
BBX 10 14 0 0
BITMAP
0600
1C00
0000
FC00
FC00
3000
3000
3000
3000
30C0
30C0
30C0
30C0
FFC0
ENDCHAR
STARTCHAR lacute
ENCODING 314
SWIDTH 309 0
DWIDTH 5 0
BBX 5 14 0 0
BITMAP
30
60
00
E0
E0
20
20
20
20
20
20
20
20
F8
ENDCHAR
STARTCHAR Lcedilla
ENCODING 315
SWIDTH 637 0
DWIDTH 10 0
BBX 10 16 0 -5
BITMAP
FC00
FC00
3000
3000
3000
3000
30C0
30C0
30C0
30C0
FFC0
0000
0C00
0C00
0400
0800
ENDCHAR
STARTCHAR lcedilla
ENCODING 316
SWIDTH 309 0
DWIDTH 5 0
BBX 5 16 0 -5
BITMAP
E0
E0
20
20
20
20
20
20
20
20
F8
00
70
30
20
20
ENDCHAR
STARTCHAR Lcaron
ENCODING 317
SWIDTH 637 0
DWIDTH 10 0
BBX 10 11 0 0
BITMAP
FF80
FF80
3180
3100
3100
3000
30C0
30C0
30C0
30C0
FFC0
ENDCHAR
STARTCHAR lcaron
ENCODING 318
SWIDTH 429 0
DWIDTH 7 0
BBX 7 11 0 0
BITMAP
EE
EE
26
24
28
20
20
20
20
20
F8
ENDCHAR
STARTCHAR Ldotaccent
ENCODING 319
SWIDTH 637 0
DWIDTH 10 0
BBX 10 11 0 0
BITMAP
FC00
FC00
3000
3380
3300
3000
30C0
30C0
30C0
30C0
FFC0
ENDCHAR
STARTCHAR ldotaccent
ENCODING 320
SWIDTH 451 0
DWIDTH 7 0
BBX 7 11 0 0
BITMAP
E0
E0
20
20
26
2E
24
20
20
20
F8
ENDCHAR
STARTCHAR Lslash
ENCODING 321
SWIDTH 637 0
DWIDTH 10 0
BBX 10 11 0 0
BITMAP
FC00
FC00
3000
3000
3800
7800
70C0
30C0
30C0
30C0
FFC0
ENDCHAR
STARTCHAR lslash
ENCODING 322
SWIDTH 309 0
DWIDTH 5 0
BBX 5 11 0 0
BITMAP
E0
E0
20
20
38
70
E0
20
20
20
F8
ENDCHAR
STARTCHAR Nacute
ENCODING 323
SWIDTH 764 0
DWIDTH 12 0
BBX 12 14 0 0
BITMAP
0300
0600
0000
F9F0
F9F0
3C40
3C40
3640
3640
3340
3340
3140
31C0
FCC0
ENDCHAR
STARTCHAR nacute
ENCODING 324
SWIDTH 637 0
DWIDTH 10 0
BBX 10 11 0 0
BITMAP
0600
0C00
0000
FF00
3300
3100
2100
2100
2100
2100
FFC0
ENDCHAR
STARTCHAR Ncedilla
ENCODING 325
SWIDTH 764 0
DWIDTH 12 0
BBX 12 16 0 -5
BITMAP
F9F0
F9F0
3C40
3C40
3640
3640
3340
3340
3140
31C0
FCC0
0000
0600
0600
0200
0400
ENDCHAR
STARTCHAR ncedilla
ENCODING 326
SWIDTH 637 0
DWIDTH 10 0
BBX 10 13 0 -5
BITMAP
FF00
3300
3100
2100
2100
2100
2100
FFC0
0000
0C00
0C00
0400
0C00
ENDCHAR
STARTCHAR Ncaron
ENCODING 327
SWIDTH 764 0
DWIDTH 12 0
BBX 12 14 0 0
BITMAP
0D80
0700
0000
F9F0
F9F0
3C40
3C40
3640
3640
3340
3340
3140
31C0
FCC0
ENDCHAR
STARTCHAR ncaron
ENCODING 328
SWIDTH 637 0
DWIDTH 10 0
BBX 10 11 0 0
BITMAP
1B00
0E00
0000
FF00
3300
3100
2100
2100
2100
2100
FFC0
ENDCHAR
STARTCHAR napostrophe
ENCODING 329
SWIDTH 893 0
DWIDTH 14 0
BBX 13 11 1 0
BITMAP
C000
C000
4000
DFE0
8660
0630
0630
0630
0630
0630
1FF8
ENDCHAR
STARTCHAR Eng
ENCODING 330
SWIDTH 764 0
DWIDTH 12 0
BBX 12 14 0 -3
BITMAP
F9F0
F9F0
3C40
3C40
3640
3640
3340
3340
3140
31C0
FCC0
06C0
06C0
0780
ENDCHAR
STARTCHAR eng
ENCODING 331
SWIDTH 637 0
DWIDTH 10 0
BBX 8 11 0 -3
BITMAP
FF
33
31
21
21
21
21
F9
19
1B
0E
ENDCHAR
STARTCHAR Omacron
ENCODING 332
SWIDTH 655 0
DWIDTH 10 0
BBX 10 13 0 0
BITMAP
1E00
1F00
1E00
3F80
6180
60C0
40C0
C0C0
C0C0
60C0
6180
7380
3F00
ENDCHAR
STARTCHAR omacron
ENCODING 333
SWIDTH 546 0
DWIDTH 9 0
BBX 8 11 0 0
BITMAP
3C
3E
00
3E
66
43
C3
C3
43
66
3E
ENDCHAR
STARTCHAR Obreve
ENCODING 334
SWIDTH 655 0
DWIDTH 10 0
BBX 10 14 0 0
BITMAP
1300
1E00
0000
1E00
3F80
6180
60C0
40C0
C0C0
C0C0
60C0
6180
7380
3F00
ENDCHAR
STARTCHAR obreve
ENCODING 335
SWIDTH 546 0
DWIDTH 9 0
BBX 8 11 0 0
BITMAP
22
3C
00
3E
66
43
C3
C3
43
66
3E
ENDCHAR
STARTCHAR Ohungarumlaut
ENCODING 336
SWIDTH 655 0
DWIDTH 10 0
BBX 10 15 0 0
BITMAP
0F00
0A00
1E00
0000
1E00
3F80
6180
60C0
40C0
C0C0
C0C0
60C0
6180
7380
3F00
ENDCHAR
STARTCHAR ohungarumlaut
ENCODING 337
SWIDTH 546 0
DWIDTH 9 0
BBX 8 12 0 0
BITMAP
1E
1E
3C
00
3E
66
43
C3
C3
43
66
3E
ENDCHAR
STARTCHAR OE
ENCODING 338
SWIDTH 1038 0
DWIDTH 17 0
BBX 15 11 0 0
BITMAP
1EFE
3FFE
61DA
60DA
40DA
C0F8
C0DA
60DA
61C2
73C6
3EFE
ENDCHAR
STARTCHAR oe
ENCODING 339
SWIDTH 892 0
DWIDTH 14 0
BBX 12 8 1 0
BITMAP
7DE0
CF30
C610
87F0
8600
8610
CF30
7DE0
ENDCHAR
STARTCHAR Racute
ENCODING 340
SWIDTH 728 0
DWIDTH 12 0
BBX 12 14 0 0
BITMAP
0300
0E00
0000
FF00
FF80
30C0
30C0
3180
3F00
31A0
31B0
31B0
31B0
FCE0
ENDCHAR
STARTCHAR racute
ENCODING 341
SWIDTH 491 0
DWIDTH 8 0
BBX 8 11 0 0
BITMAP
0C
38
00
FE
33
37
26
20
20
30
F8
ENDCHAR
STARTCHAR Rcedilla
ENCODING 342
SWIDTH 728 0
DWIDTH 12 0
BBX 12 16 0 -5
BITMAP
FF00
FF80
30C0
30C0
3180
3F00
31A0
31B0
31B0
31B0
FCE0
0000
0600
0600
0200
0400
ENDCHAR
STARTCHAR rcedilla
ENCODING 343
SWIDTH 491 0
DWIDTH 8 0
BBX 8 13 0 -5
BITMAP
FE
33
37
26
20
20
30
F8
00
18
18
08
10
ENDCHAR
STARTCHAR Rcaron
ENCODING 344
SWIDTH 728 0
DWIDTH 12 0
BBX 12 14 0 0
BITMAP
1D80
0700
0000
FF00
FF80
30C0
30C0
3180
3F00
31A0
31B0
31B0
31B0
FCE0
ENDCHAR
STARTCHAR rcaron
ENCODING 345
SWIDTH 491 0
DWIDTH 8 0
BBX 8 11 0 0
BITMAP
76
1C
00
FE
33
37
26
20
20
30
F8
ENDCHAR
STARTCHAR Sacute
ENCODING 346
SWIDTH 619 0
DWIDTH 10 0
BBX 8 14 1 0
BITMAP
0C
38
00
3E
6E
C2
C3
E2
7E
87
83
C3
C7
FE
ENDCHAR
STARTCHAR sacute
ENCODING 347
SWIDTH 492 0
DWIDTH 8 0
BBX 6 11 1 0
BITMAP
18
70
00
7C
CC
CC
F8
BC
84
CC
F8
ENDCHAR
STARTCHAR Scircumflex
ENCODING 348
SWIDTH 619 0
DWIDTH 10 0
BBX 8 14 1 0
BITMAP
18
7E
00
3E
6E
C2
C3
E2
7E
87
83
C3
C7
FE
ENDCHAR
STARTCHAR scircumflex
ENCODING 349
SWIDTH 492 0
DWIDTH 8 0
BBX 6 11 1 0
BITMAP
30
FC
00
7C
CC
CC
F8
BC
84
CC
F8
ENDCHAR
STARTCHAR Scedilla
ENCODING 350
SWIDTH 619 0
DWIDTH 10 0
BBX 8 14 1 -3
BITMAP
3E
6E
C2
C3
E2
7E
87
83
C3
C7
FE
18
2C
3C
ENDCHAR
STARTCHAR scedilla
ENCODING 351
SWIDTH 492 0
DWIDTH 8 0
BBX 6 11 1 -3
BITMAP
7C
CC
CC
F8
BC
84
CC
F8
30
48
78
ENDCHAR
STARTCHAR Scaron
ENCODING 352
SWIDTH 619 0
DWIDTH 10 0
BBX 8 14 1 0
BITMAP
76
1C
00
3E
6E
C2
C3
E2
7E
87
83
C3
C7
FE
ENDCHAR
STARTCHAR scaron
ENCODING 353
SWIDTH 492 0
DWIDTH 8 0
BBX 6 11 1 0
BITMAP
EC
38
00
7C
CC
CC
F8
BC
84
CC
F8
ENDCHAR
STARTCHAR Tcedilla
ENCODING 354
SWIDTH 637 0
DWIDTH 10 0
BBX 10 14 0 -3
BITMAP
FFC0
FFC0
CCC0
CCC0
CCC0
0C00
0C00
0C00
0C00
0C00
3F00
0C00
0200
1E00
ENDCHAR
STARTCHAR tcedilla
ENCODING 355
SWIDTH 400 0
DWIDTH 6 0
BBX 6 13 0 -3
BITMAP
60
60
F8
F8
60
60
64
64
6C
3C
18
2C
3C
ENDCHAR
STARTCHAR Tcaron
ENCODING 356
SWIDTH 637 0
DWIDTH 10 0
BBX 10 14 0 0
BITMAP
3B00
0E00
0000
FFC0
FFC0
CCC0
CCC0
CCC0
0C00
0C00
0C00
0C00
0C00
3F00
ENDCHAR
STARTCHAR tcaron
ENCODING 357
SWIDTH 656 0
DWIDTH 11 0
BBX 10 11 0 0
BITMAP
01C0
61C0
60C0
F880
F900
6000
6000
6400
6400
6C00
3C00
ENDCHAR
STARTCHAR Tbar
ENCODING 358
SWIDTH 637 0
DWIDTH 10 0
BBX 10 11 0 0
BITMAP
FFC0
FFC0
CCC0
CCC0
CCC0
1E00
1E00
0C00
0C00
0C00
3F00
ENDCHAR
STARTCHAR tbar
ENCODING 359
SWIDTH 400 0
DWIDTH 6 0
BBX 6 10 0 0
BITMAP
60
60
F8
F8
F8
F8
64
64
6C
3C
ENDCHAR
STARTCHAR Utilde
ENCODING 360
SWIDTH 710 0
DWIDTH 11 0
BBX 11 13 0 0
BITMAP
0D00
1F00
FBE0
FBE0
30C0
30C0
20C0
20C0
20C0
20C0
30C0
3180
1F00
ENDCHAR
STARTCHAR utilde
ENCODING 361
SWIDTH 619 0
DWIDTH 10 0
BBX 10 11 0 0
BITMAP
1D00
3E00
0000
E700
6300
6100
6100
6100
6300
3300
3FC0
ENDCHAR
STARTCHAR Umacron
ENCODING 362
SWIDTH 710 0
DWIDTH 11 0
BBX 11 13 0 0
BITMAP
0F00
1F00
FBE0
FBE0
30C0
30C0
20C0
20C0
20C0
20C0
30C0
3180
1F00
ENDCHAR
STARTCHAR umacron
ENCODING 363
SWIDTH 619 0
DWIDTH 10 0
BBX 10 10 0 0
BITMAP
1E00
1E00
E700
6300
6100
6100
6100
6300
3300
3FC0
ENDCHAR
STARTCHAR Ubreve
ENCODING 364
SWIDTH 710 0
DWIDTH 11 0
BBX 11 14 0 0
BITMAP
1900
0F00
0000
FBE0
FBE0
30C0
30C0
20C0
20C0
20C0
20C0
30C0
3180
1F00
ENDCHAR
STARTCHAR ubreve
ENCODING 365
SWIDTH 619 0
DWIDTH 10 0
BBX 10 11 0 0
BITMAP
3300
1E00
0000
E700
6300
6100
6100
6100
6300
3300
3FC0
ENDCHAR
STARTCHAR Uring
ENCODING 366
SWIDTH 710 0
DWIDTH 11 0
BBX 11 15 0 0
BITMAP
0600
0E00
0E00
0400
FBE0
FBE0
30C0
30C0
20C0
20C0
20C0
20C0
30C0
3180
1F00
ENDCHAR
STARTCHAR uring
ENCODING 367
SWIDTH 619 0
DWIDTH 10 0
BBX 10 12 0 0
BITMAP
0C00
1E00
1E00
0000
E700
6300
6100
6100
6100
6300
3300
3FC0
ENDCHAR
STARTCHAR Uhungarumlaut
ENCODING 368
SWIDTH 710 0
DWIDTH 11 0
BBX 11 15 0 0
BITMAP
0500
0F00
0E00
0000
FBE0
FBE0
30C0
30C0
20C0
20C0
20C0
20C0
30C0
3180
1F00
ENDCHAR
STARTCHAR uhungarumlaut
ENCODING 369
SWIDTH 619 0
DWIDTH 10 0
BBX 10 12 0 0
BITMAP
0A00
1E00
1400
0000
E700
6300
6100
6100
6100
6300
3300
3FC0
ENDCHAR
STARTCHAR Uogonek
ENCODING 370
SWIDTH 710 0
DWIDTH 11 0
BBX 11 14 0 -3
BITMAP
FBE0
FBE0
30C0
30C0
20C0
20C0
20C0
20C0
30C0
3180
1F00
0C00
0C00
0600
ENDCHAR
STARTCHAR uogonek
ENCODING 371
SWIDTH 619 0
DWIDTH 10 0
BBX 10 11 0 -3
BITMAP
E700
6300
6100
6100
6100
6300
3300
3FC0
1800
1800
0E00
ENDCHAR
STARTCHAR Wcircumflex
ENCODING 372
SWIDTH 928 0
DWIDTH 15 0
BBX 15 14 0 0
BITMAP
0380
06C0
0000
FF7E
FBFE
3398
3398
3690
36B0
16F0
1CF0
1CF0
1C60
0C60
ENDCHAR
STARTCHAR wcircumflex
ENCODING 373
SWIDTH 801 0
DWIDTH 13 0
BBX 13 11 0 0
BITMAP
0700
0D80
0000
FEF8
6760
2760
2F60
3D40
3D40
19C0
19C0
ENDCHAR
STARTCHAR Ycircumflex
ENCODING 374
SWIDTH 728 0
DWIDTH 12 0
BBX 12 14 0 0
BITMAP
0600
1F80
0000
FBF0
FBF0
3180
1980
1B00
0F00
0E00
0600
0600
0600
1F80
ENDCHAR
STARTCHAR ycircumflex
ENCODING 375
SWIDTH 601 0
DWIDTH 10 0
BBX 11 14 -1 -3
BITMAP
0600
1F00
0000
7FE0
3180
1980
1900
0B00
0F00
0E00
0600
6400
EC00
7800
ENDCHAR
STARTCHAR Ydieresis
ENCODING 376
SWIDTH 728 0
DWIDTH 12 0
BBX 12 14 0 0
BITMAP
0900
1F00
0B00
FBF0
FBF0
3180
1980
1B00
0F00
0E00
0600
0600
0600
1F80
ENDCHAR
STARTCHAR Zacute
ENCODING 377
SWIDTH 619 0
DWIDTH 10 0
BBX 8 14 1 0
BITMAP
0C
38
00
FF
FF
87
8E
8C
18
31
61
C1
C3
FF
ENDCHAR
STARTCHAR zacute
ENCODING 378
SWIDTH 528 0
DWIDTH 8 0
BBX 7 11 1 0
BITMAP
18
30
00
FE
8C
9C
38
76
E6
C6
FE
ENDCHAR
STARTCHAR Zdotaccent
ENCODING 379
SWIDTH 619 0
DWIDTH 10 0
BBX 8 13 1 0
BITMAP
18
18
FF
FF
87
8E
8C
18
31
61
C1
C3
FF
ENDCHAR
STARTCHAR zdotaccent
ENCODING 380
SWIDTH 528 0
DWIDTH 8 0
BBX 7 11 1 0
BITMAP
30
30
00
FE
8C
9C
38
76
E6
C6
FE
ENDCHAR
STARTCHAR Zcaron
ENCODING 381
SWIDTH 619 0
DWIDTH 10 0
BBX 8 14 1 0
BITMAP
76
1C
00
FF
FF
87
8E
8C
18
31
61
C1
C3
FF
ENDCHAR
STARTCHAR zcaron
ENCODING 382
SWIDTH 528 0
DWIDTH 8 0
BBX 7 11 1 0
BITMAP
6C
38
00
FE
8C
9C
38
76
E6
C6
FE
ENDCHAR
STARTCHAR slong
ENCODING 383
SWIDTH 346 0
DWIDTH 6 0
BBX 7 11 0 0
BITMAP
1C
36
26
E0
60
20
20
20
20
20
F8
ENDCHAR
STARTCHAR Oopen
ENCODING 390
SWIDTH 637 0
DWIDTH 10 0
BBX 10 11 0 0
BITMAP
3E00
7700
6180
C180
4080
00C0
40C0
4180
6180
6300
7E00
ENDCHAR
STARTCHAR Dafrican
ENCODING 393
SWIDTH 728 0
DWIDTH 12 0
BBX 11 11 0 0
BITMAP
FF00
FF80
30C0
3060
3060
F860
3060
3060
30C0
31C0
FF00
ENDCHAR
STARTCHAR Ereversed
ENCODING 398
SWIDTH 673 0
DWIDTH 11 0
BBX 10 11 0 0
BITMAP
FFC0
FFC0
C300
D300
D300
1F00
DF00
D300
D300
E300
FFC0
ENDCHAR
STARTCHAR uni018F.Schwa
ENCODING 399
SWIDTH 655 0
DWIDTH 10 0
BBX 10 11 0 0
BITMAP
1E00
3380
6180
40C0
00C0
7FC0
FFC0
40C0
6180
7380
3F00
ENDCHAR
STARTCHAR florin
ENCODING 402
SWIDTH 637 0
DWIDTH 10 0
BBX 10 14 0 -3
BITMAP
0380
06C0
04C0
1F00
0C00
0C00
0C00
0C00
0800
0800
1800
9800
F000
4000
ENDCHAR
STARTCHAR uni01A0.OHorn
ENCODING 416
SWIDTH 759 0
DWIDTH 12 0
BBX 12 11 0 0
BITMAP
1E30
3FB0
61E0
60C0
40C0
C0C0
C0C0
60C0
6180
7380
3F00
ENDCHAR
STARTCHAR uni01A1.oHorn
ENCODING 417
SWIDTH 659 0
DWIDTH 11 0
BBX 10 9 0 0
BITMAP
00C0
3EC0
6780
4300
C300
C300
4300
6600
3E00
ENDCHAR
STARTCHAR uni01A2.OI
ENCODING 418
SWIDTH 808 0
DWIDTH 13 0
BBX 13 14 0 -3
BITMAP
1E00
3FE0
62E0
6260
4260
C260
4260
6260
6260
7260
3E60
0060
01F8
01F8
ENDCHAR
STARTCHAR uni01A3.oi
ENCODING 419
SWIDTH 683 0
DWIDTH 11 0
BBX 11 11 0 -3
BITMAP
3F80
6F80
4D80
CD80
CD80
4D80
6D80
3D80
0180
03E0
03E0
ENDCHAR
STARTCHAR Tonetwo
ENCODING 423
SWIDTH 619 0
DWIDTH 10 0
BBX 8 11 1 0
BITMAP
FC
EE
C3
C3
C6
7E
E3
C3
C3
C7
7F
ENDCHAR
STARTCHAR tonetwo
ENCODING 424
SWIDTH 492 0
DWIDTH 8 0
BBX 6 8 1 0
BITMAP
F8
CC
8C
7C
F4
84
CC
FC
ENDCHAR
STARTCHAR uni01AF.UHorn
ENCODING 431
SWIDTH 863 0
DWIDTH 14 0
BBX 14 11 0 0
BITMAP
FBFC
FBFC
30F8
30C0
30C0
30C0
20C0
20C0
3080
3180
1F00
ENDCHAR
STARTCHAR uni01B0.uHorn
ENCODING 432
SWIDTH 721 0
DWIDTH 12 0
BBX 11 9 0 0
BITMAP
0060
E760
61C0
6100
6100
6100
6300
3300
3FC0
ENDCHAR
STARTCHAR Upsilonafrican
ENCODING 433
SWIDTH 667 0
DWIDTH 11 0
BBX 10 11 0 0
BITMAP
FBC0
F3C0
6180
40C0
C0C0
C0C0
C0C0
C0C0
60C0
3B80
1E00
ENDCHAR
STARTCHAR uni01B5.ZStroke
ENCODING 437
SWIDTH 619 0
DWIDTH 10 0
BBX 8 11 1 0
BITMAP
FF
FF
87
8E
8C
7E
31
61
C1
C3
FF
ENDCHAR
STARTCHAR uni01B6.zStroke
ENCODING 438
SWIDTH 528 0
DWIDTH 8 0
BBX 7 8 1 0
BITMAP
FE
8C
9C
7C
7E
E6
C6
FE
ENDCHAR
STARTCHAR uni01C0.clickDental
ENCODING 448
SWIDTH 152 0
DWIDTH 2 0
BBX 2 12 0 -1
BITMAP
C0
C0
C0
C0
C0
C0
C0
C0
C0
C0
C0
C0
ENDCHAR
STARTCHAR uni01C1.clickLateral
ENCODING 449
SWIDTH 452 0
DWIDTH 7 0
BBX 7 12 0 -1
BITMAP
C6
C6
C6
C6
C6
C6
C6
C6
C6
C6
C6
C6
ENDCHAR
STARTCHAR clickretroflex
ENCODING 451
SWIDTH 419 0
DWIDTH 7 0
BBX 2 11 2 0
BITMAP
C0
C0
C0
C0
C0
C0
C0
C0
40
C0
C0
ENDCHAR
STARTCHAR DZcaron
ENCODING 452
SWIDTH 1347 0
DWIDTH 22 0
BBX 21 14 0 0
BITMAP
000360
0001C0
000000
FF07F8
FF8FF8
30CC30
306C60
306CE0
3061C0
306180
306318
30C618
31CC18
FF0FF8
ENDCHAR
STARTCHAR Dzcaron
ENCODING 453
SWIDTH 1256 0
DWIDTH 20 0
BBX 19 11 0 0
BITMAP
FF06C0
FF8380
30C000
306FE0
306C60
306CC0
306180
306320
30C620
31CC20
FF0FE0
ENDCHAR
STARTCHAR dzcaron
ENCODING 454
SWIDTH 1128 0
DWIDTH 18 0
BBX 17 11 0 0
BITMAP
071B00
070E00
030000
3F3F80
673180
433300
C30600
C30C80
431880
673080
3FBF80
ENDCHAR
STARTCHAR LJ
ENCODING 455
SWIDTH 1256 0
DWIDTH 20 0
BBX 20 11 0 0
BITMAP
FC01F0
FC01F0
300040
300040
300040
300040
30DC40
30FC40
30F0C0
30D8C0
FFDF80
ENDCHAR
STARTCHAR Lj
ENCODING 456
SWIDTH 928 0
DWIDTH 15 0
BBX 14 14 0 -3
BITMAP
FC00
FC1C
3008
303C
300C
300C
30CC
30CC
30CC
30CC
FFCC
0048
00D8
0070
ENDCHAR
STARTCHAR lj
ENCODING 457
SWIDTH 600 0
DWIDTH 10 0
BBX 8 14 0 -3
BITMAP
E0
E3
21
27
21
21
21
21
21
21
F9
19
1B
0E
ENDCHAR
STARTCHAR NJ
ENCODING 458
SWIDTH 1383 0
DWIDTH 22 0
BBX 22 11 0 0
BITMAP
F9F07C
F9F07C
3C4010
3C4010
364010
364010
334710
334F10
314C30
31C630
FCC3E0
ENDCHAR
STARTCHAR Nj
ENCODING 459
SWIDTH 1055 0
DWIDTH 17 0
BBX 16 14 0 -3
BITMAP
F9F0
F9F7
3C42
3C4F
3643
3643
3343
3343
3143
31C3
FCC3
0013
0036
001C
ENDCHAR
STARTCHAR nj
ENCODING 460
SWIDTH 928 0
DWIDTH 15 0
BBX 14 13 0 -3
BITMAP
001C
0008
FF3C
330C
310C
210C
210C
210C
210C
FFCC
0048
00D8
0070
ENDCHAR
STARTCHAR Acaron
ENCODING 461
SWIDTH 746 0
DWIDTH 12 0
BBX 12 14 0 0
BITMAP
1B80
0E00
0000
0600
0E00
0E00
0B00
1B00
1980
3F80
3180
30C0
60C0
FBF0
ENDCHAR
STARTCHAR acaron
ENCODING 462
SWIDTH 564 0
DWIDTH 9 0
BBX 9 11 0 0
BITMAP
3600
1C00
0000
3C00
6600
6600
3E00
7E00
C680
C680
7F80
ENDCHAR
STARTCHAR Icaron
ENCODING 463
SWIDTH 382 0
DWIDTH 6 0
BBX 6 14 0 0
BITMAP
EC
30
00
FC
FC
30
30
30
30
30
30
30
30
FC
ENDCHAR
STARTCHAR icaron
ENCODING 464
SWIDTH 310 0
DWIDTH 5 0
BBX 5 11 0 0
BITMAP
D8
70
00
E0
20
20
20
20
20
20
F8
ENDCHAR
STARTCHAR Ocaron
ENCODING 465
SWIDTH 655 0
DWIDTH 10 0
BBX 10 14 0 0
BITMAP
3B00
0E00
0000
1E00
3F80
6180
60C0
40C0
C0C0
C0C0
60C0
6180
7380
3F00
ENDCHAR
STARTCHAR ocaron
ENCODING 466
SWIDTH 546 0
DWIDTH 9 0
BBX 8 11 0 0
BITMAP
36
1C
00
3E
66
43
C3
C3
43
66
3E
ENDCHAR
STARTCHAR Ucaron
ENCODING 467
SWIDTH 710 0
DWIDTH 11 0
BBX 11 14 0 0
BITMAP
1B00
0E00
0000
FBE0
FBE0
30C0
30C0
20C0
20C0
20C0
20C0
30C0
3180
1F00
ENDCHAR
STARTCHAR ucaron
ENCODING 468
SWIDTH 619 0
DWIDTH 10 0
BBX 10 11 0 0
BITMAP
3700
1C00
0000
E700
6300
6100
6100
6100
6300
3300
3FC0
ENDCHAR
STARTCHAR Udieresismacron
ENCODING 469
SWIDTH 710 0
DWIDTH 11 0
BBX 11 16 0 0
BITMAP
0F00
1F00
0000
1B00
1B00
FBE0
FBE0
30C0
30C0
20C0
20C0
20C0
20C0
30C0
3180
1F00
ENDCHAR
STARTCHAR udieresismacron
ENCODING 470
SWIDTH 619 0
DWIDTH 10 0
BBX 10 13 0 0
BITMAP
1E00
3E00
1600
3E00
0000
E700
6300
6100
6100
6100
6300
3300
3FC0
ENDCHAR
STARTCHAR Udieresisacute
ENCODING 471
SWIDTH 710 0
DWIDTH 11 0
BBX 11 16 0 0
BITMAP
0700
0E00
0000
1B00
1B00
FBE0
FBE0
30C0
30C0
20C0
20C0
20C0
20C0
30C0
3180
1F00
ENDCHAR
STARTCHAR udieresisacute
ENCODING 472
SWIDTH 619 0
DWIDTH 10 0
BBX 10 13 0 0
BITMAP
0600
1C00
1600
3E00
0000
E700
6300
6100
6100
6100
6300
3300
3FC0
ENDCHAR
STARTCHAR Udieresiscaron
ENCODING 473
SWIDTH 710 0
DWIDTH 11 0
BBX 11 16 0 0
BITMAP
1B00
0E00
0000
1B00
1B00
FBE0
FBE0
30C0
30C0
20C0
20C0
20C0
20C0
30C0
3180
1F00
ENDCHAR
STARTCHAR udieresiscaron
ENCODING 474
SWIDTH 619 0
DWIDTH 10 0
BBX 10 13 0 0
BITMAP
3700
1C00
1600
3E00
0000
E700
6300
6100
6100
6100
6300
3300
3FC0
ENDCHAR
STARTCHAR Udieresisgrave
ENCODING 475
SWIDTH 710 0
DWIDTH 11 0
BBX 11 16 0 0
BITMAP
0C00
0600
0000
1B00
1B00
FBE0
FBE0
30C0
30C0
20C0
20C0
20C0
20C0
30C0
3180
1F00
ENDCHAR
STARTCHAR udieresisgrave
ENCODING 476
SWIDTH 619 0
DWIDTH 10 0
BBX 10 13 0 0
BITMAP
1800
0E00
1600
3E00
0000
E700
6300
6100
6100
6100
6300
3300
3FC0
ENDCHAR
STARTCHAR eturned
ENCODING 477
SWIDTH 528 0
DWIDTH 8 0
BBX 8 8 0 0
BITMAP
3C
66
43
03
FF
43
66
3C
ENDCHAR
STARTCHAR Adieresismacron
ENCODING 478
SWIDTH 746 0
DWIDTH 12 0
BBX 12 16 0 0
BITMAP
0F00
1F00
0000
0B00
1F00
0600
0E00
0E00
0B00
1B00
1980
3F80
3180
30C0
60C0
FBF0
ENDCHAR
STARTCHAR adieresismacron
ENCODING 479
SWIDTH 564 0
DWIDTH 9 0
BBX 9 13 0 0
BITMAP
1E00
3E00
3600
3600
0000
3C00
6600
6600
3E00
7E00
C680
C680
7F80
ENDCHAR
STARTCHAR Adotmacron
ENCODING 480
SWIDTH 746 0
DWIDTH 12 0
BBX 12 16 0 0
BITMAP
0F00
1F00
0000
0600
0600
0600
0E00
0E00
0B00
1B00
1980
3F80
3180
30C0
60C0
FBF0
ENDCHAR
STARTCHAR adotmacron
ENCODING 481
SWIDTH 564 0
DWIDTH 9 0
BBX 9 13 0 0
BITMAP
1E00
3E00
0C00
0C00
0000
3C00
6600
6600
3E00
7E00
C680
C680
7F80
ENDCHAR
STARTCHAR AEmacron
ENCODING 482
SWIDTH 1019 0
DWIDTH 16 0
BBX 16 13 -1 0
BITMAP
0078
007C
00FF
01FF
03C3
03CF
06CB
0FF8
0CC9
18CF
18CB
30C3
FBFF
ENDCHAR
STARTCHAR aemacron
ENCODING 483
SWIDTH 837 0
DWIDTH 13 0
BBX 13 11 0 0
BITMAP
0780
0F80
0000
3DE0
6730
6618
3FF8
6600
C610
C730
7DE0
ENDCHAR
STARTCHAR Gcaron
ENCODING 486
SWIDTH 710 0
DWIDTH 11 0
BBX 11 14 0 0
BITMAP
1B80
0E00
0000
1E80
3B80
6180
6080
4080
C7E0
C7E0
6080
6180
7180
3F80
ENDCHAR
STARTCHAR gcaron
ENCODING 487
SWIDTH 546 0
DWIDTH 9 0
BBX 9 15 0 -3
BITMAP
3600
1C00
0300
0780
3F80
6600
6200
3600
7C00
4000
7E00
C300
C100
7F00
3C00
ENDCHAR
STARTCHAR Kcaron
ENCODING 488
SWIDTH 783 0
DWIDTH 13 0
BBX 12 14 0 0
BITMAP
0D80
0700
0000
FFF0
FFF0
3180
3300
3600
3F00
3B00
3180
30C0
30E0
FFF0
ENDCHAR
STARTCHAR kcaron
ENCODING 489
SWIDTH 619 0
DWIDTH 10 0
BBX 10 14 0 0
BITMAP
3700
0C00
0000
E000
E000
2000
2F80
2700
2C00
3C00
3600
2600
2300
FFC0
ENDCHAR
STARTCHAR Oogonek
ENCODING 490
SWIDTH 655 0
DWIDTH 10 0
BBX 10 14 0 -3
BITMAP
1E00
3F80
6180
60C0
40C0
C0C0
C0C0
60C0
6180
7380
3F00
0800
1800
0E00
ENDCHAR
STARTCHAR oogonek
ENCODING 491
SWIDTH 546 0
DWIDTH 9 0
BBX 8 11 0 -3
BITMAP
3E
66
43
C3
C3
43
66
3E
10
10
1C
ENDCHAR
STARTCHAR Oogonekmacron
ENCODING 492
SWIDTH 655 0
DWIDTH 10 0
BBX 10 16 0 -3
BITMAP
1E00
1F00
1E00
3F80
6180
60C0
40C0
C0C0
C0C0
60C0
6180
7380
3F00
0800
1800
0E00
ENDCHAR
STARTCHAR oogonekmacron
ENCODING 493
SWIDTH 546 0
DWIDTH 9 0
BBX 8 14 0 -3
BITMAP
3C
3E
00
3E
66
43
C3
C3
43
66
3E
10
10
1C
ENDCHAR
STARTCHAR jcaron
ENCODING 496
SWIDTH 291 0
DWIDTH 5 0
BBX 7 14 -2 -3
BITMAP
6E
38
00
38
08
08
08
08
08
08
08
C8
D8
70
ENDCHAR
STARTCHAR DZ
ENCODING 497
SWIDTH 1347 0
DWIDTH 22 0
BBX 21 11 0 0
BITMAP
FF07F8
FF8FF8
30CC30
306C60
306CE0
3061C0
306180
306318
30C618
31CC18
FF0FF8
ENDCHAR
STARTCHAR Dz
ENCODING 498
SWIDTH 1256 0
DWIDTH 20 0
BBX 19 11 0 0
BITMAP
FF0000
FF8000
30C000
306FE0
306C60
306CC0
306180
306320
30C620
31CC20
FF0FE0
ENDCHAR
STARTCHAR dz
ENCODING 499
SWIDTH 1128 0
DWIDTH 18 0
BBX 17 11 0 0
BITMAP
070000
070000
030000
3F3F80
673180
433300
C30600
C30C80
431880
673080
3FBF80
ENDCHAR
STARTCHAR Gacute
ENCODING 500
SWIDTH 710 0
DWIDTH 11 0
BBX 11 14 0 0
BITMAP
0300
0E00
0000
1E80
3B80
6180
6080
4080
C7E0
C7E0
6080
6180
7180
3F80
ENDCHAR
STARTCHAR gacute
ENCODING 501
SWIDTH 546 0
DWIDTH 9 0
BBX 9 16 0 -3
BITMAP
0C00
1C00
0000
0300
0780
3F80
6600
6200
3600
7C00
4000
7E00
C300
C100
7F00
3C00
ENDCHAR
STARTCHAR Ngrave
ENCODING 504
SWIDTH 764 0
DWIDTH 12 0
BBX 12 14 0 0
BITMAP
0C00
0700
0000
F9F0
F9F0
3C40
3C40
3640
3640
3340
3340
3140
31C0
FCC0
ENDCHAR
STARTCHAR ngrave
ENCODING 505
SWIDTH 637 0
DWIDTH 10 0
BBX 10 11 0 0
BITMAP
1800
0E00
0000
FF00
3300
3100
2100
2100
2100
2100
FFC0
ENDCHAR
STARTCHAR Aringacute
ENCODING 506
SWIDTH 746 0
DWIDTH 12 0
BBX 12 17 0 0
BITMAP
0300
0E00
0600
0F00
0E00
0000
0600
0E00
0E00
0B00
1B00
1980
3F80
3180
30C0
60C0
FBF0
ENDCHAR
STARTCHAR aringacute
ENCODING 507
SWIDTH 564 0
DWIDTH 9 0
BBX 9 15 0 0
BITMAP
0E00
1C00
0000
0C00
1C00
1C00
0800
3C00
6600
6600
3E00
7E00
C680
C680
7F80
ENDCHAR
STARTCHAR AEacute
ENCODING 508
SWIDTH 1019 0
DWIDTH 16 0
BBX 16 14 -1 0
BITMAP
0018
0030
0000
00FF
01FF
03C3
03CF
06CB
0FF8
0CC9
18CF
18CB
30C3
FBFF
ENDCHAR
STARTCHAR aeacute
ENCODING 509
SWIDTH 837 0
DWIDTH 13 0
BBX 13 11 0 0
BITMAP
0300
0700
0000
3DE0
6730
6618
3FF8
6600
C610
C730
7DE0
ENDCHAR
STARTCHAR Oslashacute
ENCODING 510
SWIDTH 655 0
DWIDTH 10 0
BBX 10 16 0 -1
BITMAP
0600
1C00
0000
0080
1F80
3B80
6380
66C0
46C0
CCC0
CCC0
58C0
7180
7380
3F00
6000
ENDCHAR
STARTCHAR oslashacute
ENCODING 511
SWIDTH 546 0
DWIDTH 9 0
BBX 8 13 0 -1
BITMAP
0C
18
00
03
3E
66
4F
CB
DB
53
76
7E
40
ENDCHAR
STARTCHAR Adblgrave
ENCODING 512
SWIDTH 746 0
DWIDTH 12 0
BBX 12 15 0 0
BITMAP
0A00
0F00
0500
0000
0600
0E00
0E00
0B00
1B00
1980
3F80
3180
30C0
60C0
FBF0
ENDCHAR
STARTCHAR adblgrave
ENCODING 513
SWIDTH 564 0
DWIDTH 9 0
BBX 9 12 0 0
BITMAP
1400
1E00
0A00
0000
3C00
6600
6600
3E00
7E00
C680
C680
7F80
ENDCHAR
STARTCHAR Ainvertedbreve
ENCODING 514
SWIDTH 746 0
DWIDTH 12 0
BBX 12 14 0 0
BITMAP
0F00
1980
0000
0600
0E00
0E00
0B00
1B00
1980
3F80
3180
30C0
60C0
FBF0
ENDCHAR
STARTCHAR ainvertedbreve
ENCODING 515
SWIDTH 564 0
DWIDTH 9 0
BBX 9 11 0 0
BITMAP
1E00
3200
0000
3C00
6600
6600
3E00
7E00
C680
C680
7F80
ENDCHAR
STARTCHAR Edblgrave
ENCODING 516
SWIDTH 673 0
DWIDTH 11 0
BBX 10 15 0 0
BITMAP
1400
1E00
0A00
0000
FF80
FFC0
3280
3280
36C0
3E00
32C0
32C0
30C0
30C0
FFC0
ENDCHAR
STARTCHAR edblgrave
ENCODING 517
SWIDTH 528 0
DWIDTH 8 0
BBX 8 12 0 0
BITMAP
28
3C
1E
00
3E
66
43
FF
C0
43
66
3E
ENDCHAR
STARTCHAR Einvertedbreve
ENCODING 518
SWIDTH 673 0
DWIDTH 11 0
BBX 10 13 0 0
BITMAP
1E00
1300
FF80
FFC0
3280
3280
36C0
3E00
32C0
32C0
30C0
30C0
FFC0
ENDCHAR
STARTCHAR einvertedbreve
ENCODING 519
SWIDTH 528 0
DWIDTH 8 0
BBX 8 11 0 0
BITMAP
3C
26
00
3E
66
43
FF
C0
43
66
3E
ENDCHAR
STARTCHAR Idblgrave
ENCODING 520
SWIDTH 382 0
DWIDTH 6 0
BBX 6 15 0 0
BITMAP
50
78
28
00
FC
FC
30
30
30
30
30
30
30
30
FC
ENDCHAR
STARTCHAR idblgrave
ENCODING 521
SWIDTH 310 0
DWIDTH 5 0
BBX 5 12 0 0
BITMAP
F0
50
78
00
E0
20
20
20
20
20
20
F8
ENDCHAR
STARTCHAR Iinvertedbreve
ENCODING 522
SWIDTH 382 0
DWIDTH 6 0
BBX 6 13 0 0
BITMAP
78
4C
FC
FC
30
30
30
30
30
30
30
30
FC
ENDCHAR
STARTCHAR iinvertedbreve
ENCODING 523
SWIDTH 310 0
DWIDTH 5 0
BBX 5 11 0 0
BITMAP
78
C8
00
E0
20
20
20
20
20
20
F8
ENDCHAR
STARTCHAR Odblgrave
ENCODING 524
SWIDTH 655 0
DWIDTH 10 0
BBX 10 15 0 0
BITMAP
1400
1E00
0F00
0000
1E00
3F80
6180
60C0
40C0
C0C0
C0C0
60C0
6180
7380
3F00
ENDCHAR
STARTCHAR odblgrave
ENCODING 525
SWIDTH 546 0
DWIDTH 9 0
BBX 8 12 0 0
BITMAP
28
3C
1E
00
3E
66
43
C3
C3
43
66
3E
ENDCHAR
STARTCHAR Oinvertedbreve
ENCODING 526
SWIDTH 655 0
DWIDTH 10 0
BBX 10 14 0 0
BITMAP
1E00
1300
0000
1E00
3F80
6180
60C0
40C0
C0C0
C0C0
60C0
6180
7380
3F00
ENDCHAR
STARTCHAR oinvertedbreve
ENCODING 527
SWIDTH 546 0
DWIDTH 9 0
BBX 8 11 0 0
BITMAP
1C
26
00
3E
66
43
C3
C3
43
66
3E
ENDCHAR
STARTCHAR Rdblgrave
ENCODING 528
SWIDTH 728 0
DWIDTH 12 0
BBX 12 15 0 0
BITMAP
0A00
0F00
0500
0000
FF00
FF80
30C0
30C0
3180
3F00
31A0
31B0
31B0
31B0
FCE0
ENDCHAR
STARTCHAR rdblgrave
ENCODING 529
SWIDTH 491 0
DWIDTH 8 0
BBX 8 12 0 0
BITMAP
28
3C
14
00
FE
33
37
26
20
20
30
F8
ENDCHAR
STARTCHAR Rinvertedbreve
ENCODING 530
SWIDTH 728 0
DWIDTH 12 0
BBX 12 13 0 0
BITMAP
0F00
1980
FF00
FF80
30C0
30C0
3180
3F00
31A0
31B0
31B0
31B0
FCE0
ENDCHAR
STARTCHAR rinvertedbreve
ENCODING 531
SWIDTH 491 0
DWIDTH 8 0
BBX 8 11 0 0
BITMAP
3C
26
00
FE
33
37
26
20
20
30
F8
ENDCHAR
STARTCHAR Udblgrave
ENCODING 532
SWIDTH 710 0
DWIDTH 11 0
BBX 11 15 0 0
BITMAP
1E00
0A00
0500
0000
FBE0
FBE0
30C0
30C0
20C0
20C0
20C0
20C0
30C0
3180
1F00
ENDCHAR
STARTCHAR udblgrave
ENCODING 533
SWIDTH 619 0
DWIDTH 10 0
BBX 10 12 0 0
BITMAP
1400
1E00
0A00
0000
E700
6300
6100
6100
6100
6300
3300
3FC0
ENDCHAR
STARTCHAR Uinvertedbreve
ENCODING 534
SWIDTH 710 0
DWIDTH 11 0
BBX 11 14 0 0
BITMAP
0F00
1900
0000
FBE0
FBE0
30C0
30C0
20C0
20C0
20C0
20C0
30C0
3180
1F00
ENDCHAR
STARTCHAR uinvertedbreve
ENCODING 535
SWIDTH 619 0
DWIDTH 10 0
BBX 10 11 0 0
BITMAP
1E00
3300
0000
E700
6300
6100
6100
6100
6300
3300
3FC0
ENDCHAR
STARTCHAR Scommaaccent
ENCODING 536
SWIDTH 619 0
DWIDTH 10 0
BBX 8 16 1 -5
BITMAP
3E
6E
C2
C3
E2
7E
87
83
C3
C7
FE
00
18
18
08
10
ENDCHAR
STARTCHAR scommaaccent
ENCODING 537
SWIDTH 492 0
DWIDTH 8 0
BBX 6 13 1 -5
BITMAP
7C
CC
CC
F8
BC
84
CC
F8
00
30
30
10
20
ENDCHAR
STARTCHAR Tcommaaccent
ENCODING 538
SWIDTH 637 0
DWIDTH 10 0
BBX 10 16 0 -5
BITMAP
FFC0
FFC0
CCC0
CCC0
CCC0
0C00
0C00
0C00
0C00
0C00
3F00
0000
0C00
0C00
0400
0800
ENDCHAR
STARTCHAR tcommaaccent
ENCODING 539
SWIDTH 400 0
DWIDTH 6 0
BBX 6 15 0 -5
BITMAP
60
60
F8
F8
60
60
64
64
6C
3C
00
30
30
10
20
ENDCHAR
STARTCHAR Hcaron
ENCODING 542
SWIDTH 783 0
DWIDTH 13 0
BBX 12 14 0 0
BITMAP
1D80
0700
0000
FDF0
FFF0
30C0
30C0
30C0
3FC0
30C0
30C0
30C0
30C0
FFF0
ENDCHAR
STARTCHAR hcaron
ENCODING 543
SWIDTH 637 0
DWIDTH 10 0
BBX 10 14 0 0
BITMAP
3B00
0E00
0000
E000
E000
2000
3F00
3300
2100
2100
2100
2100
2180
FFC0
ENDCHAR
STARTCHAR Adotaccent
ENCODING 550
SWIDTH 746 0
DWIDTH 12 0
BBX 12 13 0 0
BITMAP
0600
0600
0600
0E00
0E00
0B00
1B00
1980
3F80
3180
30C0
60C0
FBF0
ENDCHAR
STARTCHAR adotaccent
ENCODING 551
SWIDTH 564 0
DWIDTH 9 0
BBX 9 11 0 0
BITMAP
0C00
0C00
0000
3C00
6600
6600
3E00
7E00
C680
C680
7F80
ENDCHAR
STARTCHAR Ecedilla
ENCODING 552
SWIDTH 673 0
DWIDTH 11 0
BBX 10 14 0 -3
BITMAP
FF80
FFC0
3280
3280
36C0
3E00
32C0
32C0
30C0
30C0
FFC0
0C00
1600
1E00
ENDCHAR
STARTCHAR ecedilla
ENCODING 553
SWIDTH 528 0
DWIDTH 8 0
BBX 8 11 0 -3
BITMAP
3E
66
43
FF
C0
43
66
3E
18
04
3C
ENDCHAR
STARTCHAR Odieresismacron
ENCODING 554
SWIDTH 655 0
DWIDTH 10 0
BBX 10 16 0 0
BITMAP
1E00
1F00
1A00
1F00
0000
1E00
3F80
6180
60C0
40C0
C0C0
C0C0
60C0
6180
7380
3F00
ENDCHAR
STARTCHAR odieresismacron
ENCODING 555
SWIDTH 546 0
DWIDTH 9 0
BBX 8 13 0 0
BITMAP
3C
3E
36
36
00
3E
66
43
C3
C3
43
66
3E
ENDCHAR
STARTCHAR Otildemacron
ENCODING 556
SWIDTH 655 0
DWIDTH 10 0
BBX 10 16 0 0
BITMAP
1E00
1F00
1D00
1E00
0000
1E00
3F80
6180
60C0
40C0
C0C0
C0C0
60C0
6180
7380
3F00
ENDCHAR
STARTCHAR otildemacron
ENCODING 557
SWIDTH 546 0
DWIDTH 9 0
BBX 8 13 0 0
BITMAP
3C
3E
3A
3E
00
3E
66
43
C3
C3
43
66
3E
ENDCHAR
STARTCHAR Odotaccent
ENCODING 558
SWIDTH 655 0
DWIDTH 10 0
BBX 10 14 0 0
BITMAP
0C00
0C00
0000
1E00
3F80
6180
60C0
40C0
C0C0
C0C0
60C0
6180
7380
3F00
ENDCHAR
STARTCHAR odotaccent
ENCODING 559
SWIDTH 546 0
DWIDTH 9 0
BBX 8 11 0 0
BITMAP
18
18
00
3E
66
43
C3
C3
43
66
3E
ENDCHAR
STARTCHAR Odotaccentmacron
ENCODING 560
SWIDTH 655 0
DWIDTH 10 0
BBX 10 16 0 0
BITMAP
1E00
1F00
0C00
0C00
0000
1E00
3F80
6180
60C0
40C0
C0C0
C0C0
60C0
6180
7380
3F00
ENDCHAR
STARTCHAR odotaccentmacron
ENCODING 561
SWIDTH 546 0
DWIDTH 9 0
BBX 8 13 0 0
BITMAP
3C
3E
18
18
00
3E
66
43
C3
C3
43
66
3E
ENDCHAR
STARTCHAR Ymacron
ENCODING 562
SWIDTH 728 0
DWIDTH 12 0
BBX 12 13 0 0
BITMAP
0F00
1F00
FBF0
FBF0
3180
1980
1B00
0F00
0E00
0600
0600
0600
1F80
ENDCHAR
STARTCHAR ymacron
ENCODING 563
SWIDTH 601 0
DWIDTH 10 0
BBX 11 13 -1 -3
BITMAP
0F00
1F00
7FE0
3180
1980
1900
0B00
0F00
0E00
0600
6400
EC00
7800
ENDCHAR
STARTCHAR dotlessj
ENCODING 567
SWIDTH 291 0
DWIDTH 5 0
BBX 5 11 -2 -3
BITMAP
38
08
08
08
08
08
08
08
C8
D8
70
ENDCHAR
STARTCHAR aturned
ENCODING 592
SWIDTH 564 0
DWIDTH 9 0
BBX 9 8 0 0
BITMAP
7F00
F980
F180
3F80
3E00
3300
1100
1F00
ENDCHAR
STARTCHAR oopen
ENCODING 596
SWIDTH 510 0
DWIDTH 8 0
BBX 8 8 0 0
BITMAP
3C
66
C2
03
63
62
66
7C
ENDCHAR
STARTCHAR ereversed
ENCODING 600
SWIDTH 528 0
DWIDTH 8 0
BBX 8 8 0 0
BITMAP
3C
66
43
FF
03
43
66
3C
ENDCHAR
STARTCHAR schwa
ENCODING 601
SWIDTH 528 0
DWIDTH 8 0
BBX 8 8 0 0
BITMAP
3C
66
43
03
FF
43
66
3C
ENDCHAR
STARTCHAR mturned
ENCODING 623
SWIDTH 928 0
DWIDTH 15 0
BBX 14 8 0 0
BITMAP
FFFC
2318
2318
2318
2318
2318
33BC
1EFC
ENDCHAR
STARTCHAR rturned
ENCODING 633
SWIDTH 491 0
DWIDTH 8 0
BBX 8 8 0 0
BITMAP
1F
0C
0C
0C
EC
CC
CE
77
ENDCHAR
STARTCHAR tturned
ENCODING 647
SWIDTH 400 0
DWIDTH 6 0
BBX 6 10 0 0
BITMAP
F0
D8
D8
98
18
18
7C
7C
18
18
ENDCHAR
STARTCHAR vturned
ENCODING 652
SWIDTH 601 0
DWIDTH 10 0
BBX 10 8 0 0
BITMAP
0C00
1C00
1C00
3600
3600
2300
6300
FFC0
ENDCHAR
STARTCHAR wturned
ENCODING 653
SWIDTH 801 0
DWIDTH 13 0
BBX 13 8 0 0
BITMAP
1880
19C0
3DC0
3D40
2F60
2760
6760
FEF8
ENDCHAR
STARTCHAR commaturnedmod
ENCODING 699
SWIDTH 255 0
DWIDTH 4 0
BBX 2 5 1 6
BITMAP
40
80
C0
C0
C0
ENDCHAR
STARTCHAR afii57929
ENCODING 700
SWIDTH 256 0
DWIDTH 4 0
BBX 2 5 1 6
BITMAP
C0
C0
40
C0
80
ENDCHAR
STARTCHAR commareversedmod
ENCODING 701
SWIDTH 256 0
DWIDTH 4 0
BBX 2 5 1 6
BITMAP
C0
C0
80
C0
40
ENDCHAR
STARTCHAR circumflex
ENCODING 710
SWIDTH 492 0
DWIDTH 8 0
BBX 6 2 1 9
BITMAP
30
FC
ENDCHAR
STARTCHAR caron
ENCODING 711
SWIDTH 492 0
DWIDTH 8 0
BBX 6 2 1 9
BITMAP
DC
70
ENDCHAR
STARTCHAR firsttonechinese
ENCODING 713
SWIDTH 491 0
DWIDTH 8 0
BBX 5 2 1 9
BITMAP
78
F8
ENDCHAR
STARTCHAR secondtonechinese
ENCODING 714
SWIDTH 492 0
DWIDTH 8 0
BBX 3 2 3 9
BITMAP
60
C0
ENDCHAR
STARTCHAR fourthtonechinese
ENCODING 715
SWIDTH 492 0
DWIDTH 8 0
BBX 4 2 2 9
BITMAP
C0
70
ENDCHAR
STARTCHAR macronlowmod
ENCODING 717
SWIDTH 491 0
DWIDTH 8 0
BBX 5 2 1 -2
BITMAP
F8
78
ENDCHAR
STARTCHAR gravelowmod
ENCODING 718
SWIDTH 492 0
DWIDTH 8 0
BBX 4 2 2 -2
BITMAP
C0
70
ENDCHAR
STARTCHAR acutelowmod
ENCODING 719
SWIDTH 492 0
DWIDTH 8 0
BBX 3 2 3 -2
BITMAP
60
C0
ENDCHAR
STARTCHAR breve
ENCODING 728
SWIDTH 491 0
DWIDTH 8 0
BBX 5 2 1 9
BITMAP
C8
78
ENDCHAR
STARTCHAR dotaccent
ENCODING 729
SWIDTH 492 0
DWIDTH 8 0
BBX 2 2 3 9
BITMAP
C0
C0
ENDCHAR
STARTCHAR ring
ENCODING 730
SWIDTH 492 0
DWIDTH 8 0
BBX 3 4 2 8
BITMAP
40
A0
E0
40
ENDCHAR
STARTCHAR ogonek
ENCODING 731
SWIDTH 492 0
DWIDTH 8 0
BBX 3 3 3 -3
BITMAP
C0
80
60
ENDCHAR
STARTCHAR tilde
ENCODING 732
SWIDTH 491 0
DWIDTH 8 0
BBX 5 2 1 9
BITMAP
68
F8
ENDCHAR
STARTCHAR hungarumlaut
ENCODING 733
SWIDTH 491 0
DWIDTH 8 0
BBX 5 3 2 9
BITMAP
28
78
F0
ENDCHAR
STARTCHAR uni02EE
ENCODING 750
SWIDTH 437 0
DWIDTH 7 0
BBX 5 5 1 6
BITMAP
F8
F8
48
D8
90
ENDCHAR
STARTCHAR gravecmb
ENCODING 768
SWIDTH 0 0
DWIDTH 0 0
BBX 3 2 -6 9
BITMAP
C0
60
ENDCHAR
STARTCHAR acutecmb
ENCODING 769
SWIDTH 0 0
DWIDTH 0 0
BBX 3 2 -6 9
BITMAP
60
E0
ENDCHAR
STARTCHAR circumflexcmb
ENCODING 770
SWIDTH 0 0
DWIDTH 0 0
BBX 5 2 -7 9
BITMAP
70
D8
ENDCHAR
STARTCHAR tildecmb
ENCODING 771
SWIDTH 0 0
DWIDTH 0 0
BBX 5 2 -7 9
BITMAP
68
F8
ENDCHAR
STARTCHAR macroncmb
ENCODING 772
SWIDTH 0 0
DWIDTH 0 0
BBX 5 2 -7 9
BITMAP
78
F8
ENDCHAR
STARTCHAR brevecmb
ENCODING 774
SWIDTH 0 0
DWIDTH 0 0
BBX 5 2 -7 9
BITMAP
88
78
ENDCHAR
STARTCHAR dotaccentcmb
ENCODING 775
SWIDTH 0 0
DWIDTH 0 0
BBX 3 2 -6 9
BITMAP
40
E0
ENDCHAR
STARTCHAR dieresiscmb
ENCODING 776
SWIDTH 0 0
DWIDTH 0 0
BBX 5 2 -7 9
BITMAP
D8
D8
ENDCHAR
STARTCHAR uni0309.hookAboveComb
ENCODING 777
SWIDTH 0 0
DWIDTH 0 0
BBX 4 4 -6 8
BITMAP
40
F0
70
40
ENDCHAR
STARTCHAR ringcmb
ENCODING 778
SWIDTH 0 0
DWIDTH 0 0
BBX 3 4 -6 8
BITMAP
40
A0
E0
40
ENDCHAR
STARTCHAR hungarumlautcmb
ENCODING 779
SWIDTH 0 0
DWIDTH 0 0
BBX 5 3 -7 9
BITMAP
28
78
F0
ENDCHAR
STARTCHAR caroncmb
ENCODING 780
SWIDTH 0 0
DWIDTH 0 0
BBX 5 2 -7 9
BITMAP
D8
70
ENDCHAR
STARTCHAR dblgravecmb
ENCODING 783
SWIDTH 0 0
DWIDTH 0 0
BBX 5 3 -7 9
BITMAP
F0
F0
78
ENDCHAR
STARTCHAR breveinvertedcmb
ENCODING 785
SWIDTH 0 0
DWIDTH 0 0
BBX 5 2 -7 9
BITMAP
78
C8
ENDCHAR
STARTCHAR commaturnedabovecmb
ENCODING 786
SWIDTH 0 0
DWIDTH 0 0
BBX 3 5 -6 6
BITMAP
60
C0
C0
E0
40
ENDCHAR
STARTCHAR commaabovecmb
ENCODING 787
SWIDTH 0 0
DWIDTH 0 0
BBX 3 5 -6 6
BITMAP
E0
E0
60
40
40
ENDCHAR
STARTCHAR commareversedabovecmb
ENCODING 788
SWIDTH 0 0
DWIDTH 0 0
BBX 3 5 -6 6
BITMAP
E0
E0
C0
40
40
ENDCHAR
STARTCHAR gravebelowcmb
ENCODING 790
SWIDTH 0 0
DWIDTH 0 0
BBX 3 2 -6 -2
BITMAP
C0
60
ENDCHAR
STARTCHAR acutebelowcmb
ENCODING 791
SWIDTH 0 0
DWIDTH 0 0
BBX 3 2 -6 -2
BITMAP
60
C0
ENDCHAR
STARTCHAR uni031B.hornComb
ENCODING 795
SWIDTH 0 0
DWIDTH 0 0
BBX 5 3 -2 8
BITMAP
38
38
F0
ENDCHAR
STARTCHAR dotbelowcmb
ENCODING 803
SWIDTH 0 0
DWIDTH 0 0
BBX 2 2 -5 -2
BITMAP
C0
C0
ENDCHAR
STARTCHAR dieresisbelowcmb
ENCODING 804
SWIDTH 0 0
DWIDTH 0 0
BBX 5 2 -7 -2
BITMAP
D8
D8
ENDCHAR
STARTCHAR ringbelowcmb
ENCODING 805
SWIDTH 0 0
DWIDTH 0 0
BBX 3 3 -6 -2
BITMAP
E0
A0
E0
ENDCHAR
STARTCHAR commaaccent
ENCODING 806
SWIDTH 0 0
DWIDTH 0 0
BBX 3 4 -6 -4
BITMAP
E0
60
40
40
ENDCHAR
STARTCHAR cedillacmb
ENCODING 807
SWIDTH 0 0
DWIDTH 0 0
BBX 3 3 -6 -3
BITMAP
E0
A0
E0
ENDCHAR
STARTCHAR ogonekcmb
ENCODING 808
SWIDTH 0 0
DWIDTH 0 0
BBX 3 3 -6 -3
BITMAP
C0
80
E0
ENDCHAR
STARTCHAR caronbelowcmb
ENCODING 812
SWIDTH 0 0
DWIDTH 0 0
BBX 5 2 -7 -2
BITMAP
F8
70
ENDCHAR
STARTCHAR circumflexbelowcmb
ENCODING 813
SWIDTH 0 0
DWIDTH 0 0
BBX 5 2 -7 -2
BITMAP
70
D8
ENDCHAR
STARTCHAR brevebelowcmb
ENCODING 814
SWIDTH 0 0
DWIDTH 0 0
BBX 5 2 -7 -2
BITMAP
D8
70
ENDCHAR
STARTCHAR breveinvertedbelowcmb
ENCODING 815
SWIDTH 0 0
DWIDTH 0 0
BBX 5 2 -7 -2
BITMAP
F8
88
ENDCHAR
STARTCHAR tildebelowcmb
ENCODING 816
SWIDTH 0 0
DWIDTH 0 0
BBX 5 2 -7 -2
BITMAP
F8
B0
ENDCHAR
STARTCHAR macronbelowcmb
ENCODING 817
SWIDTH 0 0
DWIDTH 0 0
BBX 5 2 -7 -2
BITMAP
F8
F8
ENDCHAR
STARTCHAR soliduslongoverlaycmb
ENCODING 824
SWIDTH 0 0
DWIDTH 0 0
BBX 7 14 -8 -3
BITMAP
06
06
04
0C
08
18
18
10
30
20
60
60
40
C0
ENDCHAR
STARTCHAR gravetonecmb
ENCODING 832
SWIDTH 0 0
DWIDTH 0 0
BBX 3 2 -6 9
BITMAP
C0
60
ENDCHAR
STARTCHAR acutetonecmb
ENCODING 833
SWIDTH 0 0
DWIDTH 0 0
BBX 3 2 -6 9
BITMAP
60
E0
ENDCHAR
STARTCHAR koroniscmb
ENCODING 835
SWIDTH 0 0
DWIDTH 0 0
BBX 3 5 -6 6
BITMAP
E0
E0
60
40
40
ENDCHAR
STARTCHAR dialytikatonoscmb
ENCODING 836
SWIDTH 0 0
DWIDTH 0 0
BBX 5 5 -7 9
BITMAP
30
70
00
D8
D8
ENDCHAR
STARTCHAR combininggraphemejoiner
ENCODING 847
SWIDTH 0 0
DWIDTH 0 0
BBX 1 1 0 0
BITMAP
00
ENDCHAR
STARTCHAR questiongreek
ENCODING 894
SWIDTH 273 0
DWIDTH 4 0
BBX 2 10 1 -3
BITMAP
C0
C0
00
00
00
C0
C0
40
40
80
ENDCHAR
STARTCHAR uni0384.tonos
ENCODING 900
SWIDTH 492 0
DWIDTH 8 0
BBX 2 3 3 9
BITMAP
40
C0
80
ENDCHAR
STARTCHAR dialytikatonos
ENCODING 901
SWIDTH 491 0
DWIDTH 8 0
BBX 5 5 1 9
BITMAP
18
70
00
58
F8
ENDCHAR
STARTCHAR uni0386.AlphaTonos
ENCODING 902
SWIDTH 807 0
DWIDTH 13 0
BBX 12 12 1 0
BITMAP
2000
6600
4E00
0E00
0B00
1B00
1900
3F80
3180
30C0
60C0
FBF0
ENDCHAR
STARTCHAR anoteleia
ENCODING 903
SWIDTH 137 0
DWIDTH 2 0
BBX 2 3 0 4
BITMAP
C0
C0
40
ENDCHAR
STARTCHAR uni0388.EpsilonTonos
ENCODING 904
SWIDTH 904 0
DWIDTH 14 0
BBX 12 12 1 0
BITMAP
4000
DFF0
9FF0
06B0
06D0
06D0
07C0
06D0
06D0
0610
0630
1FF0
ENDCHAR
STARTCHAR uni0389.EtaTonos
ENCODING 905
SWIDTH 1014 0
DWIDTH 16 0
BBX 15 12 1 0
BITMAP
4000
DF7C
9F7E
0618
0618
0618
07F8
0618
0618
0618
0618
1FFE
ENDCHAR
STARTCHAR uni038A.IotaTonos
ENCODING 906
SWIDTH 613 0
DWIDTH 10 0
BBX 8 12 1 0
BITMAP
40
DF
9F
04
04
04
04
04
04
04
06
1F
ENDCHAR
STARTCHAR uni038C.OmicronTonos
ENCODING 908
SWIDTH 749 0
DWIDTH 12 0
BBX 10 12 1 0
BITMAP
4000
DF00
BF80
30C0
60C0
60C0
60C0
60C0
60C0
60C0
3180
1F00
ENDCHAR
STARTCHAR uni038E.UpsilonTonos
ENCODING 910
SWIDTH 977 0
DWIDTH 16 0
BBX 15 12 1 0
BITMAP
4000
DF7E
9F7E
0630
0330
0360
01E0
01C0
00C0
00C0
00C0
03F0
ENDCHAR
STARTCHAR uni038F.OmegaTonos
ENCODING 911
SWIDTH 796 0
DWIDTH 13 0
BBX 11 12 1 0
BITMAP
4000
DF80
BFC0
30C0
6060
6060
6060
30C0
79E0
6F60
6F60
7FE0
ENDCHAR
STARTCHAR uni0390.iotaDiaeresisTonos
ENCODING 912
SWIDTH 328 0
DWIDTH 5 0
BBX 5 14 0 0
BITMAP
10
30
60
D8
D8
00
E0
20
20
20
20
28
28
38
ENDCHAR
STARTCHAR uni0391.Alpha
ENCODING 913
SWIDTH 746 0
DWIDTH 12 0
BBX 12 11 0 0
BITMAP
0600
0E00
0E00
0B00
1B00
1980
3F80
3180
30C0
60C0
FBF0
ENDCHAR
STARTCHAR uni0392.Beta
ENCODING 914
SWIDTH 692 0
DWIDTH 11 0
BBX 10 11 0 0
BITMAP
FF00
FF80
30C0
30C0
3380
3F80
30C0
30C0
30C0
31C0
FF80
ENDCHAR
STARTCHAR uni0393.Gamma
ENCODING 915
SWIDTH 619 0
DWIDTH 10 0
BBX 9 11 0 0
BITMAP
FF80
FF80
3080
3080
3080
3000
3000
3000
3000
3000
FC00
ENDCHAR
STARTCHAR Deltagreek
ENCODING 916
SWIDTH 639 0
DWIDTH 10 0
BBX 10 11 0 0
BITMAP
0C00
0C00
1E00
1E00
3300
3300
2100
6180
6180
FFC0
FFC0
ENDCHAR
STARTCHAR uni0395.Epsilon
ENCODING 917
SWIDTH 673 0
DWIDTH 11 0
BBX 10 11 0 0
BITMAP
FF80
FFC0
3280
3280
36C0
3E00
32C0
32C0
30C0
30C0
FFC0
ENDCHAR
STARTCHAR uni0396.Zeta
ENCODING 918
SWIDTH 619 0
DWIDTH 10 0
BBX 8 11 1 0
BITMAP
FF
FF
87
8E
8C
18
31
61
C1
C3
FF
ENDCHAR
STARTCHAR uni0397.Eta
ENCODING 919
SWIDTH 783 0
DWIDTH 13 0
BBX 12 11 0 0
BITMAP
FDF0
FFF0
30C0
30C0
30C0
3FC0
30C0
30C0
30C0
30C0
FFF0
ENDCHAR
STARTCHAR uni0398.Theta
ENCODING 920
SWIDTH 655 0
DWIDTH 10 0
BBX 10 11 0 0
BITMAP
1E00
3F80
6180
72C0
52C0
DEC0
D2C0
72C0
6180
7380
3F00
ENDCHAR
STARTCHAR uni0399.Iota
ENCODING 921
SWIDTH 382 0
DWIDTH 6 0
BBX 6 11 0 0
BITMAP
FC
FC
30
30
30
30
30
30
30
30
FC
ENDCHAR
STARTCHAR uni039A.Kappa
ENCODING 922
SWIDTH 783 0
DWIDTH 13 0
BBX 12 11 0 0
BITMAP
FFF0
FFF0
3180
3300
3600
3F00
3B00
3180
30C0
30E0
FFF0
ENDCHAR
STARTCHAR uni039B.Lambda
ENCODING 923
SWIDTH 746 0
DWIDTH 12 0
BBX 12 11 0 0
BITMAP
0600
0E00
0E00
0B00
1B00
1980
3180
3180
30C0
60C0
FBF0
ENDCHAR
STARTCHAR uni039C.Mu
ENCODING 924
SWIDTH 947 0
DWIDTH 15 0
BBX 15 11 0 0
BITMAP
F83C
F83E
3C78
3C78
3C58
34D8
36D8
3698
3398
3398
FF7E
ENDCHAR
STARTCHAR uni039D.Nu
ENCODING 925
SWIDTH 764 0
DWIDTH 12 0
BBX 12 11 0 0
BITMAP
F9F0
F9F0
3C40
3C40
3640
3640
3340
3340
3140
31C0
FCC0
ENDCHAR
STARTCHAR uni039E.Xi
ENCODING 926
SWIDTH 750 0
DWIDTH 12 0
BBX 10 11 1 0
BITMAP
FFC0
FFC0
F2C0
F3C0
F2C0
3E00
B2C0
B3C0
80C0
C0C0
FFC0
ENDCHAR
STARTCHAR uni039F.Omicron
ENCODING 927
SWIDTH 655 0
DWIDTH 10 0
BBX 10 11 0 0
BITMAP
1E00
3F80
6180
60C0
40C0
C0C0
C0C0
60C0
6180
7380
3F00
ENDCHAR
STARTCHAR uni03A0.Pi
ENCODING 928
SWIDTH 783 0
DWIDTH 13 0
BBX 12 11 0 0
BITMAP
FFF0
FFF0
30C0
30C0
30C0
30C0
30C0
30C0
30C0
30C0
FFF0
ENDCHAR
STARTCHAR uni03A1.Rho
ENCODING 929
SWIDTH 637 0
DWIDTH 10 0
BBX 10 11 0 0
BITMAP
FF00
FF80
30C0
30C0
30C0
3F80
3E00
3000
3000
3000
FC00
ENDCHAR
STARTCHAR uni03A3.Sigma
ENCODING 931
SWIDTH 609 0
DWIDTH 10 0
BBX 9 11 0 0
BITMAP
7F00
7F80
6100
3180
1980
1800
1980
3180
6180
4180
FF80
ENDCHAR
STARTCHAR uni03A4.Tau
ENCODING 932
SWIDTH 637 0
DWIDTH 10 0
BBX 10 11 0 0
BITMAP
FFC0
FFC0
CCC0
CCC0
CCC0
0C00
0C00
0C00
0C00
0C00
3F00
ENDCHAR
STARTCHAR uni03A5.Upsilon
ENCODING 933
SWIDTH 728 0
DWIDTH 12 0
BBX 12 11 0 0
BITMAP
FBF0
FBF0
3180
1980
1B00
0F00
0E00
0600
0600
0600
1F80
ENDCHAR
STARTCHAR uni03A6.Phi
ENCODING 934
SWIDTH 685 0
DWIDTH 11 0
BBX 10 11 0 0
BITMAP
1F00
1F00
1F00
7FC0
6CC0
CCC0
4CC0
7DC0
3F00
0C00
3F00
ENDCHAR
STARTCHAR uni03A7.Chi
ENCODING 935
SWIDTH 783 0
DWIDTH 13 0
BBX 12 11 0 0
BITMAP
FDF0
FDF0
19C0
1D80
0F00
0600
0F00
1D80
18C0
30E0
FDF0
ENDCHAR
STARTCHAR uni03A8.Psi
ENCODING 936
SWIDTH 757 0
DWIDTH 12 0
BBX 12 11 0 0
BITMAP
EF70
FFF0
36C0
36C0
36C0
36C0
36C0
1F80
0600
0600
1F80
ENDCHAR
STARTCHAR Omegagreek
ENCODING 937
SWIDTH 694 0
DWIDTH 11 0
BBX 10 11 0 0
BITMAP
1F00
3F80
60C0
60C0
60C0
60C0
60C0
71C0
DB40
CAC0
FBC0
ENDCHAR
STARTCHAR uni03AA.IotaDiaeresis
ENCODING 938
SWIDTH 382 0
DWIDTH 6 0
BBX 6 13 0 0
BITMAP
78
48
FC
FC
30
30
30
30
30
30
30
30
FC
ENDCHAR
STARTCHAR uni03AB.UpsilonDiaeresis
ENCODING 939
SWIDTH 728 0
DWIDTH 12 0
BBX 12 13 0 0
BITMAP
1B00
0B00
FBF0
FBF0
3180
1980
1B00
0F00
0E00
0600
0600
0600
1F80
ENDCHAR
STARTCHAR uni03AC.alphaTonos
ENCODING 940
SWIDTH 600 0
DWIDTH 10 0
BBX 9 12 0 0
BITMAP
0400
0C00
1800
0000
3F00
6700
4300
C300
C300
4300
6700
3F80
ENDCHAR
STARTCHAR uni03AD.epsilonTonos
ENCODING 941
SWIDTH 488 0
DWIDTH 8 0
BBX 7 12 0 0
BITMAP
08
18
10
00
3C
66
46
78
70
C2
C6
7C
ENDCHAR
STARTCHAR uni03AE.etaTonos
ENCODING 942
SWIDTH 594 0
DWIDTH 10 0
BBX 8 15 0 -3
BITMAP
06
04
0C
00
FF
33
31
21
21
21
21
21
01
01
01
ENDCHAR
STARTCHAR uni03AF.iotaTonos
ENCODING 943
SWIDTH 328 0
DWIDTH 5 0
BBX 5 12 0 0
BITMAP
30
30
60
00
E0
20
20
20
20
28
28
38
ENDCHAR
STARTCHAR uni03B0.upsilonDiaeresisTonos
ENCODING 944
SWIDTH 583 0
DWIDTH 9 0
BBX 9 14 0 0
BITMAP
0600
1C00
0000
3600
3600
0000
EF00
6D00
6D80
6180
6100
6300
3300
3E00
ENDCHAR
STARTCHAR uni03B1.alpha
ENCODING 945
SWIDTH 600 0
DWIDTH 10 0
BBX 9 8 0 0
BITMAP
3F00
6700
4300
C300
C300
4300
6700
3F80
ENDCHAR
STARTCHAR uni03B2.beta
ENCODING 946
SWIDTH 584 0
DWIDTH 9 0
BBX 8 14 1 -3
BITMAP
3C
6E
C6
C6
DC
CE
C2
C3
C3
E6
FE
C0
C0
80
ENDCHAR
STARTCHAR uni03B3.gamma
ENCODING 947
SWIDTH 601 0
DWIDTH 10 0
BBX 10 11 0 -3
BITMAP
C1C0
6300
3300
3200
1600
1C00
1C00
0C00
0C00
1C00
0800
ENDCHAR
STARTCHAR uni03B4.delta
ENCODING 948
SWIDTH 546 0
DWIDTH 9 0
BBX 8 11 0 0
BITMAP
7F
7F
3B
1F
7E
63
C3
C3
43
66
3E
ENDCHAR
STARTCHAR uni03B5.epsilon
ENCODING 949
SWIDTH 488 0
DWIDTH 8 0
BBX 7 8 0 0
BITMAP
3C
66
46
78
70
C2
C6
7C
ENDCHAR
STARTCHAR uni03B6.zeta
ENCODING 950
SWIDTH 505 0
DWIDTH 8 0
BBX 8 14 0 -3
BITMAP
7F
7F
5C
38
60
60
C0
C0
60
7E
06
03
0E
0C
ENDCHAR
STARTCHAR uni03B7.eta
ENCODING 951
SWIDTH 594 0
DWIDTH 10 0
BBX 8 11 0 -3
BITMAP
FF
33
31
21
21
21
21
21
01
01
01
ENDCHAR
STARTCHAR uni03B8.theta
ENCODING 952
SWIDTH 546 0
DWIDTH 9 0
BBX 8 11 0 0
BITMAP
1C
3E
62
43
43
FF
C3
43
63
66
3C
ENDCHAR
STARTCHAR uni03B9.iota
ENCODING 953
SWIDTH 328 0
DWIDTH 5 0
BBX 5 8 0 0
BITMAP
E0
20
20
20
20
28
28
38
ENDCHAR
STARTCHAR uni03BA.kappa
ENCODING 954
SWIDTH 619 0
DWIDTH 10 0
BBX 10 8 0 0
BITMAP
EF80
2700
2C00
3C00
3600
2600
2300
27C0
ENDCHAR
STARTCHAR uni03BB.lambda
ENCODING 955
SWIDTH 601 0
DWIDTH 10 0
BBX 10 11 0 0
BITMAP
7000
F800
CC00
0C00
0C00
1E00
1600
3200
3300
6300
FFC0
ENDCHAR
STARTCHAR mugreek
ENCODING 956
SWIDTH 619 0
DWIDTH 10 0
BBX 10 11 0 -3
BITMAP
E700
6300
6100
6100
6100
6300
7300
7FC0
6000
6000
2000
ENDCHAR
STARTCHAR uni03BD.nu
ENCODING 957
SWIDTH 601 0
DWIDTH 10 0
BBX 10 8 0 0
BITMAP
C1C0
6300
2300
3200
1600
1C00
1C00
0C00
ENDCHAR
STARTCHAR uni03BE.xi
ENCODING 958
SWIDTH 505 0
DWIDTH 8 0
BBX 7 14 1 -3
BITMAP
FE
DE
F0
60
60
78
C0
80
80
F8
7C
06
1C
18
ENDCHAR
STARTCHAR uni03BF.omicron
ENCODING 959
SWIDTH 546 0
DWIDTH 9 0
BBX 8 8 0 0
BITMAP
3E
66
43
C3
C3
43
66
3E
ENDCHAR
STARTCHAR pi
ENCODING 960
SWIDTH 581 0
DWIDTH 9 0
BBX 9 8 0 0
BITMAP
FF80
6300
6300
6300
6300
6300
6300
6300
ENDCHAR
STARTCHAR uni03C1.rho
ENCODING 961
SWIDTH 554 0
DWIDTH 9 0
BBX 7 11 1 -3
BITMAP
7C
C6
C6
86
86
C6
CC
FC
80
80
80
ENDCHAR
STARTCHAR uni03C2.sigma1
ENCODING 962
SWIDTH 510 0
DWIDTH 8 0
BBX 8 11 0 -3
BITMAP
3E
66
46
C6
C0
60
3E
06
03
0E
0C
ENDCHAR
STARTCHAR uni03C3.sigma
ENCODING 963
SWIDTH 581 0
DWIDTH 9 0
BBX 9 8 0 0
BITMAP
3F80
7780
4300
C300
C300
4300
6600
3E00
ENDCHAR
STARTCHAR uni03C4.tau
ENCODING 964
SWIDTH 594 0
DWIDTH 10 0
BBX 7 8 0 0
BITMAP
FE
FE
30
30
32
32
12
1E
ENDCHAR
STARTCHAR uni03C5.upsilon
ENCODING 965
SWIDTH 583 0
DWIDTH 9 0
BBX 9 8 0 0
BITMAP
EF00
6D00
6D80
6180
6100
6300
3300
3E00
ENDCHAR
STARTCHAR uni03C6.phi
ENCODING 966
SWIDTH 697 0
DWIDTH 11 0
BBX 10 11 0 -3
BITMAP
3F80
7CC0
4440
C440
4440
64C0
7580
1F00
0400
0400
0400
ENDCHAR
STARTCHAR uni03C7.chi
ENCODING 967
SWIDTH 542 0
DWIDTH 9 0
BBX 9 11 0 -3
BITMAP
E300
3600
3400
1C00
1800
1800
1C00
3C00
3600
E780
C300
ENDCHAR
STARTCHAR uni03C8.psi
ENCODING 968
SWIDTH 714 0
DWIDTH 11 0
BBX 11 14 0 -3
BITMAP
0400
0400
0400
C460
64C0
2480
2480
2480
2480
3580
1F00
0400
0400
0400
ENDCHAR
STARTCHAR uni03C9.omega
ENCODING 969
SWIDTH 876 0
DWIDTH 14 0
BBX 12 8 1 0
BITMAP
7BE0
C830
8030
8630
8630
8630
CE30
7BE0
ENDCHAR
STARTCHAR uni03CA.iotaDiaeresis
ENCODING 970
SWIDTH 328 0
DWIDTH 5 0
BBX 5 11 0 0
BITMAP
58
D8
00
E0
20
20
20
20
28
28
38
ENDCHAR
STARTCHAR uni03CB.upsilonDiaeresis
ENCODING 971
SWIDTH 583 0
DWIDTH 9 0
BBX 9 11 0 0
BITMAP
1600
3600
0000
EF00
6D00
6D80
6180
6100
6300
3300
3E00
ENDCHAR
STARTCHAR uni03CC.omicronTonos
ENCODING 972
SWIDTH 546 0
DWIDTH 9 0
BBX 8 12 0 0
BITMAP
0C
0C
18
00
3E
66
43
C3
C3
43
66
3E
ENDCHAR
STARTCHAR uni03CD.upsilonTonos
ENCODING 973
SWIDTH 583 0
DWIDTH 9 0
BBX 9 12 0 0
BITMAP
0400
0C00
0800
0000
EF00
6D00
6D80
6180
6100
6300
3300
3E00
ENDCHAR
STARTCHAR uni03CE.omegaTonos
ENCODING 974
SWIDTH 876 0
DWIDTH 14 0
BBX 12 12 1 0
BITMAP
0300
0200
0600
0000
7BE0
C830
8030
8630
8630
8630
CE30
7BE0
ENDCHAR
STARTCHAR uni0400.EGraveCyrillic
ENCODING 1024
SWIDTH 673 0
DWIDTH 11 0
BBX 10 14 0 0
BITMAP
0800
0E00
0200
FF80
FFC0
3280
3280
36C0
3E00
32C0
32C0
30C0
30C0
FFC0
ENDCHAR
STARTCHAR uni0401.IoCyrillic
ENCODING 1025
SWIDTH 673 0
DWIDTH 11 0
BBX 10 13 0 0
BITMAP
1B00
1A00
FF80
FFC0
3280
3280
36C0
3E00
32C0
32C0
30C0
30C0
FFC0
ENDCHAR
STARTCHAR uni0402.DjeCyrillic
ENCODING 1026
SWIDTH 777 0
DWIDTH 12 0
BBX 12 11 0 0
BITMAP
FFC0
FFC0
CCC0
CCC0
0FC0
0E60
0C20
0C30
0CB0
0DB0
3FE0
ENDCHAR
STARTCHAR uni0403.GjeCyrillic
ENCODING 1027
SWIDTH 619 0
DWIDTH 10 0
BBX 9 14 0 0
BITMAP
0200
0600
0C00
FF80
FF80
3080
3080
3080
3000
3000
3000
3000
3000
FC00
ENDCHAR
STARTCHAR uni0404.ECyrillic
ENCODING 1028
SWIDTH 637 0
DWIDTH 10 0
BBX 10 11 0 0
BITMAP
1E80
3B80
6180
6080
4080
FE00
C080
40C0
6080
3180
1F00
ENDCHAR
STARTCHAR uni0405.DzeCyrillic
ENCODING 1029
SWIDTH 619 0
DWIDTH 10 0
BBX 8 11 1 0
BITMAP
3E
6E
C2
C3
E2
7E
87
83
C3
C7
FE
ENDCHAR
STARTCHAR uni0406.ICyrillic
ENCODING 1030
SWIDTH 382 0
DWIDTH 6 0
BBX 6 11 0 0
BITMAP
FC
FC
30
30
30
30
30
30
30
30
FC
ENDCHAR
STARTCHAR uni0407.YiCyrillic
ENCODING 1031
SWIDTH 382 0
DWIDTH 6 0
BBX 6 13 0 0
BITMAP
78
48
FC
FC
30
30
30
30
30
30
30
30
FC
ENDCHAR
STARTCHAR uni0408.JeCyrillic
ENCODING 1032
SWIDTH 619 0
DWIDTH 10 0
BBX 10 11 0 0
BITMAP
07C0
07C0
0300
0300
0300
0300
7300
F300
C300
E700
7E00
ENDCHAR
STARTCHAR uni0409.LjeCyrillic
ENCODING 1033
SWIDTH 1083 0
DWIDTH 17 0
BBX 17 11 0 0
BITMAP
1FF800
1FF800
066000
066000
066000
067F00
066380
0C6180
4C6180
CC6300
79FE00
ENDCHAR
STARTCHAR uni040A.NjeCyrillic
ENCODING 1034
SWIDTH 1039 0
DWIDTH 17 0
BBX 16 11 0 0
BITMAP
FDF0
FDF0
30C0
30C0
30C0
3FFE
30C3
30C3
30C3
30C7
FFFE
ENDCHAR
STARTCHAR uni040B.TsheCyrillic
ENCODING 1035
SWIDTH 822 0
DWIDTH 13 0
BBX 13 11 0 0
BITMAP
FFC0
FFC0
CCC0
CC40
0FC0
0E60
0C60
0C60
0C60
0C60
3FF8
ENDCHAR
STARTCHAR uni040C.KjeCyrillic
ENCODING 1036
SWIDTH 752 0
DWIDTH 12 0
BBX 12 14 0 0
BITMAP
0100
0300
0400
FCE0
FCF0
31A0
3180
3300
3F00
31A0
31B0
31B0
31B0
FCE0
ENDCHAR
STARTCHAR uni040D.IGraveCyrillic
ENCODING 1037
SWIDTH 783 0
DWIDTH 13 0
BBX 12 14 0 0
BITMAP
0800
0C00
0600
FDF0
FFF0
30C0
31C0
33C0
36C0
3CC0
3CC0
38C0
30C0
FFF0
ENDCHAR
STARTCHAR uni040E.UshortCyrillic
ENCODING 1038
SWIDTH 737 0
DWIDTH 12 0
BBX 12 14 0 0
BITMAP
1080
0F00
0600
FBF0
F9F0
30C0
1980
1980
1B00
0F00
0E00
6600
6C00
7800
ENDCHAR
STARTCHAR uni040F.DzheCyrillic
ENCODING 1039
SWIDTH 783 0
DWIDTH 13 0
BBX 12 14 0 -3
BITMAP
FDF0
FFF0
30C0
30C0
30C0
30C0
30C0
30C0
30C0
3FC0
FFF0
0600
0600
0600
ENDCHAR
STARTCHAR uni0410.ACyrillic
ENCODING 1040
SWIDTH 746 0
DWIDTH 12 0
BBX 12 11 0 0
BITMAP
0600
0E00
0E00
0B00
1B00
1980
3F80
3180
30C0
60C0
FBF0
ENDCHAR
STARTCHAR uni0411.BeCyrillic
ENCODING 1041
SWIDTH 637 0
DWIDTH 10 0
BBX 10 11 0 0
BITMAP
FF80
FF80
3080
3080
3080
3F80
31C0
30C0
30C0
31C0
FF80
ENDCHAR
STARTCHAR uni0412.VeCyrillic
ENCODING 1042
SWIDTH 692 0
DWIDTH 11 0
BBX 10 11 0 0
BITMAP
FF00
FF80
30C0
30C0
3380
3F80
30C0
30C0
30C0
31C0
FF80
ENDCHAR
STARTCHAR uni0413.GeCyrillic
ENCODING 1043
SWIDTH 619 0
DWIDTH 10 0
BBX 9 11 0 0
BITMAP
FF80
FF80
3080
3080
3080
3000
3000
3000
3000
3000
FC00
ENDCHAR
STARTCHAR uni0414.DeCyrillic
ENCODING 1044
SWIDTH 767 0
DWIDTH 12 0
BBX 12 14 0 -3
BITMAP
3FF0
3FF0
0CC0
0CC0
0CC0
0CC0
0CC0
08C0
18C0
18C0
FFF0
C030
C030
8010
ENDCHAR
STARTCHAR uni0415.IeCyrillic
ENCODING 1045
SWIDTH 673 0
DWIDTH 11 0
BBX 10 11 0 0
BITMAP
FF80
FFC0
3280
3280
36C0
3E00
32C0
32C0
30C0
30C0
FFC0
ENDCHAR
STARTCHAR uni0416.ZheCyrillic
ENCODING 1046
SWIDTH 962 0
DWIDTH 15 0
BBX 15 11 0 0
BITMAP
67CC
F7DE
F11E
1110
1930
1FF0
B39A
F11E
F11E
F39E
67CC
ENDCHAR
STARTCHAR uni0417.ZeCyrillic
ENCODING 1047
SWIDTH 628 0
DWIDTH 10 0
BBX 9 11 0 0
BITMAP
5E00
7700
6180
4180
4700
0F00
6180
6180
C180
6380
3F00
ENDCHAR
STARTCHAR uni0418.IiCyrillic
ENCODING 1048
SWIDTH 783 0
DWIDTH 13 0
BBX 12 11 0 0
BITMAP
FDF0
FFF0
30C0
31C0
33C0
36C0
3CC0
3CC0
38C0
30C0
FFF0
ENDCHAR
STARTCHAR uni0419.IiShortCyrillic
ENCODING 1049
SWIDTH 783 0
DWIDTH 13 0
BBX 12 14 0 0
BITMAP
0080
0F80
0700
FDF0
FFF0
30C0
31C0
33C0
36C0
3CC0
3CC0
38C0
30C0
FFF0
ENDCHAR
STARTCHAR uni041A.KaCyrillic
ENCODING 1050
SWIDTH 752 0
DWIDTH 12 0
BBX 12 11 0 0
BITMAP
FCE0
FCF0
31A0
3180
3300
3F00
31A0
31B0
31B0
31B0
FCE0
ENDCHAR
STARTCHAR uni041B.ElCyrillic
ENCODING 1051
SWIDTH 828 0
DWIDTH 13 0
BBX 13 11 0 0
BITMAP
1FF8
1FF8
0660
0660
0660
0660
0460
0C60
4C60
DC60
79F8
ENDCHAR
STARTCHAR uni041C.EmCyrillic
ENCODING 1052
SWIDTH 947 0
DWIDTH 15 0
BBX 15 11 0 0
BITMAP
F83C
F83E
3C78
3C78
3C58
34D8
36D8
3698
3398
3398
FF7E
ENDCHAR
STARTCHAR uni041D.EnCyrillic
ENCODING 1053
SWIDTH 783 0
DWIDTH 13 0
BBX 12 11 0 0
BITMAP
FDF0
FFF0
30C0
30C0
30C0
3FC0
30C0
30C0
30C0
30C0
FFF0
ENDCHAR
STARTCHAR uni041E.OCyrillic
ENCODING 1054
SWIDTH 655 0
DWIDTH 10 0
BBX 10 11 0 0
BITMAP
1E00
3F80
6180
60C0
40C0
C0C0
C0C0
60C0
6180
7380
3F00
ENDCHAR
STARTCHAR uni041F.PeCyrillic
ENCODING 1055
SWIDTH 783 0
DWIDTH 13 0
BBX 12 11 0 0
BITMAP
FFF0
FFF0
30C0
30C0
30C0
30C0
30C0
30C0
30C0
30C0
FFF0
ENDCHAR
STARTCHAR uni0420.ErCyrillic
ENCODING 1056
SWIDTH 637 0
DWIDTH 10 0
BBX 10 11 0 0
BITMAP
FF00
FF80
30C0
30C0
30C0
3F80
3E00
3000
3000
3000
FC00
ENDCHAR
STARTCHAR uni0421.EsCyrillic
ENCODING 1057
SWIDTH 637 0
DWIDTH 10 0
BBX 10 11 0 0
BITMAP
1E80
3B80
6180
6080
4080
C000
C080
60C0
6080
7180
3F00
ENDCHAR
STARTCHAR uni0422.TeCyrillic
ENCODING 1058
SWIDTH 637 0
DWIDTH 10 0
BBX 10 11 0 0
BITMAP
FFC0
FFC0
CCC0
CCC0
CCC0
0C00
0C00
0C00
0C00
0C00
3F00
ENDCHAR
STARTCHAR uni0423.UCyrillic
ENCODING 1059
SWIDTH 737 0
DWIDTH 12 0
BBX 12 11 0 0
BITMAP
FBF0
F9F0
30C0
1980
1980
1B00
0F00
0E00
6600
6C00
7800
ENDCHAR
STARTCHAR uni0424.EfCyrillic
ENCODING 1060
SWIDTH 685 0
DWIDTH 11 0
BBX 10 11 0 0
BITMAP
1F00
1F00
1F00
7FC0
6CC0
CCC0
4CC0
7DC0
3F00
0C00
3F00
ENDCHAR
STARTCHAR uni0425.KhaCyrillic
ENCODING 1061
SWIDTH 783 0
DWIDTH 13 0
BBX 12 11 0 0
BITMAP
FDF0
FDF0
19C0
1D80
0F00
0600
0F00
1D80
18C0
30E0
FDF0
ENDCHAR
STARTCHAR uni0426.TseCyrillic
ENCODING 1062
SWIDTH 783 0
DWIDTH 13 0
BBX 12 14 0 -3
BITMAP
FDF0
FFF0
30C0
30C0
30C0
30C0
30C0
30C0
30C0
3FC0
FFF0
0010
0010
0010
ENDCHAR
STARTCHAR uni0427.CheCyrillic
ENCODING 1063
SWIDTH 753 0
DWIDTH 12 0
BBX 12 11 0 0
BITMAP
FBE0
FBE0
30C0
30C0
30C0
31C0
1FC0
0EC0
00C0
00C0
03F0
ENDCHAR
STARTCHAR uni0428.ShaCyrillic
ENCODING 1064
SWIDTH 1146 0
DWIDTH 18 0
BBX 18 11 0 0
BITMAP
FFFFC0
FFFFC0
30C300
30C300
30C300
30C300
30C300
30C300
30C300
3FFF00
FFFFC0
ENDCHAR
STARTCHAR uni0429.ShchaCyrillic
ENCODING 1065
SWIDTH 1146 0
DWIDTH 18 0
BBX 18 14 0 -3
BITMAP
FFFFC0
FFFFC0
30C300
30C300
30C300
30C300
30C300
30C300
30C300
3FFF00
FFFFC0
0000C0
0000C0
000040
ENDCHAR
STARTCHAR uni042A.HardSignCyrillic
ENCODING 1066
SWIDTH 785 0
DWIDTH 13 0
BBX 12 11 0 0
BITMAP
7F00
FF00
CC00
CC00
4C00
0FE0
0C30
0C30
0C30
0C70
3FE0
ENDCHAR
STARTCHAR uni042B.YeriCyrillic
ENCODING 1067
SWIDTH 1019 0
DWIDTH 16 0
BBX 16 11 0 0
BITMAP
FC3F
FC3F
300C
300C
300C
3F8C
31CC
30CC
30CC
31CC
FFBF
ENDCHAR
STARTCHAR uni042C.SoftSignCyrillic
ENCODING 1068
SWIDTH 637 0
DWIDTH 10 0
BBX 10 11 0 0
BITMAP
FC00
FC00
3000
3000
3000
3F80
31C0
30C0
30C0
31C0
FF80
ENDCHAR
STARTCHAR uni042D.ECyrillic
ENCODING 1069
SWIDTH 637 0
DWIDTH 10 0
BBX 10 11 0 0
BITMAP
5E00
7700
6180
4180
4080
1FC0
40C0
C180
4180
6300
3E00
ENDCHAR
STARTCHAR uni042E.IuCyrillic
ENCODING 1070
SWIDTH 1037 0
DWIDTH 17 0
BBX 16 11 0 0
BITMAP
FC78
FCFE
3186
3183
3303
3F03
3303
3103
3186
31CE
FCFC
ENDCHAR
STARTCHAR uni042F.IaCyrillic
ENCODING 1071
SWIDTH 728 0
DWIDTH 12 0
BBX 11 11 0 0
BITMAP
1FE0
3FE0
3180
2180
3180
1F80
B180
B180
B180
F180
F7E0
ENDCHAR
STARTCHAR uni0430.aCyrillic
ENCODING 1072
SWIDTH 564 0
DWIDTH 9 0
BBX 9 8 0 0
BITMAP
3C00
6600
6600
3E00
7E00
C680
C680
7F80
ENDCHAR
STARTCHAR uni0431.beCyrillic
ENCODING 1073
SWIDTH 546 0
DWIDTH 9 0
BBX 8 12 0 0
BITMAP
02
06
3E
70
7C
76
E3
C3
C3
43
66
3E
ENDCHAR
STARTCHAR uni0432.veCyrillic
ENCODING 1074
SWIDTH 574 0
DWIDTH 9 0
BBX 9 8 0 0
BITMAP
FE00
2300
2300
3E00
3300
2180
3380
FF00
ENDCHAR
STARTCHAR uni0433.geCyrillic
ENCODING 1075
SWIDTH 486 0
DWIDTH 8 0
BBX 7 8 0 0
BITMAP
FE
22
22
22
20
20
20
F8
ENDCHAR
STARTCHAR uni0434.deCyrillic
ENCODING 1076
SWIDTH 633 0
DWIDTH 10 0
BBX 10 10 0 -2
BITMAP
7FC0
1F00
1B00
1B00
1300
1300
3F00
FFC0
80C0
C0C0
ENDCHAR
STARTCHAR uni0435.ieCyrillic
ENCODING 1077
SWIDTH 528 0
DWIDTH 8 0
BBX 8 8 0 0
BITMAP
3E
66
43
FF
C0
43
66
3E
ENDCHAR
STARTCHAR uni0436.zheCyrillic
ENCODING 1078
SWIDTH 827 0
DWIDTH 13 0
BBX 12 8 0 0
BITMAP
6FF0
F270
5250
1AC0
3FC0
7270
7270
6FF0
ENDCHAR
STARTCHAR uni0437.zeCyrillic
ENCODING 1079
SWIDTH 488 0
DWIDTH 8 0
BBX 7 8 0 0
BITMAP
7C
46
66
1C
1E
C2
66
7E
ENDCHAR
STARTCHAR uni0438.iiCyrillic
ENCODING 1080
SWIDTH 653 0
DWIDTH 10 0
BBX 10 8 0 0
BITMAP
FFC0
2180
2300
2700
2D00
3900
3180
FFC0
ENDCHAR
STARTCHAR uni0439.iiShortCyrillic
ENCODING 1081
SWIDTH 653 0
DWIDTH 10 0
BBX 10 11 0 0
BITMAP
3300
1E00
0000
FFC0
2180
2300
2700
2D00
3900
3180
FFC0
ENDCHAR
STARTCHAR uni043A.kaCyrillic
ENCODING 1082
SWIDTH 658 0
DWIDTH 11 0
BBX 10 8 0 0
BITMAP
FB80
22C0
2280
2E00
3E00
23C0
23C0
FB80
ENDCHAR
STARTCHAR uni043B.elCyrillic
ENCODING 1083
SWIDTH 698 0
DWIDTH 11 0
BBX 11 8 0 0
BITMAP
3FE0
0F80
0D80
0D80
0980
0980
D980
73E0
ENDCHAR
STARTCHAR uni043C.emCyrillic
ENCODING 1084
SWIDTH 839 0
DWIDTH 13 0
BBX 13 8 0 0
BITMAP
F8F8
38E0
39E0
3DE0
3DE0
3760
3760
FFF8
ENDCHAR
STARTCHAR uni043D.enCyrillic
ENCODING 1085
SWIDTH 653 0
DWIDTH 10 0
BBX 10 8 0 0
BITMAP
FFC0
2100
2100
3F00
3F00
2100
2100
FFC0
ENDCHAR
STARTCHAR uni043E.oCyrillic
ENCODING 1086
SWIDTH 546 0
DWIDTH 9 0
BBX 8 8 0 0
BITMAP
3E
66
43
C3
C3
43
66
3E
ENDCHAR
STARTCHAR uni043F.peCyrillic
ENCODING 1087
SWIDTH 653 0
DWIDTH 10 0
BBX 10 8 0 0
BITMAP
FFC0
3F00
2100
2100
2100
2100
2100
FFC0
ENDCHAR
STARTCHAR uni0440.erCyrillic
ENCODING 1088
SWIDTH 600 0
DWIDTH 10 0
BBX 9 11 0 -3
BITMAP
FF00
3300
3180
2180
2180
2180
3300
3E00
2000
F800
F800
ENDCHAR
STARTCHAR uni0441.esCyrillic
ENCODING 1089
SWIDTH 510 0
DWIDTH 8 0
BBX 8 8 0 0
BITMAP
3E
66
46
C6
C0
43
66
3C
ENDCHAR
STARTCHAR uni0442.teCyrillic
ENCODING 1090
SWIDTH 555 0
DWIDTH 9 0
BBX 8 8 0 0
BITMAP
FF
D9
D9
59
18
18
18
3E
ENDCHAR
STARTCHAR uni0443.uCyrillic
ENCODING 1091
SWIDTH 601 0
DWIDTH 10 0
BBX 11 11 -1 -3
BITMAP
7FE0
3180
1980
1900
0B00
0F00
0E00
0600
6400
EC00
7800
ENDCHAR
STARTCHAR uni0444.efCyrillic
ENCODING 1092
SWIDTH 894 0
DWIDTH 14 0
BBX 12 14 1 -3
BITMAP
0E00
0E00
0600
7FE0
CF30
8630
8610
8610
8630
CF30
7FE0
0600
0F00
0F00
ENDCHAR
STARTCHAR uni0445.khaCyrillic
ENCODING 1093
SWIDTH 637 0
DWIDTH 10 0
BBX 10 8 0 0
BITMAP
FFC0
3300
1E00
0C00
1C00
3600
3300
FFC0
ENDCHAR
STARTCHAR uni0446.tseCyrillic
ENCODING 1094
SWIDTH 653 0
DWIDTH 10 0
BBX 10 10 0 -2
BITMAP
FFC0
2100
2100
2100
2100
2100
3F00
FFC0
0040
0040
ENDCHAR
STARTCHAR uni0447.cheCyrillic
ENCODING 1095
SWIDTH 637 0
DWIDTH 10 0
BBX 10 8 0 0
BITMAP
FFC0
6300
6300
2300
3F00
0300
0300
07C0
ENDCHAR
STARTCHAR uni0448.shaCyrillic
ENCODING 1096
SWIDTH 895 0
DWIDTH 14 0
BBX 14 8 0 0
BITMAP
FFFC
2310
2310
2310
2310
2310
3FF0
FFFC
ENDCHAR
STARTCHAR uni0449.shchaCyrillic
ENCODING 1097
SWIDTH 895 0
DWIDTH 14 0
BBX 14 10 0 -2
BITMAP
FFFC
2310
2310
2310
2310
2310
3FF0
FFFC
000C
000C
ENDCHAR
STARTCHAR uni044A.hardSignCyrillic
ENCODING 1098
SWIDTH 696 0
DWIDTH 11 0
BBX 11 8 0 0
BITMAP
FE00
CC00
C800
4F80
0CC0
0860
0CE0
3FC0
ENDCHAR
STARTCHAR uni044B.yeriCyrillic
ENCODING 1099
SWIDTH 874 0
DWIDTH 14 0
BBX 14 8 0 0
BITMAP
F870
3030
3030
3E30
3330
21B0
33B0
FF7C
ENDCHAR
STARTCHAR uni044C.softSignCyrillic
ENCODING 1100
SWIDTH 564 0
DWIDTH 9 0
BBX 9 8 0 0
BITMAP
F800
2000
2000
3E00
3300
2180
3380
FF00
ENDCHAR
STARTCHAR uni044D.eCyrillic
ENCODING 1101
SWIDTH 510 0
DWIDTH 8 0
BBX 7 8 0 0
BITMAP
7C
66
62
7E
1E
C2
66
3C
ENDCHAR
STARTCHAR uni044E.iuCyrillic
ENCODING 1102
SWIDTH 856 0
DWIDTH 14 0
BBX 13 8 0 0
BITMAP
F9E0
2330
2618
3E18
3E18
2618
2330
F9E0
ENDCHAR
STARTCHAR uni044F.iaCyrillic
ENCODING 1103
SWIDTH 653 0
DWIDTH 10 0
BBX 10 8 0 0
BITMAP
1FC0
3100
3100
3F00
1F00
F100
F100
77C0
ENDCHAR
STARTCHAR uni0450.eGraveCyrillic
ENCODING 1104
SWIDTH 528 0
DWIDTH 8 0
BBX 8 11 0 0
BITMAP
30
1C
04
3E
66
43
FF
C0
43
66
3E
ENDCHAR
STARTCHAR uni0451.ioCyrillic
ENCODING 1105
SWIDTH 528 0
DWIDTH 8 0
BBX 8 11 0 0
BITMAP
34
36
00
3E
66
43
FF
C0
43
66
3E
ENDCHAR
STARTCHAR uni0452.djeCyrillic
ENCODING 1106
SWIDTH 626 0
DWIDTH 10 0
BBX 8 14 0 -3
BITMAP
E0
E0
F8
20
3F
33
21
21
21
21
F9
0D
0F
06
ENDCHAR
STARTCHAR uni0453.gjeCyrillic
ENCODING 1107
SWIDTH 486 0
DWIDTH 8 0
BBX 7 11 0 0
BITMAP
0C
1C
00
FE
22
22
22
20
20
20
F8
ENDCHAR
STARTCHAR uni0454.ieCyrillic
ENCODING 1108
SWIDTH 510 0
DWIDTH 8 0
BBX 8 8 0 0
BITMAP
3C
66
46
FE
F8
43
66
3C
ENDCHAR
STARTCHAR uni0455.dzeCyrillic
ENCODING 1109
SWIDTH 492 0
DWIDTH 8 0
BBX 6 8 1 0
BITMAP
7C
CC
CC
F8
BC
84
CC
F8
ENDCHAR
STARTCHAR uni0456.iCyrillic
ENCODING 1110
SWIDTH 310 0
DWIDTH 5 0
BBX 5 10 0 0
BITMAP
60
20
E0
20
20
20
20
20
20
F8
ENDCHAR
STARTCHAR uni0457.yiCyrillic
ENCODING 1111
SWIDTH 310 0
DWIDTH 5 0
BBX 5 11 0 0
BITMAP
D8
D8
00
E0
20
20
20
20
20
20
F8
ENDCHAR
STARTCHAR uni0458.jeCyrillic
ENCODING 1112
SWIDTH 291 0
DWIDTH 5 0
BBX 5 13 -2 -3
BITMAP
18
08
38
08
08
08
08
08
08
08
C8
D8
70
ENDCHAR
STARTCHAR uni0459.ljeCyrillic
ENCODING 1113
SWIDTH 882 0
DWIDTH 14 0
BBX 14 8 0 0
BITMAP
3FE0
0F80
0D80
0DF0
0D98
098C
D998
73F8
ENDCHAR
STARTCHAR uni045A.njeCyrillic
ENCODING 1114
SWIDTH 800 0
DWIDTH 13 0
BBX 12 8 0 0
BITMAP
F780
2300
2300
3FE0
3F30
2330
2330
FFE0
ENDCHAR
STARTCHAR uni045B.tsheCyrillic
ENCODING 1115
SWIDTH 637 0
DWIDTH 10 0
BBX 10 11 0 0
BITMAP
E000
E000
F000
7F00
3300
2100
2100
2100
2100
2180
FFC0
ENDCHAR
STARTCHAR uni045C.kjeCyrillic
ENCODING 1116
SWIDTH 658 0
DWIDTH 11 0
BBX 10 11 0 0
BITMAP
0200
0E00
0800
FB80
22C0
2280
2E00
3E00
23C0
23C0
FB80
ENDCHAR
STARTCHAR uni045D.iGraveCyrillic
ENCODING 1117
SWIDTH 653 0
DWIDTH 10 0
BBX 10 11 0 0
BITMAP
1800
1C00
0000
FFC0
2180
2300
2700
2D00
3900
3180
FFC0
ENDCHAR
STARTCHAR uni045E.uShortCyrillic
ENCODING 1118
SWIDTH 601 0
DWIDTH 10 0
BBX 11 14 -1 -3
BITMAP
1900
0F00
0000
7FE0
3180
1980
1900
0B00
0F00
0E00
0600
6400
EC00
7800
ENDCHAR
STARTCHAR uni045F.dzheCyrillic
ENCODING 1119
SWIDTH 653 0
DWIDTH 10 0
BBX 10 10 0 -2
BITMAP
FFC0
2100
2100
2100
2100
2100
3F00
FFC0
0C00
0C00
ENDCHAR
STARTCHAR uni0462.SemisoftSignCyrillic
ENCODING 1122
SWIDTH 637 0
DWIDTH 10 0
BBX 10 11 0 0
BITMAP
FC00
FC00
7C00
7C00
3000
3F80
31C0
30C0
30C0
31C0
FF80
ENDCHAR
STARTCHAR uni0463.semisoftSignCyrillic
ENCODING 1123
SWIDTH 564 0
DWIDTH 9 0
BBX 9 8 0 0
BITMAP
F800
2000
F800
3E00
3300
2180
3380
FF00
ENDCHAR
STARTCHAR uni046A.YusCyrillic
ENCODING 1130
SWIDTH 962 0
DWIDTH 15 0
BBX 15 11 0 0
BITMAP
FFFE
FFFE
3018
1010
1830
1FF0
B39A
F11E
F11E
F39E
67CC
ENDCHAR
STARTCHAR uni046B.yusCyrillic
ENCODING 1131
SWIDTH 827 0
DWIDTH 13 0
BBX 12 8 0 0
BITMAP
FFF0
3040
1040
18C0
3FC0
7270
7270
6FF0
ENDCHAR
STARTCHAR uni0472.FitaCyrillic
ENCODING 1138
SWIDTH 655 0
DWIDTH 10 0
BBX 10 11 0 0
BITMAP
1E00
3F80
6180
60C0
50C0
FFC0
E7C0
60C0
6180
7380
3F00
ENDCHAR
STARTCHAR uni0473.fitaCyrillic
ENCODING 1139
SWIDTH 546 0
DWIDTH 9 0
BBX 8 8 0 0
BITMAP
3E
66
43
FB
EF
43
66
3E
ENDCHAR
STARTCHAR uni0474.IzhitsaCyrillic
ENCODING 1140
SWIDTH 728 0
DWIDTH 12 0
BBX 12 11 0 0
BITMAP
FC30
FC70
30C0
30C0
1980
1980
1900
0F00
0F00
0E00
0600
ENDCHAR
STARTCHAR uni0475.izhitsaCyrillic
ENCODING 1141
SWIDTH 601 0
DWIDTH 10 0
BBX 10 8 0 0
BITMAP
F1C0
6380
2300
3200
3600
1E00
1C00
0C00
ENDCHAR
STARTCHAR uni048C.YatCyrillic
ENCODING 1164
SWIDTH 637 0
DWIDTH 10 0
BBX 10 13 0 0
BITMAP
FC00
FC00
3000
3000
FC00
3000
3000
3F80
31C0
30C0
30C0
31C0
FF80
ENDCHAR
STARTCHAR uni048D.yatCyrillic
ENCODING 1165
SWIDTH 564 0
DWIDTH 9 0
BBX 9 10 0 0
BITMAP
4800
F800
2000
F800
2000
3E00
3300
2180
3380
FF00
ENDCHAR
STARTCHAR uni0490.GheUpturnCyrillic
ENCODING 1168
SWIDTH 619 0
DWIDTH 10 0
BBX 9 13 0 0
BITMAP
0080
0080
FF80
FF80
3000
3000
3000
3000
3000
3000
3000
3000
FC00
ENDCHAR
STARTCHAR uni0491.gheUpturnCyrillic
ENCODING 1169
SWIDTH 486 0
DWIDTH 8 0
BBX 7 10 0 0
BITMAP
02
02
FE
20
20
20
20
20
20
F8
ENDCHAR
STARTCHAR uni0492.GheStrokeCyrillic
ENCODING 1170
SWIDTH 619 0
DWIDTH 10 0
BBX 9 13 0 0
BITMAP
1F00
0000
FF80
FF80
3080
3080
3080
3000
3000
3000
3000
3000
FC00
ENDCHAR
STARTCHAR uni0493.gheStrokeCyrillic
ENCODING 1171
SWIDTH 486 0
DWIDTH 8 0
BBX 7 10 0 0
BITMAP
3C
00
FE
22
22
22
20
20
20
F8
ENDCHAR
STARTCHAR uni0496.ZheDescenderCyrillic
ENCODING 1174
SWIDTH 962 0
DWIDTH 15 0
BBX 15 14 0 -3
BITMAP
67CC
F7DE
F11E
1110
1930
1FF0
B398
F118
F118
F398
67CE
0006
0006
0006
ENDCHAR
STARTCHAR uni0497.zheDescenderCyrillic
ENCODING 1175
SWIDTH 827 0
DWIDTH 13 0
BBX 12 10 0 -2
BITMAP
6FF0
F270
5250
1AC0
3FC0
7260
7260
6FF0
0010
0010
ENDCHAR
STARTCHAR uni0498.ZeDescenderCyrillic
ENCODING 1176
SWIDTH 628 0
DWIDTH 10 0
BBX 9 14 0 -3
BITMAP
5E00
7700
6180
4180
4700
0F00
6180
6180
C180
6380
3F00
0C00
1600
1E00
ENDCHAR
STARTCHAR uni0499.zeDescenderCyrillic
ENCODING 1177
SWIDTH 488 0
DWIDTH 8 0
BBX 7 11 0 -3
BITMAP
7C
46
66
1C
1E
C2
66
7E
18
2C
38
ENDCHAR
STARTCHAR uni049A.KaDescenderCyrillic
ENCODING 1178
SWIDTH 752 0
DWIDTH 12 0
BBX 12 14 0 -3
BITMAP
FCE0
FCF0
31A0
3180
3300
3F00
3180
3180
3180
3180
FCF0
0030
0030
0020
ENDCHAR
STARTCHAR uni049B.kaDescenderCyrillic
ENCODING 1179
SWIDTH 658 0
DWIDTH 11 0
BBX 10 10 0 -2
BITMAP
FB80
22C0
2280
2E00
3E00
2300
2300
FBC0
00C0
00C0
ENDCHAR
STARTCHAR uni049C.KaStrokeCyrillic
ENCODING 1180
SWIDTH 752 0
DWIDTH 12 0
BBX 12 11 0 0
BITMAP
FCE0
FCF0
35A0
3580
3700
3F00
35A0
35B0
35B0
31B0
FCE0
ENDCHAR
STARTCHAR uni049D.kaStrokeCyrillic
ENCODING 1181
SWIDTH 658 0
DWIDTH 11 0
BBX 10 8 0 0
BITMAP
FB80
22C0
2A80
2E00
3E00
2BC0
23C0
FB80
ENDCHAR
STARTCHAR uni04A0.KaBashkirCyrillic
ENCODING 1184
SWIDTH 845 0
DWIDTH 14 0
BBX 14 11 0 0
BITMAP
7F38
FF3C
CC2C
CC60
4C60
0FE0
0E64
0C3C
0C3C
0C3C
3F38
ENDCHAR
STARTCHAR uni04A1.kaBashkirCyrillic
ENCODING 1185
SWIDTH 729 0
DWIDTH 12 0
BBX 12 8 0 0
BITMAP
FEE0
CCF0
C8A0
4B80
0F80
08F0
0CF0
3EE0
ENDCHAR
STARTCHAR uni04A2.EnDescenderCyrillic
ENCODING 1186
SWIDTH 783 0
DWIDTH 13 0
BBX 12 14 0 -3
BITMAP
FDF0
FDF0
30C0
30C0
30C0
3FC0
30C0
30C0
30C0
30C0
FFF0
0010
0010
0010
ENDCHAR
STARTCHAR uni04A3.enDescenderCyrillic
ENCODING 1187
SWIDTH 653 0
DWIDTH 10 0
BBX 10 10 0 -2
BITMAP
FFC0
2100
2100
3F00
3F00
2100
2100
FFC0
0040
0040
ENDCHAR
STARTCHAR uni04A4.EnCyrillic_GheCyrillic
ENCODING 1188
SWIDTH 932 0
DWIDTH 15 0
BBX 14 11 0 0
BITMAP
7F7C
FF7C
CC10
CC10
4C10
0FF0
0C10
0C10
0C10
0C38
3F7C
ENDCHAR
STARTCHAR uni04A5.enCyrillic_gheCyrillic
ENCODING 1189
SWIDTH 791 0
DWIDTH 13 0
BBX 12 8 0 0
BITMAP
FFF0
CC60
C860
4FE0
0FE0
0860
0C60
3FF0
ENDCHAR
STARTCHAR uni04AA.EsDescenderCyrillic
ENCODING 1194
SWIDTH 637 0
DWIDTH 10 0
BBX 10 15 0 -4
BITMAP
1E80
3B80
6180
6080
4080
C000
C080
60C0
6080
7180
3F00
0800
0E00
1E00
0C00
ENDCHAR
STARTCHAR uni04AB.esDescenderCyrillic
ENCODING 1195
SWIDTH 510 0
DWIDTH 8 0
BBX 8 11 0 -3
BITMAP
3E
66
46
C6
C0
43
66
3C
18
04
1C
ENDCHAR
STARTCHAR uni04AE.UStraightCyrillic
ENCODING 1198
SWIDTH 728 0
DWIDTH 12 0
BBX 12 11 0 0
BITMAP
FBF0
FBF0
3180
1980
1B00
0F00
0E00
0600
0600
0600
1F80
ENDCHAR
STARTCHAR uni04AF.uStraightCyrillic
ENCODING 1199
SWIDTH 601 0
DWIDTH 10 0
BBX 10 11 0 -3
BITMAP
F7C0
6300
2300
3200
3600
1E00
1C00
0C00
0C00
3E00
3E00
ENDCHAR
STARTCHAR uni04B0.UStrokeCyrillic
ENCODING 1200
SWIDTH 728 0
DWIDTH 12 0
BBX 12 11 0 0
BITMAP
FBF0
FBF0
3180
1980
1B00
0F00
0E00
3F80
0600
0600
1F80
ENDCHAR
STARTCHAR uni04B1.uStrokeCyrillic
ENCODING 1201
SWIDTH 601 0
DWIDTH 10 0
BBX 10 11 0 -3
BITMAP
F7C0
6300
2300
3200
3600
1E00
1C00
3F00
3E00
3E00
3E00
ENDCHAR
STARTCHAR uni04B2.HaDescenderCyrillic
ENCODING 1202
SWIDTH 783 0
DWIDTH 13 0
BBX 12 14 0 -3
BITMAP
FDF0
FDF0
19C0
1D80
0F00
0600
0F00
1D80
18C0
30E0
FDF0
0010
0010
0010
ENDCHAR
STARTCHAR uni04B3.haDescenderCyrillic
ENCODING 1203
SWIDTH 637 0
DWIDTH 10 0
BBX 10 10 0 -2
BITMAP
FFC0
3300
1E00
0C00
1C00
3600
3300
FFC0
00C0
00C0
ENDCHAR
STARTCHAR uni04B6.CheDescenderCyrillic
ENCODING 1206
SWIDTH 753 0
DWIDTH 12 0
BBX 12 14 0 -3
BITMAP
FBF0
FBE0
30C0
30C0
30C0
31C0
1FC0
0EC0
00C0
00C0
03F0
0030
0030
0030
ENDCHAR
STARTCHAR uni04B7.cheDescenderCyrillic
ENCODING 1207
SWIDTH 637 0
DWIDTH 10 0
BBX 10 10 0 -2
BITMAP
FFC0
6300
6300
2300
3F00
0300
0300
07C0
00C0
00C0
ENDCHAR
STARTCHAR uni04B8.CheStrokeCyrillic
ENCODING 1208
SWIDTH 753 0
DWIDTH 12 0
BBX 12 11 0 0
BITMAP
FBE0
FBE0
34C0
36C0
36C0
37C0
1FC0
0EC0
06C0
00C0
03F0
ENDCHAR
STARTCHAR uni04B9.cheStrokeCyrillic
ENCODING 1209
SWIDTH 637 0
DWIDTH 10 0
BBX 10 8 0 0
BITMAP
FFC0
6300
6F00
2B00
3F00
0F00
0B00
07C0
ENDCHAR
STARTCHAR uni04BA.ShhaCyrillic
ENCODING 1210
SWIDTH 753 0
DWIDTH 12 0
BBX 12 11 0 0
BITMAP
FC00
FC00
3000
3000
3F80
38C0
30C0
30C0
30C0
30C0
FFF0
ENDCHAR
STARTCHAR uni04BB.shhaCyrillic
ENCODING 1211
SWIDTH 637 0
DWIDTH 10 0
BBX 10 11 0 0
BITMAP
E000
E000
2000
3F00
3300
2100
2100
2100
2100
2180
FFC0
ENDCHAR
STARTCHAR palochkacyrillic
ENCODING 1216
SWIDTH 382 0
DWIDTH 6 0
BBX 6 11 0 0
BITMAP
FC
FC
30
30
30
30
30
30
30
30
FC
ENDCHAR
STARTCHAR uni04C1.ZheBreveCyrillic
ENCODING 1217
SWIDTH 962 0
DWIDTH 15 0
BBX 15 14 0 0
BITMAP
0440
07C0
0380
67CC
F7DE
F11E
1110
1930
1FF0
B39A
F11E
F11E
F39E
67CC
ENDCHAR
STARTCHAR uni04C2.zheBreveCyrillic
ENCODING 1218
SWIDTH 827 0
DWIDTH 13 0
BBX 12 11 0 0
BITMAP
0880
0F80
0000
6FF0
F270
5250
1AC0
3FC0
7270
7270
6FF0
ENDCHAR
STARTCHAR uni04D0.ABreveCyrillic
ENCODING 1232
SWIDTH 746 0
DWIDTH 12 0
BBX 12 14 0 0
BITMAP
1000
1F00
0E00
0600
0E00
0E00
0B00
1B00
1980
3F80
3180
30C0
60C0
FBF0
ENDCHAR
STARTCHAR uni04D1.aBreveCyrillic
ENCODING 1233
SWIDTH 564 0
DWIDTH 9 0
BBX 9 11 0 0
BITMAP
2200
3C00
0000
3C00
6600
6600
3E00
7E00
C680
C680
7F80
ENDCHAR
STARTCHAR uni04D2.ADiaeresisCyrillic
ENCODING 1234
SWIDTH 746 0
DWIDTH 12 0
BBX 12 14 0 0
BITMAP
0900
1F00
0900
0600
0E00
0E00
0B00
1B00
1980
3F80
3180
30C0
60C0
FBF0
ENDCHAR
STARTCHAR uni04D3.aDiaeresisCyrillic
ENCODING 1235
SWIDTH 564 0
DWIDTH 9 0
BBX 9 11 0 0
BITMAP
3400
3600
0000
3C00
6600
6600
3E00
7E00
C680
C680
7F80
ENDCHAR
STARTCHAR Aiecyrillic
ENCODING 1236
SWIDTH 1019 0
DWIDTH 16 0
BBX 16 11 -1 0
BITMAP
00FF
01FF
03C3
03CF
06CB
0FF8
0CC9
18CF
18CB
30C3
FBFF
ENDCHAR
STARTCHAR aiecyrillic
ENCODING 1237
SWIDTH 837 0
DWIDTH 13 0
BBX 13 8 0 0
BITMAP
3DE0
6730
6618
3FF8
6600
C610
C730
7DE0
ENDCHAR
STARTCHAR uni04D6.IeBreveCyrillic
ENCODING 1238
SWIDTH 673 0
DWIDTH 11 0
BBX 10 14 0 0
BITMAP
1100
1F00
0C00
FF80
FFC0
3280
3280
36C0
3E00
32C0
32C0
30C0
30C0
FFC0
ENDCHAR
STARTCHAR uni04D7.ieBreveCyrillic
ENCODING 1239
SWIDTH 528 0
DWIDTH 8 0
BBX 8 11 0 0
BITMAP
66
3C
00
3E
66
43
FF
C0
43
66
3E
ENDCHAR
STARTCHAR uni04D8.SchwaCyrillic
ENCODING 1240
SWIDTH 655 0
DWIDTH 10 0
BBX 10 11 0 0
BITMAP
1E00
3380
6180
40C0
00C0
7FC0
FFC0
40C0
6180
7380
3F00
ENDCHAR
STARTCHAR uni04D9.schwaCyrillic
ENCODING 1241
SWIDTH 528 0
DWIDTH 8 0
BBX 8 8 0 0
BITMAP
3C
66
43
03
FF
C3
66
3C
ENDCHAR
STARTCHAR uni04DC.ZheDiaeresisCyrillic
ENCODING 1244
SWIDTH 962 0
DWIDTH 15 0
BBX 15 13 0 0
BITMAP
06C0
06C0
67CC
F7DE
F11E
1110
1930
1FF0
B39A
F11E
F11E
F39E
67CC
ENDCHAR
STARTCHAR uni04DD.ZzheDiaeresisCyrillic
ENCODING 1245
SWIDTH 827 0
DWIDTH 13 0
BBX 12 11 0 0
BITMAP
0D80
0D80
0000
6FF0
F270
5250
1AC0
3FC0
7270
7270
6FF0
ENDCHAR
STARTCHAR uni04DE.ZeDiaeresisCyrillic
ENCODING 1246
SWIDTH 628 0
DWIDTH 10 0
BBX 9 13 0 0
BITMAP
3E00
1200
5E00
7700
6180
4180
4700
0F00
6180
6180
C180
6380
3F00
ENDCHAR
STARTCHAR uni04DF.zeDiaeresisCyrillic
ENCODING 1247
SWIDTH 488 0
DWIDTH 8 0
BBX 7 11 0 0
BITMAP
2C
7C
00
7C
46
66
1C
1E
C2
66
7E
ENDCHAR
STARTCHAR uni04E2.IMacronCyrillic
ENCODING 1250
SWIDTH 783 0
DWIDTH 13 0
BBX 12 13 0 0
BITMAP
0F80
0000
FDF0
FFF0
30C0
31C0
33C0
36C0
3CC0
3CC0
38C0
30C0
FFF0
ENDCHAR
STARTCHAR uni04E3.iMacronCyrillic
ENCODING 1251
SWIDTH 653 0
DWIDTH 10 0
BBX 10 10 0 0
BITMAP
1F00
0000
FFC0
2180
2300
2700
2D00
3900
3180
FFC0
ENDCHAR
STARTCHAR uni04E4.IDiaeresisCyrillic
ENCODING 1252
SWIDTH 783 0
DWIDTH 13 0
BBX 12 13 0 0
BITMAP
0F80
0D00
FDF0
FFF0
30C0
31C0
33C0
36C0
3CC0
3CC0
38C0
30C0
FFF0
ENDCHAR
STARTCHAR uni04E5.iDiaeresisCyrillic
ENCODING 1253
SWIDTH 653 0
DWIDTH 10 0
BBX 10 11 0 0
BITMAP
1200
1F00
0000
FFC0
2180
2300
2700
2D00
3900
3180
FFC0
ENDCHAR
STARTCHAR uni04E6.ODiaeresisCyrillic
ENCODING 1254
SWIDTH 655 0
DWIDTH 10 0
BBX 10 13 0 0
BITMAP
1F00
1A00
1E00
3F80
6180
60C0
40C0
C0C0
C0C0
60C0
6180
7380
3F00
ENDCHAR
STARTCHAR uni04E7.oDiaeresisCyrillic
ENCODING 1255
SWIDTH 546 0
DWIDTH 9 0
BBX 8 11 0 0
BITMAP
34
36
00
3E
66
43
C3
C3
43
66
3E
ENDCHAR
STARTCHAR uni04E8.OBarredCyrillic
ENCODING 1256
SWIDTH 655 0
DWIDTH 10 0
BBX 10 11 0 0
BITMAP
1E00
3F80
6180
60C0
40C0
FFC0
C0C0
60C0
6180
7380
3F00
ENDCHAR
STARTCHAR uni04E9.oBarredCyrillic
ENCODING 1257
SWIDTH 546 0
DWIDTH 9 0
BBX 8 8 0 0
BITMAP
3E
66
43
FF
FF
43
66
3E
ENDCHAR
STARTCHAR uni04EE.UMacronCyrillic
ENCODING 1262
SWIDTH 737 0
DWIDTH 12 0
BBX 12 13 0 0
BITMAP
1F00
0000
FBF0
F9F0
30C0
1980
1980
1B00
0F00
0E00
6600
6C00
7800
ENDCHAR
STARTCHAR uni04EF.uMacronCyrillic
ENCODING 1263
SWIDTH 601 0
DWIDTH 10 0
BBX 11 13 -1 -3
BITMAP
1F00
0000
7FE0
3180
1980
1900
0B00
0F00
0E00
0600
6400
EC00
7800
ENDCHAR
STARTCHAR uni04F0.UDiaeresisCyrillic
ENCODING 1264
SWIDTH 737 0
DWIDTH 12 0
BBX 12 13 0 0
BITMAP
1B00
0B00
FBF0
F9F0
30C0
1980
1980
1B00
0F00
0E00
6600
6C00
7800
ENDCHAR
STARTCHAR uni04F1.uDiaeresisCyrillic
ENCODING 1265
SWIDTH 601 0
DWIDTH 10 0
BBX 11 14 -1 -3
BITMAP
0900
1F00
0000
7FE0
3180
1980
1900
0B00
0F00
0E00
0600
6400
EC00
7800
ENDCHAR
STARTCHAR uni04F2.UDoubleAcuteCyrillic
ENCODING 1266
SWIDTH 737 0
DWIDTH 12 0
BBX 12 14 0 0
BITMAP
0780
0F00
0A00
FBF0
F9F0
30C0
1980
1980
1B00
0F00
0E00
6600
6C00
7800
ENDCHAR
STARTCHAR uni04F3.uDoubleAcuteCyrillic
ENCODING 1267
SWIDTH 601 0
DWIDTH 10 0
BBX 11 15 -1 -3
BITMAP
0280
0780
0F00
0A00
7FE0
3180
1980
1900
0B00
0F00
0E00
0600
6400
EC00
7800
ENDCHAR
STARTCHAR uni04F4.CheDiaeresis
ENCODING 1268
SWIDTH 753 0
DWIDTH 12 0
BBX 12 13 0 0
BITMAP
1F00
0900
FBE0
FBE0
30C0
30C0
30C0
31C0
1FC0
0EC0
00C0
00C0
03F0
ENDCHAR
STARTCHAR uni04F5.cheDiaeresisCyrillic
ENCODING 1269
SWIDTH 637 0
DWIDTH 10 0
BBX 10 11 0 0
BITMAP
1200
1E00
0000
FFC0
6300
6300
2300
3F00
0300
0300
07C0
ENDCHAR
STARTCHAR uni04F8.YeruDiaeresisCyrillic
ENCODING 1272
SWIDTH 1019 0
DWIDTH 16 0
BBX 16 13 0 0
BITMAP
03E0
0340
FC3F
FC3F
300C
300C
300C
3F8C
31CC
30CC
30CC
31CC
FFBF
ENDCHAR
STARTCHAR uni04F9.yeruDiaeresisCyrillic
ENCODING 1273
SWIDTH 874 0
DWIDTH 14 0
BBX 14 11 0 0
BITMAP
0D00
0D80
0000
F870
3030
3030
3E30
3330
21B0
33B0
FF7C
ENDCHAR
STARTCHAR Aringbelow
ENCODING 7680
SWIDTH 746 0
DWIDTH 12 0
BBX 12 15 0 -4
BITMAP
0600
0E00
0E00
0B00
1B00
1980
3F80
3180
30C0
60C0
FBF0
0000
0600
0F00
0E00
ENDCHAR
STARTCHAR aringbelow
ENCODING 7681
SWIDTH 564 0
DWIDTH 9 0
BBX 9 13 0 -5
BITMAP
3C00
6600
6600
3E00
7E00
C680
C680
7F80
0000
0C00
1C00
1C00
0800
ENDCHAR
STARTCHAR Bdotaccent
ENCODING 7682
SWIDTH 692 0
DWIDTH 11 0
BBX 10 13 0 0
BITMAP
0C00
0C00
FF00
FF80
30C0
30C0
3380
3F80
30C0
30C0
30C0
31C0
FF80
ENDCHAR
STARTCHAR bdotaccent
ENCODING 7683
SWIDTH 564 0
DWIDTH 9 0
BBX 8 14 0 0
BITMAP
18
18
00
E0
E0
60
7E
73
63
61
61
63
73
7E
ENDCHAR
STARTCHAR Bdotbelow
ENCODING 7684
SWIDTH 692 0
DWIDTH 11 0
BBX 10 14 0 -3
BITMAP
FF00
FF80
30C0
30C0
3380
3F80
30C0
30C0
30C0
31C0
FF80
0000
0C00
0C00
ENDCHAR
STARTCHAR bdotbelow
ENCODING 7685
SWIDTH 564 0
DWIDTH 9 0
BBX 8 14 0 -3
BITMAP
E0
E0
60
7E
73
63
61
61
63
73
7E
00
18
18
ENDCHAR
STARTCHAR Blinebelow
ENCODING 7686
SWIDTH 692 0
DWIDTH 11 0
BBX 10 13 0 -2
BITMAP
FF00
FF80
30C0
30C0
3380
3F80
30C0
30C0
30C0
31C0
FF80
1E00
1F00
ENDCHAR
STARTCHAR blinebelow
ENCODING 7687
SWIDTH 564 0
DWIDTH 9 0
BBX 8 14 0 -3
BITMAP
E0
E0
60
7E
73
63
61
61
63
73
7E
00
3C
3C
ENDCHAR
STARTCHAR Ccedillaacute
ENCODING 7688
SWIDTH 637 0
DWIDTH 10 0
BBX 10 18 0 -4
BITMAP
0600
1C00
0000
1E80
3B80
6180
6080
4080
C000
C080
60C0
6080
7180
3F00
0800
0E00
1E00
0C00
ENDCHAR
STARTCHAR ccedillaacute
ENCODING 7689
SWIDTH 510 0
DWIDTH 8 0
BBX 8 14 0 -3
BITMAP
0C
38
00
3E
66
46
C6
C0
43
66
3C
18
04
1C
ENDCHAR
STARTCHAR Ddotaccent
ENCODING 7690
SWIDTH 728 0
DWIDTH 12 0
BBX 11 13 0 0
BITMAP
0600
0600
FF00
FF80
30C0
3060
3060
3060
3060
3060
30C0
31C0
FF00
ENDCHAR
STARTCHAR ddotaccent
ENCODING 7691
SWIDTH 600 0
DWIDTH 10 0
BBX 9 14 0 0
BITMAP
0C00
0C00
0000
0700
0700
0300
3F00
6700
4300
C300
C300
4300
6700
3F80
ENDCHAR
STARTCHAR Ddotbelow
ENCODING 7692
SWIDTH 728 0
DWIDTH 12 0
BBX 11 14 0 -3
BITMAP
FF00
FF80
30C0
3060
3060
3060
3060
3060
30C0
31C0
FF00
0000
0600
0600
ENDCHAR
STARTCHAR ddotbelow
ENCODING 7693
SWIDTH 600 0
DWIDTH 10 0
BBX 9 14 0 -3
BITMAP
0700
0700
0300
3F00
6700
4300
C300
C300
4300
6700
3F80
0000
0C00
0C00
ENDCHAR
STARTCHAR Dlinebelow
ENCODING 7694
SWIDTH 728 0
DWIDTH 12 0
BBX 11 13 0 -2
BITMAP
FF00
FF80
30C0
3060
3060
3060
3060
3060
30C0
31C0
FF00
0F00
1F00
ENDCHAR
STARTCHAR dlinebelow
ENCODING 7695
SWIDTH 600 0
DWIDTH 10 0
BBX 9 14 0 -3
BITMAP
0700
0700
0300
3F00
6700
4300
C300
C300
4300
6700
3F80
0000
1E00
1E00
ENDCHAR
STARTCHAR Dcommaaccent
ENCODING 7696
SWIDTH 728 0
DWIDTH 12 0
BBX 11 16 0 -5
BITMAP
FF00
FF80
30C0
3060
3060
3060
3060
3060
30C0
31C0
FF00
0000
0600
0600
0600
0400
ENDCHAR
STARTCHAR dcommaaccent
ENCODING 7697
SWIDTH 600 0
DWIDTH 10 0
BBX 9 16 0 -5
BITMAP
0700
0700
0300
3F00
6700
4300
C300
C300
4300
6700
3F80
0000
0C00
0C00
0400
0800
ENDCHAR
STARTCHAR Dcircumflexbelow
ENCODING 7698
SWIDTH 728 0
DWIDTH 12 0
BBX 11 14 0 -3
BITMAP
FF00
FF80
30C0
3060
3060
3060
3060
3060
30C0
31C0
FF00
0000
0E00
1B00
ENDCHAR
STARTCHAR dcircumflexbelow
ENCODING 7699
SWIDTH 600 0
DWIDTH 10 0
BBX 9 14 0 -3
BITMAP
0700
0700
0300
3F00
6700
4300
C300
C300
4300
6700
3F80
0000
0C00
3F00
ENDCHAR
STARTCHAR Emacrongrave
ENCODING 7700
SWIDTH 673 0
DWIDTH 11 0
BBX 10 15 0 0
BITMAP
1800
0E00
1E00
1E00
FF80
FFC0
3280
3280
36C0
3E00
32C0
32C0
30C0
30C0
FFC0
ENDCHAR
STARTCHAR emacrongrave
ENCODING 7701
SWIDTH 528 0
DWIDTH 8 0
BBX 8 13 0 0
BITMAP
30
1C
3C
3E
00
3E
66
43
FF
C0
43
66
3E
ENDCHAR
STARTCHAR Emacronacute
ENCODING 7702
SWIDTH 673 0
DWIDTH 11 0
BBX 10 15 0 0
BITMAP
0600
1C00
1E00
1E00
FF80
FFC0
3280
3280
36C0
3E00
32C0
32C0
30C0
30C0
FFC0
ENDCHAR
STARTCHAR emacronacute
ENCODING 7703
SWIDTH 528 0
DWIDTH 8 0
BBX 8 13 0 0
BITMAP
0C
38
3C
3E
00
3E
66
43
FF
C0
43
66
3E
ENDCHAR
STARTCHAR Ecircumflexbelow
ENCODING 7704
SWIDTH 673 0
DWIDTH 11 0
BBX 10 14 0 -3
BITMAP
FF80
FFC0
3280
3280
36C0
3E00
32C0
32C0
30C0
30C0
FFC0
0000
0C00
3F00
ENDCHAR
STARTCHAR ecircumflexbelow
ENCODING 7705
SWIDTH 528 0
DWIDTH 8 0
BBX 8 11 0 -3
BITMAP
3E
66
43
FF
C0
43
66
3E
00
18
3E
ENDCHAR
STARTCHAR Etildebelow
ENCODING 7706
SWIDTH 673 0
DWIDTH 11 0
BBX 10 14 0 -3
BITMAP
FF80
FFC0
3280
3280
36C0
3E00
32C0
32C0
30C0
30C0
FFC0
0000
1D00
3E00
ENDCHAR
STARTCHAR etildebelow
ENCODING 7707
SWIDTH 528 0
DWIDTH 8 0
BBX 8 11 0 -3
BITMAP
3E
66
43
FF
C0
43
66
3E
00
3A
3C
ENDCHAR
STARTCHAR Ecedillabreve
ENCODING 7708
SWIDTH 673 0
DWIDTH 11 0
BBX 10 16 0 -3
BITMAP
3300
1E00
FF80
FFC0
3280
3280
36C0
3E00
32C0
32C0
30C0
30C0
FFC0
0C00
1600
1E00
ENDCHAR
STARTCHAR ecedillabreve
ENCODING 7709
SWIDTH 528 0
DWIDTH 8 0
BBX 8 14 0 -3
BITMAP
26
3C
00
3E
66
43
FF
C0
43
66
3E
18
04
3C
ENDCHAR
STARTCHAR Fdotaccent
ENCODING 7710
SWIDTH 619 0
DWIDTH 10 0
BBX 10 13 0 0
BITMAP
0C00
0C00
FF80
FFC0
3080
3280
3280
3E00
3200
3200
3000
3000
FC00
ENDCHAR
STARTCHAR fdotaccent
ENCODING 7711
SWIDTH 346 0
DWIDTH 6 0
BBX 7 14 0 0
BITMAP
10
38
00
1C
36
26
F8
78
20
20
20
20
20
F8
ENDCHAR
STARTCHAR Gmacron
ENCODING 7712
SWIDTH 710 0
DWIDTH 11 0
BBX 11 13 0 0
BITMAP
0F00
1F00
1E80
3B80
6180
6080
4080
C7E0
C7E0
6080
6180
7180
3F80
ENDCHAR
STARTCHAR gmacron
ENCODING 7713
SWIDTH 546 0
DWIDTH 9 0
BBX 9 15 0 -3
BITMAP
1E00
3E00
0300
0780
3F80
6600
6200
3600
7C00
4000
7E00
C300
C100
7F00
3C00
ENDCHAR
STARTCHAR Hdotaccent
ENCODING 7714
SWIDTH 783 0
DWIDTH 13 0
BBX 12 13 0 0
BITMAP
0600
0600
FDF0
FFF0
30C0
30C0
30C0
3FC0
30C0
30C0
30C0
30C0
FFF0
ENDCHAR
STARTCHAR hdotaccent
ENCODING 7715
SWIDTH 637 0
DWIDTH 10 0
BBX 10 14 0 0
BITMAP
0C00
0C00
0000
E000
E000
2000
3F00
3300
2100
2100
2100
2100
2180
FFC0
ENDCHAR
STARTCHAR Hdotbelow
ENCODING 7716
SWIDTH 783 0
DWIDTH 13 0
BBX 12 14 0 -3
BITMAP
FDF0
FFF0
30C0
30C0
30C0
3FC0
30C0
30C0
30C0
30C0
FFF0
0000
0600
0600
ENDCHAR
STARTCHAR hdotbelow
ENCODING 7717
SWIDTH 637 0
DWIDTH 10 0
BBX 10 14 0 -3
BITMAP
E000
E000
2000
3F00
3300
2100
2100
2100
2100
2180
FFC0
0000
0C00
0C00
ENDCHAR
STARTCHAR Hdieresis
ENCODING 7718
SWIDTH 783 0
DWIDTH 13 0
BBX 12 13 0 0
BITMAP
0D00
0F80
FDF0
FFF0
30C0
30C0
30C0
3FC0
30C0
30C0
30C0
30C0
FFF0
ENDCHAR
STARTCHAR hdieresis
ENCODING 7719
SWIDTH 637 0
DWIDTH 10 0
BBX 10 14 0 0
BITMAP
1A00
1F00
0000
E000
E000
2000
3F00
3300
2100
2100
2100
2100
2180
FFC0
ENDCHAR
STARTCHAR Hcedilla
ENCODING 7720
SWIDTH 783 0
DWIDTH 13 0
BBX 12 14 0 -3
BITMAP
FDF0
FFF0
30C0
30C0
30C0
3FC0
30C0
30C0
30C0
30C0
FFF0
6000
B000
F000
ENDCHAR
STARTCHAR hcedilla
ENCODING 7721
SWIDTH 637 0
DWIDTH 10 0
BBX 10 14 0 -3
BITMAP
E000
E000
2000
3F00
3300
2100
2100
2100
2100
2180
FFC0
6000
B000
E000
ENDCHAR
STARTCHAR Hbrevebelow
ENCODING 7722
SWIDTH 783 0
DWIDTH 13 0
BBX 12 14 0 -3
BITMAP
FDF0
FFF0
30C0
30C0
30C0
3FC0
30C0
30C0
30C0
30C0
FFF0
0000
0980
0F00
ENDCHAR
STARTCHAR hbrevebelow
ENCODING 7723
SWIDTH 637 0
DWIDTH 10 0
BBX 10 14 0 -3
BITMAP
E000
E000
2000
3F00
3300
2100
2100
2100
2100
2180
FFC0
0000
3300
1E00
ENDCHAR
STARTCHAR Itildebelow
ENCODING 7724
SWIDTH 382 0
DWIDTH 6 0
BBX 6 14 0 -3
BITMAP
FC
FC
30
30
30
30
30
30
30
30
FC
00
74
F8
ENDCHAR
STARTCHAR itildebelow
ENCODING 7725
SWIDTH 310 0
DWIDTH 5 0
BBX 5 13 0 -3
BITMAP
60
20
E0
20
20
20
20
20
20
F8
00
68
F8
ENDCHAR
STARTCHAR Idieresisacute
ENCODING 7726
SWIDTH 382 0
DWIDTH 6 0
BBX 6 16 0 0
BITMAP
18
70
00
68
78
FC
FC
30
30
30
30
30
30
30
30
FC
ENDCHAR
STARTCHAR idieresisacute
ENCODING 7727
SWIDTH 310 0
DWIDTH 5 0
BBX 5 13 0 0
BITMAP
30
60
D8
D8
00
E0
20
20
20
20
20
20
F8
ENDCHAR
STARTCHAR Kacute
ENCODING 7728
SWIDTH 783 0
DWIDTH 13 0
BBX 12 14 0 0
BITMAP
0300
0600
0000
FFF0
FFF0
3180
3300
3600
3F00
3B00
3180
30C0
30E0
FFF0
ENDCHAR
STARTCHAR kacute
ENCODING 7729
SWIDTH 619 0
DWIDTH 10 0
BBX 10 14 0 0
BITMAP
0600
1C00
0000
E000
E000
2000
2F80
2700
2C00
3C00
3600
2600
2300
FFC0
ENDCHAR
STARTCHAR Kdotbelow
ENCODING 7730
SWIDTH 783 0
DWIDTH 13 0
BBX 12 14 0 -3
BITMAP
FFF0
FFF0
3180
3300
3600
3F00
3B00
3180
30C0
30E0
FFF0
0000
0600
0600
ENDCHAR
STARTCHAR kdotbelow
ENCODING 7731
SWIDTH 619 0
DWIDTH 10 0
BBX 10 14 0 -3
BITMAP
E000
E000
2000
2F80
2700
2C00
3C00
3600
2600
2300
FFC0
0000
0C00
0C00
ENDCHAR
STARTCHAR Klinebelow
ENCODING 7732
SWIDTH 783 0
DWIDTH 13 0
BBX 12 13 0 -2
BITMAP
FFF0
FFF0
3180
3300
3600
3F00
3B00
3180
30C0
30E0
FFF0
0F00
0F80
ENDCHAR
STARTCHAR klinebelow
ENCODING 7733
SWIDTH 619 0
DWIDTH 10 0
BBX 10 13 0 -2
BITMAP
E000
E000
2000
2F80
2700
2C00
3C00
3600
2600
2300
FFC0
1E00
1E00
ENDCHAR
STARTCHAR Ldotbelow
ENCODING 7734
SWIDTH 637 0
DWIDTH 10 0
BBX 10 14 0 -3
BITMAP
FC00
FC00
3000
3000
3000
3000
30C0
30C0
30C0
30C0
FFC0
0000
0C00
0C00
ENDCHAR
STARTCHAR ldotbelow
ENCODING 7735
SWIDTH 309 0
DWIDTH 5 0
BBX 5 14 0 -3
BITMAP
E0
E0
20
20
20
20
20
20
20
20
F8
00
20
70
ENDCHAR
STARTCHAR Ldotbelowmacron
ENCODING 7736
SWIDTH 637 0
DWIDTH 10 0
BBX 10 16 0 -3
BITMAP
1E00
1E00
FC00
FC00
3000
3000
3000
3000
30C0
30C0
30C0
30C0
FFC0
0000
0C00
0C00
ENDCHAR
STARTCHAR ldotbelowmacron
ENCODING 7737
SWIDTH 309 0
DWIDTH 5 0
BBX 5 16 0 -3
BITMAP
F8
F8
E0
E0
20
20
20
20
20
20
20
20
F8
00
20
70
ENDCHAR
STARTCHAR Llinebelow
ENCODING 7738
SWIDTH 637 0
DWIDTH 10 0
BBX 10 13 0 -2
BITMAP
FC00
FC00
3000
3000
3000
3000
30C0
30C0
30C0
30C0
FFC0
1E00
1E00
ENDCHAR
STARTCHAR llinebelow
ENCODING 7739
SWIDTH 309 0
DWIDTH 5 0
BBX 5 13 0 -2
BITMAP
E0
E0
20
20
20
20
20
20
20
20
F8
F8
F8
ENDCHAR
STARTCHAR Lcircumflexbelow
ENCODING 7740
SWIDTH 637 0
DWIDTH 10 0
BBX 10 14 0 -3
BITMAP
FC00
FC00
3000
3000
3000
3000
30C0
30C0
30C0
30C0
FFC0
0000
0C00
3F00
ENDCHAR
STARTCHAR lcircumflexbelow
ENCODING 7741
SWIDTH 309 0
DWIDTH 5 0
BBX 5 14 0 -3
BITMAP
E0
E0
20
20
20
20
20
20
20
20
F8
00
70
D8
ENDCHAR
STARTCHAR Macute
ENCODING 7742
SWIDTH 947 0
DWIDTH 15 0
BBX 15 14 0 0
BITMAP
0180
0300
0000
F83C
F83E
3C78
3C78
3C58
34D8
36D8
3698
3398
3398
FF7E
ENDCHAR
STARTCHAR macute
ENCODING 7743
SWIDTH 928 0
DWIDTH 15 0
BBX 14 11 0 0
BITMAP
0180
0300
0000
FEF0
3398
3118
3118
3118
3118
3118
FFFC
ENDCHAR
STARTCHAR Mdotaccent
ENCODING 7744
SWIDTH 947 0
DWIDTH 15 0
BBX 15 13 0 0
BITMAP
0100
0380
F83C
F83E
3C78
3C78
3C58
34D8
36D8
3698
3398
3398
FF7E
ENDCHAR
STARTCHAR mdotaccent
ENCODING 7745
SWIDTH 928 0
DWIDTH 15 0
BBX 14 11 0 0
BITMAP
0100
0380
0000
FEF0
3398
3118
3118
3118
3118
3118
FFFC
ENDCHAR
STARTCHAR Mdotbelow
ENCODING 7746
SWIDTH 947 0
DWIDTH 15 0
BBX 15 14 0 -3
BITMAP
F83C
F83E
3C78
3C78
3C58
34D8
36D8
3698
3398
3398
FF7E
0000
0100
0380
ENDCHAR
STARTCHAR mdotbelow
ENCODING 7747
SWIDTH 928 0
DWIDTH 15 0
BBX 14 11 0 -3
BITMAP
FEF0
3398
3118
3118
3118
3118
3118
FFFC
0000
0100
0380
ENDCHAR
STARTCHAR Ndotaccent
ENCODING 7748
SWIDTH 764 0
DWIDTH 12 0
BBX 12 13 0 0
BITMAP
0600
0600
F9F0
F9F0
3C40
3C40
3640
3640
3340
3340
3140
31C0
FCC0
ENDCHAR
STARTCHAR ndotaccent
ENCODING 7749
SWIDTH 637 0
DWIDTH 10 0
BBX 10 11 0 0
BITMAP
0C00
0C00
0000
FF00
3300
3100
2100
2100
2100
2100
FFC0
ENDCHAR
STARTCHAR Ndotbelow
ENCODING 7750
SWIDTH 764 0
DWIDTH 12 0
BBX 12 14 0 -3
BITMAP
F9F0
F9F0
3C40
3C40
3640
3640
3340
3340
3140
31C0
FCC0
0000
0600
0600
ENDCHAR
STARTCHAR ndotbelow
ENCODING 7751
SWIDTH 637 0
DWIDTH 10 0
BBX 10 11 0 -3
BITMAP
FF00
3300
3100
2100
2100
2100
2100
FFC0
0000
0C00
0C00
ENDCHAR
STARTCHAR Nlinebelow
ENCODING 7752
SWIDTH 764 0
DWIDTH 12 0
BBX 12 14 0 -3
BITMAP
F9F0
F9F0
3C40
3C40
3640
3640
3340
3340
3140
31C0
FCC0
0000
0F00
0F80
ENDCHAR
STARTCHAR nlinebelow
ENCODING 7753
SWIDTH 637 0
DWIDTH 10 0
BBX 10 10 0 -2
BITMAP
FF00
3300
3100
2100
2100
2100
2100
FFC0
1E00
1F00
ENDCHAR
STARTCHAR Ncircumflexbelow
ENCODING 7754
SWIDTH 764 0
DWIDTH 12 0
BBX 12 14 0 -3
BITMAP
F9F0
F9F0
3C40
3C40
3640
3640
3340
3340
3140
31C0
FCC0
0000
0600
1F80
ENDCHAR
STARTCHAR ncircumflexbelow
ENCODING 7755
SWIDTH 637 0
DWIDTH 10 0
BBX 10 11 0 -3
BITMAP
FF00
3300
3100
2100
2100
2100
2100
FFC0
0000
0C00
1F00
ENDCHAR
STARTCHAR Otildeacute
ENCODING 7756
SWIDTH 655 0
DWIDTH 10 0
BBX 10 16 0 0
BITMAP
0600
1C00
1D00
1E00
0000
1E00
3F80
6180
60C0
40C0
C0C0
C0C0
60C0
6180
7380
3F00
ENDCHAR
STARTCHAR otildeacute
ENCODING 7757
SWIDTH 546 0
DWIDTH 9 0
BBX 8 14 0 0
BITMAP
0C
18
00
3A
3E
00
3E
66
43
C3
C3
43
66
3E
ENDCHAR
STARTCHAR Otildedieresis
ENCODING 7758
SWIDTH 655 0
DWIDTH 10 0
BBX 10 16 0 0
BITMAP
1A00
1F00
1D00
1E00
0000
1E00
3F80
6180
60C0
40C0
C0C0
C0C0
60C0
6180
7380
3F00
ENDCHAR
STARTCHAR otildedieresis
ENCODING 7759
SWIDTH 546 0
DWIDTH 9 0
BBX 8 13 0 0
BITMAP
36
36
3A
3E
00
3E
66
43
C3
C3
43
66
3E
ENDCHAR
STARTCHAR Omacrongrave
ENCODING 7760
SWIDTH 655 0
DWIDTH 10 0
BBX 10 16 0 0
BITMAP
1800
0E00
0000
1E00
1F00
1E00
3F80
6180
60C0
40C0
C0C0
C0C0
60C0
6180
7380
3F00
ENDCHAR
STARTCHAR omacrongrave
ENCODING 7761
SWIDTH 546 0
DWIDTH 9 0
BBX 8 13 0 0
BITMAP
38
1C
3C
3E
00
3E
66
43
C3
C3
43
66
3E
ENDCHAR
STARTCHAR Omacronacute
ENCODING 7762
SWIDTH 655 0
DWIDTH 10 0
BBX 10 16 0 0
BITMAP
0600
1C00
0000
1E00
1F00
1E00
3F80
6180
60C0
40C0
C0C0
C0C0
60C0
6180
7380
3F00
ENDCHAR
STARTCHAR omacronacute
ENCODING 7763
SWIDTH 546 0
DWIDTH 9 0
BBX 8 13 0 0
BITMAP
0C
18
3C
3E
00
3E
66
43
C3
C3
43
66
3E
ENDCHAR
STARTCHAR Pacute
ENCODING 7764
SWIDTH 637 0
DWIDTH 10 0
BBX 10 14 0 0
BITMAP
0600
1C00
0000
FF00
FF80
30C0
30C0
30C0
3F80
3E00
3000
3000
3000
FC00
ENDCHAR
STARTCHAR pacute
ENCODING 7765
SWIDTH 600 0
DWIDTH 10 0
BBX 9 14 0 -3
BITMAP
0C00
1800
0000
FF00
3300
3180
2180
2180
2180
3300
3E00
2000
F800
F800
ENDCHAR
STARTCHAR Pdotaccent
ENCODING 7766
SWIDTH 637 0
DWIDTH 10 0
BBX 10 13 0 0
BITMAP
0C00
0C00
FF00
FF80
30C0
30C0
30C0
3F80
3E00
3000
3000
3000
FC00
ENDCHAR
STARTCHAR pdotaccent
ENCODING 7767
SWIDTH 600 0
DWIDTH 10 0
BBX 9 14 0 -3
BITMAP
0800
1C00
0000
FF00
3300
3180
2180
2180
2180
3300
3E00
2000
F800
F800
ENDCHAR
STARTCHAR Rdotaccent
ENCODING 7768
SWIDTH 728 0
DWIDTH 12 0
BBX 12 13 0 0
BITMAP
0600
0600
FF00
FF80
30C0
30C0
3180
3F00
31A0
31B0
31B0
31B0
FCE0
ENDCHAR
STARTCHAR rdotaccent
ENCODING 7769
SWIDTH 491 0
DWIDTH 8 0
BBX 8 11 0 0
BITMAP
18
18
00
FE
33
37
26
20
20
30
F8
ENDCHAR
STARTCHAR Rdotbelow
ENCODING 7770
SWIDTH 728 0
DWIDTH 12 0
BBX 12 14 0 -3
BITMAP
FF00
FF80
30C0
30C0
3180
3F00
31A0
31B0
31B0
31B0
FCE0
0000
0600
0600
ENDCHAR
STARTCHAR rdotbelow
ENCODING 7771
SWIDTH 491 0
DWIDTH 8 0
BBX 8 11 0 -3
BITMAP
FE
33
37
26
20
20
30
F8
00
18
18
ENDCHAR
STARTCHAR Rdotbelowmacron
ENCODING 7772
SWIDTH 728 0
DWIDTH 12 0
BBX 12 16 0 -3
BITMAP
0F00
1F00
FF00
FF80
30C0
30C0
3180
3F00
31A0
31B0
31B0
31B0
FCE0
0000
0600
0600
ENDCHAR
STARTCHAR rdotbelowmacron
ENCODING 7773
SWIDTH 491 0
DWIDTH 8 0
BBX 8 14 0 -3
BITMAP
3C
7C
00
FE
33
37
26
20
20
30
F8
00
18
18
ENDCHAR
STARTCHAR Rlinebelow
ENCODING 7774
SWIDTH 728 0
DWIDTH 12 0
BBX 12 13 0 -2
BITMAP
FF00
FF80
30C0
30C0
3180
3F00
31A0
31B0
31B0
31B0
FCE0
0F00
1F00
ENDCHAR
STARTCHAR rlinebelow
ENCODING 7775
SWIDTH 491 0
DWIDTH 8 0
BBX 8 10 0 -2
BITMAP
FE
33
37
26
20
20
30
F8
3C
7C
ENDCHAR
STARTCHAR Sdotaccent
ENCODING 7776
SWIDTH 619 0
DWIDTH 10 0
BBX 8 14 1 0
BITMAP
18
18
00
3E
6E
C2
C3
E2
7E
87
83
C3
C7
FE
ENDCHAR
STARTCHAR sdotaccent
ENCODING 7777
SWIDTH 492 0
DWIDTH 8 0
BBX 6 11 1 0
BITMAP
30
30
00
7C
CC
CC
F8
BC
84
CC
F8
ENDCHAR
STARTCHAR Sdotbelow
ENCODING 7778
SWIDTH 619 0
DWIDTH 10 0
BBX 8 14 1 -3
BITMAP
3E
6E
C2
C3
E2
7E
87
83
C3
C7
FE
00
18
18
ENDCHAR
STARTCHAR sdotbelow
ENCODING 7779
SWIDTH 492 0
DWIDTH 8 0
BBX 6 11 1 -3
BITMAP
7C
CC
CC
F8
BC
84
CC
F8
00
30
30
ENDCHAR
STARTCHAR Sacutedotaccent
ENCODING 7780
SWIDTH 619 0
DWIDTH 10 0
BBX 8 17 1 0
BITMAP
18
18
00
0C
38
00
3E
6E
C2
C3
E2
7E
87
83
C3
C7
FE
ENDCHAR
STARTCHAR sacutedotaccent
ENCODING 7781
SWIDTH 492 0
DWIDTH 8 0
BBX 6 14 1 0
BITMAP
30
30
00
18
70
00
7C
CC
CC
F8
BC
84
CC
F8
ENDCHAR
STARTCHAR Scarondotaccent
ENCODING 7782
SWIDTH 619 0
DWIDTH 10 0
BBX 8 17 1 0
BITMAP
18
18
00
6E
38
00
3E
6E
C2
C3
E2
7E
87
83
C3
C7
FE
ENDCHAR
STARTCHAR scarondotaccent
ENCODING 7783
SWIDTH 492 0
DWIDTH 8 0
BBX 6 14 1 0
BITMAP
30
30
00
DC
70
00
7C
CC
CC
F8
BC
84
CC
F8
ENDCHAR
STARTCHAR Sdotbelowdotaccent
ENCODING 7784
SWIDTH 619 0
DWIDTH 10 0
BBX 8 17 1 -3
BITMAP
18
18
00
3E
6E
C2
C3
E2
7E
87
83
C3
C7
FE
00
18
18
ENDCHAR
STARTCHAR sdotbelowdotaccent
ENCODING 7785
SWIDTH 492 0
DWIDTH 8 0
BBX 6 14 1 -3
BITMAP
30
30
00
7C
CC
CC
F8
BC
84
CC
F8
00
30
30
ENDCHAR
STARTCHAR Tdotaccent
ENCODING 7786
SWIDTH 637 0
DWIDTH 10 0
BBX 10 13 0 0
BITMAP
0C00
0C00
FFC0
FFC0
CCC0
CCC0
CCC0
0C00
0C00
0C00
0C00
0C00
3F00
ENDCHAR
STARTCHAR tdotaccent
ENCODING 7787
SWIDTH 400 0
DWIDTH 6 0
BBX 6 13 0 0
BITMAP
30
30
00
60
60
F8
F8
60
60
64
64
6C
3C
ENDCHAR
STARTCHAR Tdotbelow
ENCODING 7788
SWIDTH 637 0
DWIDTH 10 0
BBX 10 14 0 -3
BITMAP
FFC0
FFC0
CCC0
CCC0
CCC0
0C00
0C00
0C00
0C00
0C00
3F00
0000
0C00
0C00
ENDCHAR
STARTCHAR tdotbelow
ENCODING 7789
SWIDTH 400 0
DWIDTH 6 0
BBX 6 13 0 -3
BITMAP
60
60
F8
F8
60
60
64
64
6C
3C
00
30
30
ENDCHAR
STARTCHAR Tlinebelow
ENCODING 7790
SWIDTH 637 0
DWIDTH 10 0
BBX 10 13 0 -2
BITMAP
FFC0
FFC0
CCC0
CCC0
CCC0
0C00
0C00
0C00
0C00
0C00
3F00
1E00
1E00
ENDCHAR
STARTCHAR tlinebelow
ENCODING 7791
SWIDTH 400 0
DWIDTH 6 0
BBX 6 12 0 -2
BITMAP
60
60
F8
F8
60
60
64
64
6C
3C
78
7C
ENDCHAR
STARTCHAR Tcircumflexbelow
ENCODING 7792
SWIDTH 637 0
DWIDTH 10 0
BBX 10 14 0 -3
BITMAP
FFC0
FFC0
CCC0
CCC0
CCC0
0C00
0C00
0C00
0C00
0C00
3F00
0000
0C00
3F00
ENDCHAR
STARTCHAR tcircumflexbelow
ENCODING 7793
SWIDTH 400 0
DWIDTH 6 0
BBX 6 13 0 -3
BITMAP
60
60
F8
F8
60
60
64
64
6C
3C
00
30
FC
ENDCHAR
STARTCHAR Udieresisbelow
ENCODING 7794
SWIDTH 710 0
DWIDTH 11 0
BBX 11 14 0 -3
BITMAP
FBE0
FBE0
30C0
30C0
20C0
20C0
20C0
20C0
30C0
3180
1F00
0000
1B00
1B00
ENDCHAR
STARTCHAR udieresisbelow
ENCODING 7795
SWIDTH 619 0
DWIDTH 10 0
BBX 10 11 0 -3
BITMAP
E700
6300
6100
6100
6100
6300
3300
3FC0
0000
1600
3E00
ENDCHAR
STARTCHAR Utildebelow
ENCODING 7796
SWIDTH 710 0
DWIDTH 11 0
BBX 11 14 0 -3
BITMAP
FBE0
FBE0
30C0
30C0
20C0
20C0
20C0
20C0
30C0
3180
1F00
0000
0D00
1F00
ENDCHAR
STARTCHAR utildebelow
ENCODING 7797
SWIDTH 619 0
DWIDTH 10 0
BBX 10 11 0 -3
BITMAP
E700
6300
6100
6100
6100
6300
3300
3FC0
0000
1B00
3E00
ENDCHAR
STARTCHAR Ucircumflexbelow
ENCODING 7798
SWIDTH 710 0
DWIDTH 11 0
BBX 11 14 0 -3
BITMAP
FBE0
FBE0
30C0
30C0
20C0
20C0
20C0
20C0
30C0
3180
1F00
0000
0E00
1B00
ENDCHAR
STARTCHAR ucircumflexbelow
ENCODING 7799
SWIDTH 619 0
DWIDTH 10 0
BBX 10 11 0 -3
BITMAP
E700
6300
6100
6100
6100
6300
3300
3FC0
0000
0C00
3F00
ENDCHAR
STARTCHAR Utildeacute
ENCODING 7800
SWIDTH 710 0
DWIDTH 11 0
BBX 11 16 0 0
BITMAP
0700
0E00
0000
0D00
1F00
FBE0
FBE0
30C0
30C0
20C0
20C0
20C0
20C0
30C0
3180
1F00
ENDCHAR
STARTCHAR utildeacute
ENCODING 7801
SWIDTH 619 0
DWIDTH 10 0
BBX 10 13 0 0
BITMAP
0600
1C00
1B00
3E00
0000
E700
6300
6100
6100
6100
6300
3300
3FC0
ENDCHAR
STARTCHAR Umacrondieresis
ENCODING 7802
SWIDTH 710 0
DWIDTH 11 0
BBX 11 15 0 0
BITMAP
1B00
1B00
0F00
1F00
FBE0
FBE0
30C0
30C0
20C0
20C0
20C0
20C0
30C0
3180
1F00
ENDCHAR
STARTCHAR umacrondieresis
ENCODING 7803
SWIDTH 619 0
DWIDTH 10 0
BBX 10 12 0 0
BITMAP
1600
3E00
1E00
3E00
E700
6300
6100
6100
6100
6300
3300
3FC0
ENDCHAR
STARTCHAR Vtilde
ENCODING 7804
SWIDTH 728 0
DWIDTH 12 0
BBX 11 13 0 0
BITMAP
0D00
1F00
FFE0
FFE0
30C0
30C0
1980
1980
1900
0F00
0F00
0E00
0600
ENDCHAR
STARTCHAR vtilde
ENCODING 7805
SWIDTH 601 0
DWIDTH 10 0
BBX 10 11 0 0
BITMAP
1A00
3E00
0000
F7C0
6300
2300
3200
3600
1E00
1C00
0C00
ENDCHAR
STARTCHAR Vdotbelow
ENCODING 7806
SWIDTH 728 0
DWIDTH 12 0
BBX 11 14 0 -3
BITMAP
FFE0
FFE0
30C0
30C0
1980
1980
1900
0F00
0F00
0E00
0600
0000
0600
0600
ENDCHAR
STARTCHAR vdotbelow
ENCODING 7807
SWIDTH 601 0
DWIDTH 10 0
BBX 10 11 0 -3
BITMAP
F7C0
6300
2300
3200
3600
1E00
1C00
0C00
0000
0C00
0C00
ENDCHAR
STARTCHAR Wgrave
ENCODING 7808
SWIDTH 928 0
DWIDTH 15 0
BBX 15 14 0 0
BITMAP
0700
0380
0000
FF7E
FBFE
3398
3398
3690
36B0
16F0
1CF0
1CF0
1C60
0C60
ENDCHAR
STARTCHAR wgrave
ENCODING 7809
SWIDTH 801 0
DWIDTH 13 0
BBX 13 11 0 0
BITMAP
0E00
0700
0000
FEF8
6760
2760
2F60
3D40
3D40
19C0
19C0
ENDCHAR
STARTCHAR Wacute
ENCODING 7810
SWIDTH 928 0
DWIDTH 15 0
BBX 15 14 0 0
BITMAP
0180
0300
0000
FF7E
FBFE
3398
3398
3690
36B0
16F0
1CF0
1CF0
1C60
0C60
ENDCHAR
STARTCHAR wacute
ENCODING 7811
SWIDTH 801 0
DWIDTH 13 0
BBX 13 11 0 0
BITMAP
0300
0600
0000
FEF8
6760
2760
2F60
3D40
3D40
19C0
19C0
ENDCHAR
STARTCHAR Wdieresis
ENCODING 7812
SWIDTH 928 0
DWIDTH 15 0
BBX 15 14 0 0
BITMAP
06C0
06C0
0000
FF7E
FBFE
3398
3398
3690
36B0
16F0
1CF0
1CF0
1C60
0C60
ENDCHAR
STARTCHAR wdieresis
ENCODING 7813
SWIDTH 801 0
DWIDTH 13 0
BBX 13 11 0 0
BITMAP
0D80
0D80
0000
FEF8
6760
2760
2F60
3D40
3D40
19C0
19C0
ENDCHAR
STARTCHAR Wdotaccent
ENCODING 7814
SWIDTH 928 0
DWIDTH 15 0
BBX 15 14 0 0
BITMAP
0300
0300
0000
FF7E
FBFE
3398
3398
3690
36B0
16F0
1CF0
1CF0
1C60
0C60
ENDCHAR
STARTCHAR wdotaccent
ENCODING 7815
SWIDTH 801 0
DWIDTH 13 0
BBX 13 11 0 0
BITMAP
0600
0600
0000
FEF8
6760
2760
2F60
3D40
3D40
19C0
19C0
ENDCHAR
STARTCHAR Wdotbelow
ENCODING 7816
SWIDTH 928 0
DWIDTH 15 0
BBX 15 14 0 -3
BITMAP
FF7E
FBFE
3398
3398
3690
36B0
16F0
1CF0
1CF0
1C60
0C60
0000
0300
0300
ENDCHAR
STARTCHAR wdotbelow
ENCODING 7817
SWIDTH 801 0
DWIDTH 13 0
BBX 13 11 0 -3
BITMAP
FEF8
6760
2760
2F60
3D40
3D40
19C0
19C0
0000
0600
0600
ENDCHAR
STARTCHAR Xdotaccent
ENCODING 7818
SWIDTH 783 0
DWIDTH 13 0
BBX 12 13 0 0
BITMAP
0600
0600
FDF0
FDF0
19C0
1D80
0F00
0600
0F00
1D80
18C0
30E0
FDF0
ENDCHAR
STARTCHAR xdotaccent
ENCODING 7819
SWIDTH 637 0
DWIDTH 10 0
BBX 10 11 0 0
BITMAP
0C00
0C00
0000
FFC0
3300
1E00
0C00
1C00
3600
3300
FFC0
ENDCHAR
STARTCHAR Xdieresis
ENCODING 7820
SWIDTH 783 0
DWIDTH 13 0
BBX 12 13 0 0
BITMAP
0D00
0F80
FDF0
FDF0
19C0
1D80
0F00
0600
0F00
1D80
18C0
30E0
FDF0
ENDCHAR
STARTCHAR xdieresis
ENCODING 7821
SWIDTH 637 0
DWIDTH 10 0
BBX 10 11 0 0
BITMAP
1600
1E00
0000
FFC0
3300
1E00
0C00
1C00
3600
3300
FFC0
ENDCHAR
STARTCHAR Ydotaccent
ENCODING 7822
SWIDTH 728 0
DWIDTH 12 0
BBX 12 13 0 0
BITMAP
0600
0600
FBF0
FBF0
3180
1980
1B00
0F00
0E00
0600
0600
0600
1F80
ENDCHAR
STARTCHAR ydotaccent
ENCODING 7823
SWIDTH 601 0
DWIDTH 10 0
BBX 11 14 -1 -3
BITMAP
0600
0600
0000
7FE0
3180
1980
1900
0B00
0F00
0E00
0600
6400
EC00
7800
ENDCHAR
STARTCHAR Zcircumflex
ENCODING 7824
SWIDTH 619 0
DWIDTH 10 0
BBX 8 14 1 0
BITMAP
18
7E
00
FF
FF
87
8E
8C
18
31
61
C1
C3
FF
ENDCHAR
STARTCHAR zcircumflex
ENCODING 7825
SWIDTH 528 0
DWIDTH 8 0
BBX 7 11 1 0
BITMAP
30
FC
00
FE
8C
9C
38
76
E6
C6
FE
ENDCHAR
STARTCHAR Zdotbelow
ENCODING 7826
SWIDTH 619 0
DWIDTH 10 0
BBX 8 14 1 -3
BITMAP
FF
FF
87
8E
8C
18
31
61
C1
C3
FF
00
18
18
ENDCHAR
STARTCHAR zdotbelow
ENCODING 7827
SWIDTH 528 0
DWIDTH 8 0
BBX 7 11 1 -3
BITMAP
FE
8C
9C
38
76
E6
C6
FE
00
30
30
ENDCHAR
STARTCHAR Zlinebelow
ENCODING 7828
SWIDTH 619 0
DWIDTH 10 0
BBX 8 13 1 -2
BITMAP
FF
FF
87
8E
8C
18
31
61
C1
C3
FF
3C
7C
ENDCHAR
STARTCHAR zlinebelow
ENCODING 7829
SWIDTH 528 0
DWIDTH 8 0
BBX 7 10 1 -2
BITMAP
FE
8C
9C
38
76
E6
C6
FE
78
7C
ENDCHAR
STARTCHAR hlinebelow
ENCODING 7830
SWIDTH 637 0
DWIDTH 10 0
BBX 10 13 0 -2
BITMAP
E000
E000
2000
3F00
3300
2100
2100
2100
2100
2180
FFC0
1E00
1E00
ENDCHAR
STARTCHAR tdieresis
ENCODING 7831
SWIDTH 400 0
DWIDTH 6 0
BBX 6 13 0 0
BITMAP
68
7C
00
60
60
F8
F8
60
60
64
64
6C
3C
ENDCHAR
STARTCHAR wring
ENCODING 7832
SWIDTH 801 0
DWIDTH 13 0
BBX 13 12 0 0
BITMAP
0200
0500
0700
0200
FEF8
6760
2760
2F60
3D40
3D40
19C0
19C0
ENDCHAR
STARTCHAR yring
ENCODING 7833
SWIDTH 601 0
DWIDTH 10 0
BBX 11 15 -1 -3
BITMAP
0400
0A00
0E00
0400
7FE0
3180
1980
1900
0B00
0F00
0E00
0600
6400
EC00
7800
ENDCHAR
STARTCHAR slongdotaccent
ENCODING 7835
SWIDTH 346 0
DWIDTH 6 0
BBX 7 14 0 0
BITMAP
10
38
00
1C
36
26
E0
60
20
20
20
20
20
F8
ENDCHAR
STARTCHAR Adotbelow
ENCODING 7840
SWIDTH 746 0
DWIDTH 12 0
BBX 12 14 0 -3
BITMAP
0600
0E00
0E00
0B00
1B00
1980
3F80
3180
30C0
60C0
FBF0
0000
0600
0600
ENDCHAR
STARTCHAR adotbelow
ENCODING 7841
SWIDTH 564 0
DWIDTH 9 0
BBX 9 11 0 -3
BITMAP
3C00
6600
6600
3E00
7E00
C680
C680
7F80
0000
0C00
0C00
ENDCHAR
STARTCHAR uni1EA2.AHookAbove
ENCODING 7842
SWIDTH 746 0
DWIDTH 12 0
BBX 12 14 0 0
BITMAP
0F00
0B00
0600
0600
0E00
0E00
0B00
1B00
1980
3F80
3180
30C0
60C0
FBF0
ENDCHAR
STARTCHAR uni1EA3.aHookAbove
ENCODING 7843
SWIDTH 564 0
DWIDTH 9 0
BBX 9 12 0 0
BITMAP
0800
3C00
0C00
1800
3C00
6600
6600
3E00
7E00
C680
C680
7F80
ENDCHAR
STARTCHAR Acircumflexacute
ENCODING 7844
SWIDTH 746 0
DWIDTH 12 0
BBX 12 15 0 0
BITMAP
0060
06C0
1F80
0000
0600
0E00
0E00
0B00
1B00
1980
3F80
3180
30C0
60C0
FBF0
ENDCHAR
STARTCHAR acircumflexacute
ENCODING 7845
SWIDTH 564 0
DWIDTH 9 0
BBX 10 13 0 0
BITMAP
00C0
0180
1C00
3600
0000
3C00
6600
6600
3E00
7E00
C680
C680
7F80
ENDCHAR
STARTCHAR Acircumflexgrave
ENCODING 7846
SWIDTH 746 0
DWIDTH 12 0
BBX 12 15 0 0
BITMAP
6000
7600
1F80
0000
0600
0E00
0E00
0B00
1B00
1980
3F80
3180
30C0
60C0
FBF0
ENDCHAR
STARTCHAR acircumflexgrave
ENCODING 7847
SWIDTH 564 0
DWIDTH 9 0
BBX 10 13 -1 0
BITMAP
C000
7000
0E00
1B00
0000
1E00
3300
3300
1F00
3F00
6340
6340
3FC0
ENDCHAR
STARTCHAR uni1EA8.ACircumflexHookAbove
ENCODING 7848
SWIDTH 746 0
DWIDTH 12 0
BBX 12 16 0 0
BITMAP
0180
03C0
01C0
0F00
1B80
0600
0E00
0E00
0B00
1B00
1980
3F80
3180
30C0
60C0
FBF0
ENDCHAR
STARTCHAR uni1EA9.aCircumflexHookAbove
ENCODING 7849
SWIDTH 564 0
DWIDTH 9 0
BBX 9 14 0 0
BITMAP
0700
0500
0700
1A00
3E00
0000
3C00
6600
6600
3E00
7E00
C680
C680
7F80
ENDCHAR
STARTCHAR Acircumflextilde
ENCODING 7850
SWIDTH 746 0
DWIDTH 12 0
BBX 12 16 0 0
BITMAP
0D80
1F00
0600
1F80
0000
0600
0E00
0E00
0B00
1B00
1980
3F80
3180
30C0
60C0
FBF0
ENDCHAR
STARTCHAR acircumflextilde
ENCODING 7851
SWIDTH 564 0
DWIDTH 9 0
BBX 9 14 0 0
BITMAP
1A00
3E00
0000
1C00
3600
0000
3C00
6600
6600
3E00
7E00
C680
C680
7F80
ENDCHAR
STARTCHAR Acircumflexdotbelow
ENCODING 7852
SWIDTH 746 0
DWIDTH 12 0
BBX 12 17 0 -3
BITMAP
0600
1F80
0000
0600
0E00
0E00
0B00
1B00
1980
3F80
3180
30C0
60C0
FBF0
0000
0600
0600
ENDCHAR
STARTCHAR acircumflexdotbelow
ENCODING 7853
SWIDTH 564 0
DWIDTH 9 0
BBX 9 14 0 -3
BITMAP
1C00
3600
0000
3C00
6600
6600
3E00
7E00
C680
C680
7F80
0000
0C00
0C00
ENDCHAR
STARTCHAR Abreveacute
ENCODING 7854
SWIDTH 746 0
DWIDTH 12 0
BBX 12 17 0 0
BITMAP
0300
0E00
0000
1980
0F00
0000
0600
0E00
0E00
0B00
1B00
1980
3F80
3180
30C0
60C0
FBF0
ENDCHAR
STARTCHAR abreveacute
ENCODING 7855
SWIDTH 564 0
DWIDTH 9 0
BBX 9 14 0 0
BITMAP
0E00
1C00
0000
3200
1E00
0000
3C00
6600
6600
3E00
7E00
C680
C680
7F80
ENDCHAR
STARTCHAR Abrevegrave
ENCODING 7856
SWIDTH 746 0
DWIDTH 12 0
BBX 12 17 0 0
BITMAP
0C00
0700
0000
1980
0F00
0000
0600
0E00
0E00
0B00
1B00
1980
3F80
3180
30C0
60C0
FBF0
ENDCHAR
STARTCHAR abrevegrave
ENCODING 7857
SWIDTH 564 0
DWIDTH 9 0
BBX 9 14 0 0
BITMAP
1800
0C00
0000
3200
1E00
0000
3C00
6600
6600
3E00
7E00
C680
C680
7F80
ENDCHAR
STARTCHAR uni1EB2.ABreveHookAbove
ENCODING 7858
SWIDTH 746 0
DWIDTH 12 0
BBX 12 16 0 0
BITMAP
0F00
0300
1780
0F00
0600
0600
0E00
0E00
0B00
1B00
1980
3F80
3180
30C0
60C0
FBF0
ENDCHAR
STARTCHAR uni1EB3.aBreveHookAbove
ENCODING 7859
SWIDTH 564 0
DWIDTH 9 0
BBX 9 14 0 0
BITMAP
1C00
1400
0C00
2A00
3E00
0000
3C00
6600
6600
3E00
7E00
C680
C680
7F80
ENDCHAR
STARTCHAR Abrevetilde
ENCODING 7860
SWIDTH 746 0
DWIDTH 12 0
BBX 12 16 0 0
BITMAP
0D80
1F00
1980
0F00
0000
0600
0E00
0E00
0B00
1B00
1980
3F80
3180
30C0
60C0
FBF0
ENDCHAR
STARTCHAR abrevetilde
ENCODING 7861
SWIDTH 564 0
DWIDTH 9 0
BBX 9 14 0 0
BITMAP
1A00
3E00
0000
3200
1E00
0000
3C00
6600
6600
3E00
7E00
C680
C680
7F80
ENDCHAR
STARTCHAR Abrevedotbelow
ENCODING 7862
SWIDTH 746 0
DWIDTH 12 0
BBX 12 17 0 -3
BITMAP
1980
0F00
0000
0600
0E00
0E00
0B00
1B00
1980
3F80
3180
30C0
60C0
FBF0
0000
0600
0600
ENDCHAR
STARTCHAR abrevedotbelow
ENCODING 7863
SWIDTH 564 0
DWIDTH 9 0
BBX 9 14 0 -3
BITMAP
3200
1E00
0000
3C00
6600
6600
3E00
7E00
C680
C680
7F80
0000
0C00
0C00
ENDCHAR
STARTCHAR Edotbelow
ENCODING 7864
SWIDTH 673 0
DWIDTH 11 0
BBX 10 14 0 -3
BITMAP
FF80
FFC0
3280
3280
36C0
3E00
32C0
32C0
30C0
30C0
FFC0
0000
0C00
0C00
ENDCHAR
STARTCHAR edotbelow
ENCODING 7865
SWIDTH 528 0
DWIDTH 8 0
BBX 8 11 0 -3
BITMAP
3E
66
43
FF
C0
43
66
3E
00
18
18
ENDCHAR
STARTCHAR uni1EBA.EHookAbove
ENCODING 7866
SWIDTH 673 0
DWIDTH 11 0
BBX 10 14 0 0
BITMAP
1E00
0600
0C00
FF80
FFC0
3280
3280
36C0
3E00
32C0
32C0
30C0
30C0
FFC0
ENDCHAR
STARTCHAR uni1EBB.eHookAbove
ENCODING 7867
SWIDTH 528 0
DWIDTH 8 0
BBX 8 11 0 0
BITMAP
3C
1C
10
3E
66
43
FF
C0
43
66
3E
ENDCHAR
STARTCHAR Etilde
ENCODING 7868
SWIDTH 673 0
DWIDTH 11 0
BBX 10 13 0 0
BITMAP
1D00
3E00
FF80
FFC0
3280
3280
36C0
3E00
32C0
32C0
30C0
30C0
FFC0
ENDCHAR
STARTCHAR etilde
ENCODING 7869
SWIDTH 528 0
DWIDTH 8 0
BBX 8 11 0 0
BITMAP
3A
3C
00
3E
66
43
FF
C0
43
66
3E
ENDCHAR
STARTCHAR Ecircumflexacute
ENCODING 7870
SWIDTH 673 0
DWIDTH 11 0
BBX 10 15 0 0
BITMAP
00C0
0D80
3F00
0000
FF80
FFC0
3280
3280
36C0
3E00
32C0
32C0
30C0
30C0
FFC0
ENDCHAR
STARTCHAR ecircumflexacute
ENCODING 7871
SWIDTH 528 0
DWIDTH 8 0
BBX 10 13 0 0
BITMAP
01C0
0380
1800
3E00
0000
3E00
6600
4300
FF00
C000
4300
6600
3E00
ENDCHAR
STARTCHAR Ecircumflexgrave
ENCODING 7872
SWIDTH 673 0
DWIDTH 11 0
BBX 10 15 0 0
BITMAP
C000
6C00
3F00
0000
FF80
FFC0
3280
3280
36C0
3E00
32C0
32C0
30C0
30C0
FFC0
ENDCHAR
STARTCHAR ecircumflexgrave
ENCODING 7873
SWIDTH 528 0
DWIDTH 8 0
BBX 9 13 -1 0
BITMAP
C000
6000
0C00
1F00
0000
1F00
3300
2180
7F80
6000
2180
3300
1F00
ENDCHAR
STARTCHAR uni1EC2.ECircumflexHookAbove
ENCODING 7874
SWIDTH 673 0
DWIDTH 11 0
BBX 10 16 0 0
BITMAP
0180
02C0
01C0
0F00
1B00
FF80
FFC0
3280
3280
36C0
3E00
32C0
32C0
30C0
30C0
FFC0
ENDCHAR
STARTCHAR uni1EC3.eCircumflexHookAbove
ENCODING 7875
SWIDTH 528 0
DWIDTH 8 0
BBX 9 14 0 0
BITMAP
0700
0580
0300
1A00
3E00
0000
3E00
6600
4300
FF00
C000
4300
6600
3E00
ENDCHAR
STARTCHAR Ecircumflextilde
ENCODING 7876
SWIDTH 673 0
DWIDTH 11 0
BBX 10 16 0 0
BITMAP
1D00
3E00
0C00
3F00
0000
FF80
FFC0
3280
3280
36C0
3E00
32C0
32C0
30C0
30C0
FFC0
ENDCHAR
STARTCHAR ecircumflextilde
ENCODING 7877
SWIDTH 528 0
DWIDTH 8 0
BBX 8 14 0 0
BITMAP
3A
3C
00
18
3E
00
3E
66
43
FF
C0
43
66
3E
ENDCHAR
STARTCHAR Ecircumflexdotbelow
ENCODING 7878
SWIDTH 673 0
DWIDTH 11 0
BBX 10 17 0 -3
BITMAP
0C00
3F00
0000
FF80
FFC0
3280
3280
36C0
3E00
32C0
32C0
30C0
30C0
FFC0
0000
0C00
0C00
ENDCHAR
STARTCHAR ecircumflexdotbelow
ENCODING 7879
SWIDTH 528 0
DWIDTH 8 0
BBX 8 14 0 -3
BITMAP
18
3E
00
3E
66
43
FF
C0
43
66
3E
00
18
18
ENDCHAR
STARTCHAR uni1EC8.IHookAbove
ENCODING 7880
SWIDTH 382 0
DWIDTH 6 0
BBX 6 14 0 0
BITMAP
38
08
38
FC
FC
30
30
30
30
30
30
30
30
FC
ENDCHAR
STARTCHAR uni1EC9.iHookAbove
ENCODING 7881
SWIDTH 310 0
DWIDTH 5 0
BBX 5 12 0 0
BITMAP
20
70
30
20
E0
20
20
20
20
20
20
F8
ENDCHAR
STARTCHAR Idotbelow
ENCODING 7882
SWIDTH 382 0
DWIDTH 6 0
BBX 6 14 0 -3
BITMAP
FC
FC
30
30
30
30
30
30
30
30
FC
00
30
30
ENDCHAR
STARTCHAR idotbelow
ENCODING 7883
SWIDTH 310 0
DWIDTH 5 0
BBX 5 13 0 -3
BITMAP
60
20
E0
20
20
20
20
20
20
F8
00
20
70
ENDCHAR
STARTCHAR Odotbelow
ENCODING 7884
SWIDTH 655 0
DWIDTH 10 0
BBX 10 14 0 -3
BITMAP
1E00
3F80
6180
60C0
40C0
C0C0
C0C0
60C0
6180
7380
3F00
0000
0C00
0C00
ENDCHAR
STARTCHAR odotbelow
ENCODING 7885
SWIDTH 546 0
DWIDTH 9 0
BBX 8 11 0 -3
BITMAP
3E
66
43
C3
C3
43
66
3E
00
18
18
ENDCHAR
STARTCHAR uni1ECE.OHookAbove
ENCODING 7886
SWIDTH 655 0
DWIDTH 10 0
BBX 10 14 0 0
BITMAP
0E00
0200
0E00
1E00
3F80
6180
60C0
40C0
C0C0
C0C0
60C0
6180
7380
3F00
ENDCHAR
STARTCHAR uni1ECF.oHookAbove
ENCODING 7887
SWIDTH 546 0
DWIDTH 9 0
BBX 8 12 0 0
BITMAP
08
1C
0C
08
3E
66
43
C3
C3
43
66
3E
ENDCHAR
STARTCHAR Ocircumflexacute
ENCODING 7888
SWIDTH 655 0
DWIDTH 10 0
BBX 11 15 0 0
BITMAP
00E0
0DC0
1F00
0000
1E00
3F80
6180
60C0
40C0
C0C0
C0C0
60C0
6180
7380
3F00
ENDCHAR
STARTCHAR ocircumflexacute
ENCODING 7889
SWIDTH 546 0
DWIDTH 9 0
BBX 10 13 0 0
BITMAP
00C0
0380
1C00
3600
0000
3E00
6600
4300
C300
C300
4300
6600
3E00
ENDCHAR
STARTCHAR Ocircumflexgrave
ENCODING 7890
SWIDTH 655 0
DWIDTH 10 0
BBX 10 15 0 0
BITMAP
C000
6C00
1F00
0000
1E00
3F80
6180
60C0
40C0
C0C0
C0C0
60C0
6180
7380
3F00
ENDCHAR
STARTCHAR ocircumflexgrave
ENCODING 7891
SWIDTH 546 0
DWIDTH 9 0
BBX 9 13 -1 0
BITMAP
C000
7000
0E00
1B00
0000
1F00
3300
2180
6180
6180
2180
3300
1F00
ENDCHAR
STARTCHAR uni1ED4.OCircumflexHookAbove
ENCODING 7892
SWIDTH 655 0
DWIDTH 10 0
BBX 10 16 0 0
BITMAP
0300
0280
0180
0F00
3B00
1E00
3F80
6180
60C0
40C0
C0C0
C0C0
60C0
6180
7380
3F00
ENDCHAR
STARTCHAR uni1ED5.oCircumflexHookAbove
ENCODING 7893
SWIDTH 546 0
DWIDTH 9 0
BBX 9 14 0 0
BITMAP
0700
0580
0300
1A00
3E00
0000
3E00
6600
4300
C300
C300
4300
6600
3E00
ENDCHAR
STARTCHAR Ocircumflextilde
ENCODING 7894
SWIDTH 655 0
DWIDTH 10 0
BBX 10 17 0 0
BITMAP
1D00
1E00
0000
0C00
1F00
0000
1E00
3F80
6180
60C0
40C0
C0C0
C0C0
60C0
6180
7380
3F00
ENDCHAR
STARTCHAR ocircumflextilde
ENCODING 7895
SWIDTH 546 0
DWIDTH 9 0
BBX 8 14 0 0
BITMAP
3A
3E
00
1C
36
00
3E
66
43
C3
C3
43
66
3E
ENDCHAR
STARTCHAR Ocircumflexdotbelow
ENCODING 7896
SWIDTH 655 0
DWIDTH 10 0
BBX 10 17 0 -3
BITMAP
0C00
1F00
0000
1E00
3F80
6180
60C0
40C0
C0C0
C0C0
60C0
6180
7380
3F00
0000
0C00
0C00
ENDCHAR
STARTCHAR ocircumflexdotbelow
ENCODING 7897
SWIDTH 546 0
DWIDTH 9 0
BBX 8 14 0 -3
BITMAP
1C
36
00
3E
66
43
C3
C3
43
66
3E
00
18
18
ENDCHAR
STARTCHAR uni1EDA.OHornAcute
ENCODING 7898
SWIDTH 759 0
DWIDTH 12 0
BBX 12 14 0 0
BITMAP
0200
0600
0800
1E30
3FB0
61E0
60C0
40C0
C0C0
C0C0
60C0
6180
7380
3F00
ENDCHAR
STARTCHAR uni1EDB.oHornAcute
ENCODING 7899
SWIDTH 659 0
DWIDTH 11 0
BBX 10 11 0 0
BITMAP
0400
1C00
00C0
3EC0
6780
4300
C300
C300
4300
6600
3E00
ENDCHAR
STARTCHAR uni1EDC.OHornGrave
ENCODING 7900
SWIDTH 759 0
DWIDTH 12 0
BBX 12 14 0 0
BITMAP
1000
1C00
0600
1E30
3FB0
61E0
60C0
40C0
C0C0
C0C0
60C0
6180
7380
3F00
ENDCHAR
STARTCHAR uni1EDD.oHornGrave
ENCODING 7901
SWIDTH 659 0
DWIDTH 11 0
BBX 10 11 0 0
BITMAP
3000
1C00
00C0
3EC0
6780
4300
C300
C300
4300
6600
3E00
ENDCHAR
STARTCHAR uni1EDE.OHornHookAbove
ENCODING 7902
SWIDTH 759 0
DWIDTH 12 0
BBX 12 15 0 0
BITMAP
0400
0E00
0600
0400
1E30
3FB0
61E0
60C0
40C0
C0C0
C0C0
60C0
6180
7380
3F00
ENDCHAR
STARTCHAR uni1EDF.oHornHookAbove
ENCODING 7903
SWIDTH 659 0
DWIDTH 11 0
BBX 10 12 0 0
BITMAP
0800
1E00
0E00
08C0
3EC0
6780
4300
C300
C300
4300
6600
3E00
ENDCHAR
STARTCHAR uni1EE0.OHornTilde
ENCODING 7904
SWIDTH 759 0
DWIDTH 12 0
BBX 12 13 0 0
BITMAP
1F00
0200
1E30
3FB0
61E0
60C0
40C0
C0C0
C0C0
60C0
6180
7380
3F00
ENDCHAR
STARTCHAR uni1EE1.oHornTilde
ENCODING 7905
SWIDTH 659 0
DWIDTH 11 0
BBX 10 11 0 0
BITMAP
1200
3E00
00C0
3EC0
6780
4300
C300
C300
4300
6600
3E00
ENDCHAR
STARTCHAR uni1EE2.OHornDotBelow
ENCODING 7906
SWIDTH 759 0
DWIDTH 12 0
BBX 12 13 0 -2
BITMAP
1E30
3FB0
61E0
60C0
40C0
C0C0
C0C0
60C0
6180
7380
3F00
0C00
0C00
ENDCHAR
STARTCHAR uni1EE3.oHornDotBelow
ENCODING 7907
SWIDTH 659 0
DWIDTH 11 0
BBX 10 11 0 -2
BITMAP
00C0
3EC0
6780
4300
C300
C300
4300
6600
3E00
0800
1800
ENDCHAR
STARTCHAR Udotbelow
ENCODING 7908
SWIDTH 710 0
DWIDTH 11 0
BBX 11 14 0 -3
BITMAP
FBE0
FBE0
30C0
30C0
20C0
20C0
20C0
20C0
30C0
3180
1F00
0000
0600
0600
ENDCHAR
STARTCHAR udotbelow
ENCODING 7909
SWIDTH 619 0
DWIDTH 10 0
BBX 10 11 0 -3
BITMAP
E700
6300
6100
6100
6100
6300
3300
3FC0
0000
0C00
0C00
ENDCHAR
STARTCHAR uni1EE6.UHookAbove
ENCODING 7910
SWIDTH 710 0
DWIDTH 11 0
BBX 11 14 0 0
BITMAP
0F00
0B00
0600
FBE0
FBE0
30C0
30C0
20C0
20C0
20C0
20C0
30C0
3180
1F00
ENDCHAR
STARTCHAR uni1EE7.uHookAbove
ENCODING 7911
SWIDTH 619 0
DWIDTH 10 0
BBX 10 12 0 0
BITMAP
0800
1E00
0E00
0800
E700
6300
6100
6100
6100
6300
3300
3FC0
ENDCHAR
STARTCHAR uni1EE8.UHornAcute
ENCODING 7912
SWIDTH 863 0
DWIDTH 14 0
BBX 14 14 0 0
BITMAP
0100
0700
0C00
FBFC
FBFC
30F8
30C0
30C0
30C0
20C0
20C0
3080
3180
1F00
ENDCHAR
STARTCHAR uni1EE9.uHornAcute
ENCODING 7913
SWIDTH 721 0
DWIDTH 12 0
BBX 11 11 0 0
BITMAP
0600
0C00
0060
E760
61C0
6100
6100
6100
6300
3300
3FC0
ENDCHAR
STARTCHAR uni1EEA.UHornGrave
ENCODING 7914
SWIDTH 863 0
DWIDTH 14 0
BBX 14 14 0 0
BITMAP
0800
0C00
0200
FBFC
FBFC
30F8
30C0
30C0
30C0
20C0
20C0
3080
3180
1F00
ENDCHAR
STARTCHAR uni1EEB.uHornGrave
ENCODING 7915
SWIDTH 721 0
DWIDTH 12 0
BBX 11 11 0 0
BITMAP
1800
1C00
0060
E760
61C0
6100
6100
6100
6300
3300
3FC0
ENDCHAR
STARTCHAR uni1EEC.UHornHookAbove
ENCODING 7916
SWIDTH 863 0
DWIDTH 14 0
BBX 14 14 0 0
BITMAP
0F00
0700
0400
FBFC
FBFC
30F8
30C0
30C0
30C0
20C0
20C0
3080
3180
1F00
ENDCHAR
STARTCHAR uni1EED.uHornHookAbove
ENCODING 7917
SWIDTH 721 0
DWIDTH 12 0
BBX 11 12 0 0
BITMAP
0400
1E00
0E00
0860
E760
61C0
6100
6100
6100
6300
3300
3FC0
ENDCHAR
STARTCHAR uni1EEE.UHornTilde
ENCODING 7918
SWIDTH 863 0
DWIDTH 14 0
BBX 14 13 0 0
BITMAP
1F00
1200
FBFC
FBFC
30F8
30C0
30C0
30C0
20C0
20C0
3080
3180
1F00
ENDCHAR
STARTCHAR uni1EEF.uHornTilde
ENCODING 7919
SWIDTH 721 0
DWIDTH 12 0
BBX 11 11 0 0
BITMAP
1800
3E00
0060
E760
61C0
6100
6100
6100
6300
3300
3FC0
ENDCHAR
STARTCHAR uni1EF0.UHornDotBelow
ENCODING 7920
SWIDTH 863 0
DWIDTH 14 0
BBX 14 13 0 -2
BITMAP
FBFC
FBFC
30F8
30C0
30C0
30C0
20C0
20C0
3080
3180
1F00
0400
0600
ENDCHAR
STARTCHAR uni1EF1.uHornDotBelow
ENCODING 7921
SWIDTH 721 0
DWIDTH 12 0
BBX 11 11 0 -2
BITMAP
0060
E760
61C0
6100
6100
6100
6300
3300
3FC0
0C00
0C00
ENDCHAR
STARTCHAR Ygrave
ENCODING 7922
SWIDTH 728 0
DWIDTH 12 0
BBX 12 14 0 0
BITMAP
0C00
0700
0000
FBF0
FBF0
3180
1980
1B00
0F00
0E00
0600
0600
0600
1F80
ENDCHAR
STARTCHAR ygrave
ENCODING 7923
SWIDTH 601 0
DWIDTH 10 0
BBX 11 14 -1 -3
BITMAP
0C00
0600
0000
7FE0
3180
1980
1900
0B00
0F00
0E00
0600
6400
EC00
7800
ENDCHAR
STARTCHAR Ydotbelow
ENCODING 7924
SWIDTH 728 0
DWIDTH 12 0
BBX 12 14 0 -3
BITMAP
FBF0
FBF0
3180
1980
1B00
0F00
0E00
0600
0600
0600
1F80
0000
0600
0600
ENDCHAR
STARTCHAR ydotbelow
ENCODING 7925
SWIDTH 601 0
DWIDTH 10 0
BBX 11 14 -1 -6
BITMAP
7FE0
3180
1980
1900
0B00
0F00
0E00
0600
6400
EC00
7800
0000
0600
0600
ENDCHAR
STARTCHAR uni1EF6.YHookAbove
ENCODING 7926
SWIDTH 728 0
DWIDTH 12 0
BBX 12 14 0 0
BITMAP
0F00
0B00
0600
FBF0
FBF0
3180
1980
1B00
0F00
0E00
0600
0600
0600
1F80
ENDCHAR
STARTCHAR uni1EF7.yHookAbove
ENCODING 7927
SWIDTH 601 0
DWIDTH 10 0
BBX 11 14 -1 -3
BITMAP
0F00
0700
0400
7FE0
3180
1980
1900
0B00
0F00
0E00
0600
6400
EC00
7800
ENDCHAR
STARTCHAR Ytilde
ENCODING 7928
SWIDTH 728 0
DWIDTH 12 0
BBX 12 13 0 0
BITMAP
0D00
1F00
FBF0
FBF0
3180
1980
1B00
0F00
0E00
0600
0600
0600
1F80
ENDCHAR
STARTCHAR ytilde
ENCODING 7929
SWIDTH 601 0
DWIDTH 10 0
BBX 11 14 -1 -3
BITMAP
0D00
1F00
0000
7FE0
3180
1980
1900
0B00
0F00
0E00
0600
6400
EC00
7800
ENDCHAR
STARTCHAR zerowidthspace
ENCODING 8203
SWIDTH 0 0
DWIDTH 0 0
BBX 1 1 0 0
BITMAP
00
ENDCHAR
STARTCHAR zerowidthnonjoiner
ENCODING 8204
SWIDTH 0 0
DWIDTH 0 0
BBX 1 1 0 0
BITMAP
00
ENDCHAR
STARTCHAR zerowidthjoiner
ENCODING 8205
SWIDTH 0 0
DWIDTH 0 0
BBX 1 1 0 0
BITMAP
00
ENDCHAR
STARTCHAR lefttorightmark
ENCODING 8206
SWIDTH 0 0
DWIDTH 0 0
BBX 1 1 0 0
BITMAP
00
ENDCHAR
STARTCHAR righttoleftmark
ENCODING 8207
SWIDTH 0 0
DWIDTH 0 0
BBX 1 1 0 0
BITMAP
00
ENDCHAR
STARTCHAR hyphentwo
ENCODING 8208
SWIDTH 309 0
DWIDTH 5 0
BBX 4 1 0 4
BITMAP
F0
ENDCHAR
STARTCHAR nonbreakinghyphen
ENCODING 8209
SWIDTH 309 0
DWIDTH 5 0
BBX 4 1 0 4
BITMAP
F0
ENDCHAR
STARTCHAR figuredash
ENCODING 8210
SWIDTH 500 0
DWIDTH 8 0
BBX 8 1 0 5
BITMAP
FF
ENDCHAR
STARTCHAR endash
ENCODING 8211
SWIDTH 500 0
DWIDTH 8 0
BBX 8 1 0 5
BITMAP
FF
ENDCHAR
STARTCHAR emdash
ENCODING 8212
SWIDTH 764 0
DWIDTH 12 0
BBX 12 1 0 4
BITMAP
FFF0
ENDCHAR
STARTCHAR horizontalbar
ENCODING 8213
SWIDTH 764 0
DWIDTH 12 0
BBX 12 1 0 4
BITMAP
FFF0
ENDCHAR
STARTCHAR quoteleft
ENCODING 8216
SWIDTH 255 0
DWIDTH 4 0
BBX 2 5 1 6
BITMAP
40
80
C0
C0
C0
ENDCHAR
STARTCHAR quoteright
ENCODING 8217
SWIDTH 256 0
DWIDTH 4 0
BBX 2 5 1 6
BITMAP
C0
C0
40
C0
80
ENDCHAR
STARTCHAR quotesinglbase
ENCODING 8218
SWIDTH 256 0
DWIDTH 4 0
BBX 2 5 1 -3
BITMAP
C0
C0
40
C0
80
ENDCHAR
STARTCHAR quoteleftreversed
ENCODING 8219
SWIDTH 256 0
DWIDTH 4 0
BBX 2 5 1 6
BITMAP
C0
C0
80
C0
40
ENDCHAR
STARTCHAR quotedblleft
ENCODING 8220
SWIDTH 437 0
DWIDTH 7 0
BBX 5 5 1 6
BITMAP
58
90
F8
D8
D8
ENDCHAR
STARTCHAR quotedblright
ENCODING 8221
SWIDTH 437 0
DWIDTH 7 0
BBX 5 5 1 6
BITMAP
F8
F8
48
D8
90
ENDCHAR
STARTCHAR quotedblbase
ENCODING 8222
SWIDTH 437 0
DWIDTH 7 0
BBX 5 5 1 -3
BITMAP
D8
F8
48
D8
90
ENDCHAR
STARTCHAR quotedblleftaltone
ENCODING 8223
SWIDTH 437 0
DWIDTH 7 0
BBX 5 5 1 6
BITMAP
D8
F8
90
D0
48
ENDCHAR
STARTCHAR dagger
ENCODING 8224
SWIDTH 637 0
DWIDTH 10 0
BBX 8 13 1 -2
BITMAP
18
18
18
FF
5A
18
18
18
18
18
18
18
18
ENDCHAR
STARTCHAR daggerdbl
ENCODING 8225
SWIDTH 637 0
DWIDTH 10 0
BBX 8 13 1 -2
BITMAP
18
18
18
FF
5A
18
18
18
18
FF
5A
18
18
ENDCHAR
STARTCHAR bullet
ENCODING 8226
SWIDTH 667 0
DWIDTH 11 0
BBX 5 5 3 3
BITMAP
60
F0
F8
F0
70
ENDCHAR
STARTCHAR ellipsis
ENCODING 8230
SWIDTH 818 0
DWIDTH 13 0
BBX 11 2 1 0
BITMAP
CC60
CEE0
ENDCHAR
STARTCHAR perthousand
ENCODING 8240
SWIDTH 1165 0
DWIDTH 19 0
BBX 18 12 0 -1
BITMAP
38C000
6D8000
4F8000
CD0000
4F0000
7AE780
37B4C0
051CC0
0D1CC0
09BCC0
19E780
100000
ENDCHAR
STARTCHAR guilsinglleft
ENCODING 8249
SWIDTH 218 0
DWIDTH 3 0
BBX 3 6 0 1
BITMAP
20
60
C0
40
60
20
ENDCHAR
STARTCHAR guilsinglright
ENCODING 8250
SWIDTH 219 0
DWIDTH 4 0
BBX 3 6 0 1
BITMAP
40
40
60
60
40
80
ENDCHAR
STARTCHAR fraction
ENCODING 8260
SWIDTH 146 0
DWIDTH 2 0
BBX 8 11 -3 0
BITMAP
01
03
06
04
0C
18
10
30
20
60
C0
ENDCHAR
STARTCHAR reversedpilcrow
ENCODING 8267
SWIDTH 581 0
DWIDTH 9 0
BBX 8 13 0 -2
BITMAP
FC
FF
6F
6F
6F
6E
68
68
68
68
68
68
68
ENDCHAR
STARTCHAR zerosuperior
ENCODING 8304
SWIDTH 420 0
DWIDTH 7 0
BBX 6 7 0 4
BITMAP
78
4C
C4
C4
C4
4C
78
ENDCHAR
STARTCHAR uni2071
ENCODING 8305
SWIDTH 205 0
DWIDTH 3 0
BBX 3 7 0 4
BITMAP
40
40
C0
40
40
40
E0
ENDCHAR
STARTCHAR foursuperior
ENCODING 8308
SWIDTH 420 0
DWIDTH 7 0
BBX 6 7 0 4
BITMAP
18
38
68
48
FC
08
3C
ENDCHAR
STARTCHAR fivesuperior
ENCODING 8309
SWIDTH 420 0
DWIDTH 7 0
BBX 6 7 0 4
BITMAP
7C
44
78
6C
44
C4
7C
ENDCHAR
STARTCHAR sixsuperior
ENCODING 8310
SWIDTH 420 0
DWIDTH 7 0
BBX 6 7 0 4
BITMAP
3C
4C
F8
CC
C4
44
7C
ENDCHAR
STARTCHAR sevensuperior
ENCODING 8311
SWIDTH 420 0
DWIDTH 7 0
BBX 5 7 1 4
BITMAP
E8
B8
98
30
60
60
60
ENDCHAR
STARTCHAR eightsuperior
ENCODING 8312
SWIDTH 420 0
DWIDTH 7 0
BBX 6 7 0 4
BITMAP
78
4C
7C
7C
C4
C4
7C
ENDCHAR
STARTCHAR ninesuperior
ENCODING 8313
SWIDTH 420 0
DWIDTH 7 0
BBX 6 7 0 4
BITMAP
78
4C
C4
4C
7C
4C
78
ENDCHAR
STARTCHAR plussuperior
ENCODING 8314
SWIDTH 330 0
DWIDTH 5 0
BBX 5 5 0 5
BITMAP
20
20
F8
20
20
ENDCHAR
STARTCHAR hyphensuperior
ENCODING 8315
SWIDTH 204 0
DWIDTH 3 0
BBX 3 1 0 6
BITMAP
E0
ENDCHAR
STARTCHAR equalsuperior
ENCODING 8316
SWIDTH 330 0
DWIDTH 5 0
BBX 5 3 0 6
BITMAP
F8
00
F8
ENDCHAR
STARTCHAR parenleftsuperior
ENCODING 8317
SWIDTH 300 0
DWIDTH 5 0
BBX 4 9 0 2
BITMAP
30
60
40
40
C0
40
40
60
10
ENDCHAR
STARTCHAR parenrightsuperior
ENCODING 8318
SWIDTH 300 0
DWIDTH 5 0
BBX 4 9 0 2
BITMAP
C0
20
30
10
10
10
10
20
C0
ENDCHAR
STARTCHAR nsuperior
ENCODING 8319
SWIDTH 420 0
DWIDTH 7 0
BBX 7 5 0 4
BITMAP
FC
4C
4C
4C
FE
ENDCHAR
STARTCHAR zeroinferior
ENCODING 8320
SWIDTH 420 0
DWIDTH 7 0
BBX 6 7 0 -3
BITMAP
78
44
C4
C4
C4
4C
78
ENDCHAR
STARTCHAR oneinferior
ENCODING 8321
SWIDTH 420 0
DWIDTH 7 0
BBX 5 7 1 -3
BITMAP
E0
20
20
20
20
20
F8
ENDCHAR
STARTCHAR twoinferior
ENCODING 8322
SWIDTH 420 0
DWIDTH 7 0
BBX 6 7 0 -3
BITMAP
7C
44
4C
38
64
FC
DC
ENDCHAR
STARTCHAR threeinferior
ENCODING 8323
SWIDTH 420 0
DWIDTH 7 0
BBX 6 7 0 -3
BITMAP
7C
48
50
3C
C4
C4
78
ENDCHAR
STARTCHAR fourinferior
ENCODING 8324
SWIDTH 420 0
DWIDTH 7 0
BBX 6 7 0 -3
BITMAP
18
38
68
C8
FC
08
3C
ENDCHAR
STARTCHAR fiveinferior
ENCODING 8325
SWIDTH 420 0
DWIDTH 7 0
BBX 6 7 0 -3
BITMAP
7C
44
78
4C
44
C4
78
ENDCHAR
STARTCHAR sixinferior
ENCODING 8326
SWIDTH 420 0
DWIDTH 7 0
BBX 6 7 0 -3
BITMAP
7C
4C
F8
CC
C4
44
78
ENDCHAR
STARTCHAR seveninferior
ENCODING 8327
SWIDTH 420 0
DWIDTH 7 0
BBX 5 7 1 -3
BITMAP
E8
B8
98
20
60
60
60
ENDCHAR
STARTCHAR eightinferior
ENCODING 8328
SWIDTH 420 0
DWIDTH 7 0
BBX 6 7 0 -3
BITMAP
78
4C
7C
7C
C4
C4
7C
ENDCHAR
STARTCHAR nineinferior
ENCODING 8329
SWIDTH 420 0
DWIDTH 7 0
BBX 6 7 0 -3
BITMAP
78
4C
C4
4C
3C
4C
78
ENDCHAR
STARTCHAR uni208A
ENCODING 8330
SWIDTH 330 0
DWIDTH 5 0
BBX 5 5 0 -2
BITMAP
20
20
F8
20
20
ENDCHAR
STARTCHAR hypheninferior
ENCODING 8331
SWIDTH 204 0
DWIDTH 3 0
BBX 3 1 0 -1
BITMAP
E0
ENDCHAR
STARTCHAR uni208C
ENCODING 8332
SWIDTH 330 0
DWIDTH 5 0
BBX 5 3 0 -1
BITMAP
F8
00
F8
ENDCHAR
STARTCHAR parenleftinferior
ENCODING 8333
SWIDTH 300 0
DWIDTH 5 0
BBX 4 9 0 -5
BITMAP
30
60
40
40
C0
40
40
20
10
ENDCHAR
STARTCHAR parenrightinferior
ENCODING 8334
SWIDTH 300 0
DWIDTH 5 0
BBX 4 9 0 -5
BITMAP
40
20
30
10
10
10
30
20
C0
ENDCHAR
STARTCHAR uni2090
ENCODING 8336
SWIDTH 372 0
DWIDTH 6 0
BBX 6 6 0 -3
BITMAP
20
58
58
F8
9C
FC
ENDCHAR
STARTCHAR uni2091
ENCODING 8337
SWIDTH 348 0
DWIDTH 6 0
BBX 5 6 0 -3
BITMAP
30
78
C8
F8
C8
78
ENDCHAR
STARTCHAR uni2092
ENCODING 8338
SWIDTH 360 0
DWIDTH 6 0
BBX 5 6 0 -3
BITMAP
30
78
C8
C8
C8
78
ENDCHAR
STARTCHAR uni2093
ENCODING 8339
SWIDTH 420 0
DWIDTH 7 0
BBX 7 5 0 -3
BITMAP
FE
38
30
68
FE
ENDCHAR
STARTCHAR uni2094
ENCODING 8340
SWIDTH 348 0
DWIDTH 6 0
BBX 5 6 0 -3
BITMAP
20
78
C8
F8
C8
70
ENDCHAR
STARTCHAR uni20AB.dong
ENCODING 8363
SWIDTH 600 0
DWIDTH 10 0
BBX 10 13 0 -2
BITMAP
0700
0700
0F80
1B00
7F00
6300
C300
C300
4300
6700
3F80
0000
FFC0
ENDCHAR
STARTCHAR Euro
ENCODING 8364
SWIDTH 637 0
DWIDTH 10 0
BBX 10 11 0 0
BITMAP
1E80
3B80
3180
6080
FC80
6000
FC00
60C0
2080
3180
1F00
ENDCHAR
STARTCHAR uni20B4.hryvnia
ENCODING 8372
SWIDTH 619 0
DWIDTH 10 0
BBX 8 11 1 0
BITMAP
FC
EE
C3
C3
FF
7C
FF
C3
C3
C7
7F
ENDCHAR
STARTCHAR uni20B9.rupee
ENCODING 8377
SWIDTH 703 0
DWIDTH 11 0
BBX 10 11 0 0
BITMAP
7FC0
7FC0
0300
FFC0
0300
1E00
1E40
0340
0340
03C0
03C0
ENDCHAR
STARTCHAR centigrade
ENCODING 8451
SWIDTH 1137 0
DWIDTH 18 0
BBX 17 11 1 0
BITMAP
303D00
787700
C8C300
48C100
708100
018000
018100
00C180
00C100
00E300
007E00
ENDCHAR
STARTCHAR fahrenheit
ENCODING 8457
SWIDTH 1119 0
DWIDTH 18 0
BBX 17 11 1 0
BITMAP
31FF00
79FF80
C86100
486500
706500
007C00
006400
006400
006000
006000
01F800
ENDCHAR
STARTCHAR uni2116.numero
ENCODING 8470
SWIDTH 1247 0
DWIDTH 20 0
BBX 19 11 0 0
BITMAP
F9F780
F9FEC0
3C4C60
3C5860
365860
364860
334C60
3347C0
31C300
31C300
FCC380
ENDCHAR
STARTCHAR uni2117.recordright
ENCODING 8471
SWIDTH 791 0
DWIDTH 13 0
BBX 12 11 0 0
BITMAP
0F80
38C0
6060
5FA0
4CB0
CF90
4C10
4E30
6020
30C0
1F80
ENDCHAR
STARTCHAR trademark
ENCODING 8482
SWIDTH 904 0
DWIDTH 14 0
BBX 14 7 0 4
BITMAP
FB9C
B598
B5B8
31E8
31E8
3168
7BDC
ENDCHAR
STARTCHAR Omega
ENCODING 8486
SWIDTH 667 0
DWIDTH 11 0
BBX 10 11 0 0
BITMAP
1E00
3F80
6180
40C0
C0C0
C0C0
C0C0
40C0
6180
3300
FBC0
ENDCHAR
STARTCHAR ohminverted
ENCODING 8487
SWIDTH 667 0
DWIDTH 11 0
BBX 10 11 0 0
BITMAP
FBC0
F3C0
6180
40C0
C0C0
C0C0
C0C0
C0C0
60C0
3B80
1E00
ENDCHAR
STARTCHAR kelvin
ENCODING 8490
SWIDTH 783 0
DWIDTH 13 0
BBX 12 11 0 0
BITMAP
FFF0
FFF0
3180
3300
3600
3F00
3B00
3180
30C0
30E0
FFF0
ENDCHAR
STARTCHAR angstrom
ENCODING 8491
SWIDTH 746 0
DWIDTH 12 0
BBX 12 14 0 0
BITMAP
0E00
0A00
0E00
0600
0E00
0E00
0B00
1B00
1980
3F80
3180
30C0
60C0
FBF0
ENDCHAR
STARTCHAR Fturned
ENCODING 8498
SWIDTH 619 0
DWIDTH 10 0
BBX 10 11 0 0
BITMAP
0F80
0F80
0300
1300
1300
1F00
DF00
D300
D300
E700
FFC0
ENDCHAR
STARTCHAR uni2153.oneThird
ENCODING 8531
SWIDTH 863 0
DWIDTH 14 0
BBX 13 14 0 -3
BITMAP
E060
2040
20C0
2180
2100
2300
FE00
04F8
0C90
08A0
1878
0188
0188
00F8
ENDCHAR
STARTCHAR uni2154.twoThirds
ENCODING 8532
SWIDTH 914 0
DWIDTH 15 0
BBX 14 14 0 -3
BITMAP
7830
C460
4C40
38C0
6580
FD00
DF00
027C
0648
0C50
083C
00C4
00C4
0078
ENDCHAR
STARTCHAR uni215B.oneEighth
ENCODING 8539
SWIDTH 852 0
DWIDTH 14 0
BBX 13 14 0 -3
BITMAP
E060
2040
20C0
2180
2100
2300
FE00
04F0
0C98
08F8
18F8
0188
0188
00F0
ENDCHAR
STARTCHAR uni215C.threeEighths
ENCODING 8540
SWIDTH 901 0
DWIDTH 14 0
BBX 14 14 0 -3
BITMAP
7C20
4860
5040
3CC0
C580
C500
7B00
0278
06C8
0C78
0878
008C
00CC
0078
ENDCHAR
STARTCHAR uni215D.fiveEighths
ENCODING 8541
SWIDTH 892 0
DWIDTH 14 0
BBX 14 14 0 -3
BITMAP
7820
4C60
7840
4CC0
4580
CD00
7B00
0678
04C8
0CF8
08F8
008C
008C
0078
ENDCHAR
STARTCHAR uni215E.sevenEighths
ENCODING 8542
SWIDTH 823 0
DWIDTH 13 0
BBX 13 14 0 -3
BITMAP
FC40
9CC0
D980
1100
3300
2200
2600
0CF0
0990
19F0
31F0
0118
0118
01F0
ENDCHAR
STARTCHAR uni215F
ENCODING 8543
SWIDTH 594 0
DWIDTH 10 0
BBX 9 12 0 0
BITMAP
E000
6080
6180
6300
6200
F600
0C00
0800
1800
1000
3000
6000
ENDCHAR
STARTCHAR Oneroman
ENCODING 8544
SWIDTH 382 0
DWIDTH 6 0
BBX 6 11 0 0
BITMAP
FC
FC
30
30
30
30
30
30
30
30
FC
ENDCHAR
STARTCHAR Tworoman
ENCODING 8545
SWIDTH 764 0
DWIDTH 12 0
BBX 12 11 0 0
BITMAP
FFF0
FFF0
30C0
30C0
30C0
30C0
30C0
30C0
30C0
30C0
FFF0
ENDCHAR
STARTCHAR Threeroman
ENCODING 8546
SWIDTH 1146 0
DWIDTH 18 0
BBX 18 11 0 0
BITMAP
FFFFC0
FFFFC0
30C300
30C300
30C300
30C300
30C300
30C300
30C300
30C300
FFFFC0
ENDCHAR
STARTCHAR Fourroman
ENCODING 8547
SWIDTH 1110 0
DWIDTH 18 0
BBX 18 11 0 0
BITMAP
FFFFC0
FFFFC0
30C300
30C300
306600
306600
306600
303C00
303C00
301C00
FC1800
ENDCHAR
STARTCHAR Fiveroman
ENCODING 8548
SWIDTH 728 0
DWIDTH 12 0
BBX 11 11 0 0
BITMAP
FFE0
FFE0
30C0
30C0
1980
1980
1900
0F00
0F00
0E00
0600
ENDCHAR
STARTCHAR Sixroman
ENCODING 8549
SWIDTH 1110 0
DWIDTH 18 0
BBX 18 11 0 0
BITMAP
FFEF80
FFEF80
30C300
30C300
198300
198300
190300
0F0300
0F0300
0E0300
060FC0
ENDCHAR
STARTCHAR Sevenroman
ENCODING 8550
SWIDTH 1492 0
DWIDTH 24 0
BBX 24 11 0 0
BITMAP
FFEFBE
FFEFBE
30C30C
30C30C
19830C
19830C
19030C
0F030C
0F030C
0E030C
060FFF
ENDCHAR
STARTCHAR Eightroman
ENCODING 8551
SWIDTH 1874 0
DWIDTH 30 0
BBX 30 11 0 0
BITMAP
FFEFBEFC
FFEFBEFC
30C30C30
30C30C30
19830C30
19830C30
19030C30
0F030C30
0F030C30
0E030C30
060FFFFC
ENDCHAR
STARTCHAR Nineroman
ENCODING 8552
SWIDTH 1165 0
DWIDTH 19 0
BBX 18 11 0 0
BITMAP
FFF7C0
FFF7C0
306300
303600
303C00
301800
303C00
303600
306300
30C380
FFF7C0
ENDCHAR
STARTCHAR Tenroman
ENCODING 8553
SWIDTH 783 0
DWIDTH 13 0
BBX 12 11 0 0
BITMAP
FDF0
FDF0
19C0
1D80
0F00
0600
0F00
1D80
18C0
30E0
FDF0
ENDCHAR
STARTCHAR Elevenroman
ENCODING 8554
SWIDTH 1165 0
DWIDTH 19 0
BBX 18 11 0 0
BITMAP
FDF7C0
FDF7C0
19C100
1D8100
0F0100
060100
0F0100
1D8100
18C100
30E380
FDF7C0
ENDCHAR
STARTCHAR Twelveroman
ENCODING 8555
SWIDTH 1547 0
DWIDTH 25 0
BBX 25 11 0 0
BITMAP
FDF7DF00
FDF7DF00
19C10600
1D810600
0F010600
06010600
0F010600
1D810600
18C10600
30E38600
FDF7DF80
ENDCHAR
STARTCHAR uni216C
ENCODING 8556
SWIDTH 637 0
DWIDTH 10 0
BBX 10 11 0 0
BITMAP
FC00
FC00
3000
3000
3000
3000
30C0
30C0
30C0
30C0
FFC0
ENDCHAR
STARTCHAR uni216D
ENCODING 8557
SWIDTH 637 0
DWIDTH 10 0
BBX 10 11 0 0
BITMAP
1E80
3B80
6180
6080
4080
C000
C080
60C0
6080
7180
3F00
ENDCHAR
STARTCHAR uni216E
ENCODING 8558
SWIDTH 728 0
DWIDTH 12 0
BBX 11 11 0 0
BITMAP
FF00
FF80
30C0
3060
3060
3060
3060
3060
30C0
31C0
FF00
ENDCHAR
STARTCHAR uni216F
ENCODING 8559
SWIDTH 947 0
DWIDTH 15 0
BBX 15 11 0 0
BITMAP
F83C
F83E
3C78
3C78
3C58
34D8
36D8
3698
3398
3398
FF7E
ENDCHAR
STARTCHAR oneroman
ENCODING 8560
SWIDTH 310 0
DWIDTH 5 0
BBX 5 10 0 0
BITMAP
60
20
E0
20
20
20
20
20
20
F8
ENDCHAR
STARTCHAR tworoman
ENCODING 8561
SWIDTH 620 0
DWIDTH 10 0
BBX 10 10 0 0
BITMAP
6300
2100
E700
2100
2100
2100
2100
2100
2100
FFC0
ENDCHAR
STARTCHAR threeroman
ENCODING 8562
SWIDTH 930 0
DWIDTH 15 0
BBX 15 10 0 0
BITMAP
6318
2108
E738
2108
2108
2108
2108
2108
2108
FFFE
ENDCHAR
STARTCHAR fourroman
ENCODING 8563
SWIDTH 911 0
DWIDTH 15 0
BBX 15 10 0 0
BITMAP
6000
2000
E7BE
2318
2118
2190
21B0
20B0
20E0
F860
ENDCHAR
STARTCHAR fiveroman
ENCODING 8564
SWIDTH 601 0
DWIDTH 10 0
BBX 10 8 0 0
BITMAP
F7C0
6300
2300
3200
3600
1E00
1C00
0C00
ENDCHAR
STARTCHAR sixroman
ENCODING 8565
SWIDTH 911 0
DWIDTH 15 0
BBX 15 10 0 0
BITMAP
0018
0010
F7F8
6318
2318
3218
3618
1E18
1C18
0C3E
ENDCHAR
STARTCHAR sevenroman
ENCODING 8566
SWIDTH 1221 0
DWIDTH 20 0
BBX 20 10 0 0
BITMAP
0018C0
001080
F7F9C0
6318C0
2318C0
3218C0
3618C0
1E18C0
1C18C0
0C3FF0
ENDCHAR
STARTCHAR eightroman
ENCODING 8567
SWIDTH 1531 0
DWIDTH 25 0
BBX 24 10 0 0
BITMAP
0018C6
001084
F7F9CE
6318C6
2318C6
3218C6
3618C6
1E18C6
1C18C6
0C3FFF
ENDCHAR
STARTCHAR nineroman
ENCODING 8568
SWIDTH 947 0
DWIDTH 15 0
BBX 15 10 0 0
BITMAP
6000
2000
E7FE
2198
20F0
2060
20E0
21B0
2398
FFFE
ENDCHAR
STARTCHAR tenroman
ENCODING 8569
SWIDTH 637 0
DWIDTH 10 0
BBX 10 8 0 0
BITMAP
FFC0
3300
1E00
0C00
1C00
3600
3300
FFC0
ENDCHAR
STARTCHAR elevenroman
ENCODING 8570
SWIDTH 947 0
DWIDTH 15 0
BBX 15 10 0 0
BITMAP
001C
0008
FFFC
330C
1E0C
0C0C
1C0C
360C
330C
FFFE
ENDCHAR
STARTCHAR twelveroman
ENCODING 8571
SWIDTH 1257 0
DWIDTH 20 0
BBX 20 10 0 0
BITMAP
001CE0
000840
FFFDE0
330C60
1E0C60
0C0C60
1C0C60
360C60
330C60
FFFFF0
ENDCHAR
STARTCHAR uni217C
ENCODING 8572
SWIDTH 309 0
DWIDTH 5 0
BBX 5 11 0 0
BITMAP
E0
E0
20
20
20
20
20
20
20
20
F8
ENDCHAR
STARTCHAR uni217D
ENCODING 8573
SWIDTH 510 0
DWIDTH 8 0
BBX 8 8 0 0
BITMAP
3E
66
46
C6
C0
43
66
3C
ENDCHAR
STARTCHAR uni217E
ENCODING 8574
SWIDTH 600 0
DWIDTH 10 0
BBX 9 11 0 0
BITMAP
0700
0700
0300
3F00
6700
4300
C300
C300
4300
6700
3F80
ENDCHAR
STARTCHAR thousandroman
ENCODING 8575
SWIDTH 928 0
DWIDTH 15 0
BBX 14 8 0 0
BITMAP
FEF0
3398
3118
3118
3118
3118
3118
FFFC
ENDCHAR
STARTCHAR partialdiff
ENCODING 8706
SWIDTH 500 0
DWIDTH 8 0
BBX 7 11 0 0
BITMAP
60
78
1C
06
3E
66
C2
C2
C2
66
3C
ENDCHAR
STARTCHAR Delta
ENCODING 8710
SWIDTH 667 0
DWIDTH 11 0
BBX 10 11 0 0
BITMAP
0C00
0C00
0E00
1A00
1300
3300
3100
2180
6080
60C0
FFC0
ENDCHAR
STARTCHAR nabla
ENCODING 8711
SWIDTH 667 0
DWIDTH 11 0
BBX 10 11 0 0
BITMAP
FFC0
7FC0
6080
6180
3180
3300
1300
1A00
1E00
0E00
0C00
ENDCHAR
STARTCHAR uni220E
ENCODING 8718
SWIDTH 500 0
DWIDTH 8 0
BBX 6 12 1 0
BITMAP
FC
FC
FC
FC
FC
FC
FC
FC
FC
FC
FC
FC
ENDCHAR
STARTCHAR product
ENCODING 8719
SWIDTH 699 0
DWIDTH 11 0
BBX 11 16 0 -4
BITMAP
FFE0
2080
2080
2080
2080
2080
2080
2080
2080
2080
2080
2080
2080
2080
FBE0
FBE0
ENDCHAR
STARTCHAR coproduct
ENCODING 8720
SWIDTH 699 0
DWIDTH 11 0
BBX 11 16 0 -4
BITMAP
FBE0
2080
2080
2080
2080
2080
2080
2080
2080
2080
2080
2080
2080
2080
FFE0
FFE0
ENDCHAR
STARTCHAR summation
ENCODING 8721
SWIDTH 667 0
DWIDTH 11 0
BBX 10 16 0 -4
BITMAP
FFC0
C0C0
60C0
20C0
3000
1800
1800
0C00
0800
1800
3000
3000
60C0
60C0
FFC0
FFC0
ENDCHAR
STARTCHAR minus
ENCODING 8722
SWIDTH 549 0
DWIDTH 9 0
BBX 7 2 1 3
BITMAP
FE
FE
ENDCHAR
STARTCHAR minusplus
ENCODING 8723
SWIDTH 500 0
DWIDTH 8 0
BBX 8 9 0 1
BITMAP
FF
FF
18
18
18
FF
18
18
18
ENDCHAR
STARTCHAR bulletoperator
ENCODING 8729
SWIDTH 137 0
DWIDTH 2 0
BBX 2 3 0 4
BITMAP
C0
C0
40
ENDCHAR
STARTCHAR radical
ENCODING 8730
SWIDTH 667 0
DWIDTH 11 0
BBX 11 13 0 0
BITMAP
03E0
0200
0600
0600
0600
0400
0C00
EC00
6C00
6800
3800
3800
3000
ENDCHAR
STARTCHAR infinity
ENCODING 8734
SWIDTH 667 0
DWIDTH 11 0
BBX 10 5 0 3
BITMAP
7380
DEC0
CC40
DEC0
73C0
ENDCHAR
STARTCHAR integral
ENCODING 8747
SWIDTH 500 0
DWIDTH 8 0
BBX 6 16 1 -4
BITMAP
1C
30
30
30
30
30
30
30
30
30
30
30
30
30
F0
E0
ENDCHAR
STARTCHAR approxequal
ENCODING 8776
SWIDTH 500 0
DWIDTH 8 0
BBX 8 5 0 3
BITMAP
73
FE
84
7B
DE
ENDCHAR
STARTCHAR notequal
ENCODING 8800
SWIDTH 500 0
DWIDTH 8 0
BBX 8 7 0 2
BITMAP
04
0C
FF
18
FF
FF
20
ENDCHAR
STARTCHAR lessequal
ENCODING 8804
SWIDTH 500 0
DWIDTH 8 0
BBX 8 9 0 1
BITMAP
01
0F
3C
E0
F0
3C
07
01
FF
ENDCHAR
STARTCHAR greaterequal
ENCODING 8805
SWIDTH 500 0
DWIDTH 8 0
BBX 8 9 0 1
BITMAP
80
E0
3C
0F
0F
3C
E0
80
FF
ENDCHAR
STARTCHAR uni22C5.dotMath
ENCODING 8901
SWIDTH 273 0
DWIDTH 4 0
BBX 2 3 1 4
BITMAP
40
C0
C0
ENDCHAR
STARTCHAR lozenge
ENCODING 9674
SWIDTH 667 0
DWIDTH 11 0
BBX 8 11 1 0
BITMAP
08
1C
34
66
43
C1
43
62
34
1C
18
ENDCHAR
STARTCHAR uniEB03.AOgonekAcute
ENCODING 60163
SWIDTH 746 0
DWIDTH 12 0
BBX 12 17 0 -3
BITMAP
0100
0700
0C00
0600
0E00
0E00
0B00
1B00
1980
3F80
3180
30C0
60C0
FBF0
0040
00C0
0070
ENDCHAR
STARTCHAR uniEB09.XDotBelow
ENCODING 60169
SWIDTH 783 0
DWIDTH 13 0
BBX 12 13 0 -2
BITMAP
FDF0
FDF0
19C0
1D80
0F00
0600
0F00
1D80
18C0
30E0
FDF0
0200
0600
ENDCHAR
STARTCHAR uniEB0A.xDotBelow
ENCODING 60170
SWIDTH 637 0
DWIDTH 10 0
BBX 10 10 0 -2
BITMAP
FFC0
3300
1E00
0C00
1E00
3600
3300
FFC0
0C00
0C00
ENDCHAR
STARTCHAR uniEB0E.ECircumflexMacron
ENCODING 60174
SWIDTH 673 0
DWIDTH 11 0
BBX 10 16 0 0
BITMAP
1E00
1F00
0400
1E00
1100
FF80
FFC0
3280
3280
36C0
3E00
32C0
32C0
30C0
30C0
FFC0
ENDCHAR
STARTCHAR uniEB0F.eCircumflexMacron
ENCODING 60175
SWIDTH 528 0
DWIDTH 8 0
BBX 8 13 0 0
BITMAP
3E
00
18
7E
00
3E
67
43
FF
C0
43
67
3E
ENDCHAR
STARTCHAR uniEB10.ECircumflexCaron
ENCODING 60176
SWIDTH 673 0
DWIDTH 11 0
BBX 10 17 0 0
BITMAP
2100
1E00
0C00
0400
1E00
1100
FF80
FFC0
3280
3280
36C0
3E00
32C0
32C0
30C0
30C0
FFC0
ENDCHAR
STARTCHAR uniEB11.eCircumflexCaron
ENCODING 60177
SWIDTH 528 0
DWIDTH 8 0
BBX 8 14 0 0
BITMAP
76
1C
00
18
7E
00
3E
67
43
FF
C0
43
67
3E
ENDCHAR
STARTCHAR apple
ENCODING 63743
SWIDTH 667 0
DWIDTH 11 0
BBX 10 11 0 0
BITMAP
0300
0600
1700
7FC0
7F80
FF80
FF80
7F80
7FC0
7FC0
3F80
ENDCHAR
STARTCHAR uniFB00.ff
ENCODING 64256
SWIDTH 703 0
DWIDTH 11 0
BBX 12 11 0 0
BITMAP
1CF0
36F0
3790
FBE0
7BC0
3180
3180
3180
3180
3180
FBC0
ENDCHAR
STARTCHAR fi
ENCODING 64257
SWIDTH 600 0
DWIDTH 10 0
BBX 9 11 0 0
BITMAP
1E00
3300
2300
FF00
7F00
2300
2300
2300
2300
2300
FF80
ENDCHAR
STARTCHAR fl
ENCODING 64258
SWIDTH 600 0
DWIDTH 10 0
BBX 9 11 0 0
BITMAP
1F00
3700
2300
FB00
7300
2300
2300
2300
2300
2300
FF80
ENDCHAR
STARTCHAR uniFB03.ffi
ENCODING 64259
SWIDTH 1041 0
DWIDTH 17 0
BBX 16 11 0 0
BITMAP
1CF0
36DE
3794
FBFE
7BC6
3186
3186
3186
3186
3186
FBFF
ENDCHAR
STARTCHAR uniFB04.ffl
ENCODING 64260
SWIDTH 1079 0
DWIDTH 17 0
BBX 17 11 0 0
BITMAP
1CFE00
36DE00
379600
FBE600
7BC600
318600
318600
318600
318600
318600
FBEF80
ENDCHAR
STARTCHAR uniFE10.verticalComma
ENCODING 65040
SWIDTH 273 0
DWIDTH 4 0
BBX 2 5 1 2
BITMAP
C0
C0
C0
40
C0
ENDCHAR
STARTCHAR uniFE13.verticalColon
ENCODING 65043
SWIDTH 273 0
DWIDTH 4 0
BBX 2 8 1 1
BITMAP
C0
C0
00
00
00
40
C0
C0
ENDCHAR
STARTCHAR uniFE14.verticalSemicolon
ENCODING 65044
SWIDTH 273 0
DWIDTH 4 0
BBX 2 10 1 -1
BITMAP
C0
C0
00
00
00
C0
C0
C0
40
C0
ENDCHAR
STARTCHAR uniFE15.verticalExclam
ENCODING 65045
SWIDTH 419 0
DWIDTH 7 0
BBX 3 12 2 1
BITMAP
40
C0
C0
C0
C0
C0
C0
C0
40
40
E0
40
ENDCHAR
STARTCHAR uniFE16.verticalQuestion
ENCODING 65046
SWIDTH 600 0
DWIDTH 10 0
BBX 8 12 1 1
BITMAP
18
7E
C3
A3
E3
0E
1C
30
30
10
38
10
ENDCHAR
STARTCHAR uniFE19.verticalHorizontalEllipsis
ENCODING 65049
SWIDTH 273 0
DWIDTH 4 0
BBX 2 11 1 0
BITMAP
C0
C0
00
00
40
C0
C0
00
00
C0
C0
ENDCHAR
STARTCHAR uniFE31.emDashVertical
ENCODING 65073
SWIDTH 500 0
DWIDTH 8 0
BBX 2 14 3 -3
BITMAP
C0
C0
C0
C0
C0
C0
C0
C0
C0
C0
C0
C0
C0
C0
ENDCHAR
STARTCHAR uniFE32.enDashVertical
ENCODING 65074
SWIDTH 500 0
DWIDTH 8 0
BBX 2 11 3 -1
BITMAP
C0
C0
C0
C0
C0
C0
C0
C0
C0
C0
C0
ENDCHAR
STARTCHAR uniFE33.underscoreVertical
ENCODING 65075
SWIDTH 500 0
DWIDTH 8 0
BBX 2 11 3 -1
BITMAP
C0
C0
C0
C0
C0
C0
C0
C0
C0
C0
C0
ENDCHAR
STARTCHAR uniFE34.wavyUnderscoreVertical
ENCODING 65076
SWIDTH 500 0
DWIDTH 8 0
BBX 2 13 3 -2
BITMAP
C0
C0
C0
80
C0
C0
80
C0
C0
C0
C0
C0
C0
ENDCHAR
STARTCHAR uniFE35.parenLeftVertical
ENCODING 65077
SWIDTH 500 0
DWIDTH 8 0
BBX 14 6 -3 -2
BITMAP
0FC0
3FF0
6018
C008
8004
8004
ENDCHAR
STARTCHAR uniFE36.parenRightVertical
ENCODING 65078
SWIDTH 500 0
DWIDTH 8 0
BBX 14 6 -3 4
BITMAP
8004
800C
4018
7030
3FE0
0F80
ENDCHAR
STARTCHAR uniFE37.braceLeftVertical
ENCODING 65079
SWIDTH 500 0
DWIDTH 8 0
BBX 14 4 -3 -2
BITMAP
0300
7FF8
C00C
C00C
ENDCHAR
STARTCHAR uniFE38.braceRightVertical
ENCODING 65080
SWIDTH 500 0
DWIDTH 8 0
BBX 14 4 -3 6
BITMAP
C00C
FFFC
7FF8
0300
ENDCHAR
STARTCHAR uniFE47.bracketLeftVertical
ENCODING 65095
SWIDTH 500 0
DWIDTH 8 0
BBX 14 5 -3 -3
BITMAP
FFFC
C00C
800C
C00C
8004
ENDCHAR
STARTCHAR uniFE48.bracketRightVertical
ENCODING 65096
SWIDTH 500 0
DWIDTH 8 0
BBX 14 5 -3 6
BITMAP
800C
800C
800C
FFFC
FFFC
ENDCHAR
STARTCHAR .notdef
ENCODING -1
SWIDTH 500 0
DWIDTH 8 0
BBX 6 12 1 0
BITMAP
FC
84
84
84
84
84
84
84
84
84
84
FC
ENDCHAR
STARTCHAR hook
ENCODING -1
SWIDTH 492 0
DWIDTH 8 0
BBX 4 4 2 8
BITMAP
40
F0
70
40
ENDCHAR
ENDFONT
